<svg xmlns="http://www.w3.org/2000/svg">
<defs>
<font
       horiz-adv-x="1024"
       id="font6651"
       inkscape:label="font 2"
       horiz-origin-x="0"
       horiz-origin-y="0"
       vert-origin-x="45"
       vert-origin-y="90"
       vert-adv-y="90">
      <font-face
         units-per-em="1024"
         id="font-face6653"
         font-family="OCRA-stripped" />
      <missing-glyph
         d="m 0,1003.1832 1024.4475,0 0,-1568 -1024.4475,0 z"
         id="missing-glyph6655" />
      <glyph
         glyph-name="A"
         id="glyph6657"
         unicode="A"
         d="m 358.83722,597.8594 c -27.1199,0 -55.55806,-3.94007 -73.7991,-19.31192 l 590.3928,0 c -14.22418,12.71893 -37.72401,19.31192 -73.7991,19.31192 l -442.7946,0 z M 265.7262,534.40597 c -0.11047,-1.8429 -0.6886,-3.56951 -0.6886,-5.51769 0,-22.36385 7.75101,-37.39361 19.31192,-47.59008 l 609.70469,0 0,44.83123 c 0,2.89745 -0.52087,5.55985 -0.6886,8.27654 l -627.63721,0 z m 431.06951,-97.24928 -55.1769,-53.10776 191.73972,0 20.69132,20.00162 c 12.79575,12.21417 21.48789,23.00015 27.58847,33.10614 l -184.84261,0 z m -101.38756,-97.24929 -55.8666,-53.10776 191.73972,0 55.86661,53.10776 -191.73973,0 z m -102.07726,-97.24918 -54.48718,-52.41821 191.05,0 55.17691,52.41821 -191.73973,0 z m -100.69784,-96.55969 -55.8666,-53.10774 191.73973,0 55.17688,53.10774 -191.05001,0 z M 290.55579,48.84931 252.62168,12.2946 C 246.01016,6.0721 241.09876,0.7605 237.44804,-4.2584 l 188.98088,0 55.8666,53.10771 -191.73973,0 z M 227.10237,-48.3999 c -0.0112,-1.5229 0,-2.5053 0,-4.1385 l 0,-35.865 c 0,-4.2919 -0.23173,-8.8723 0,-13.1045 l 666.95074,0 c 0.007,0.4879 0,0.8852 0,1.3795 0,25.4702 -9.96429,41.5746 -24.13989,51.7285 l -642.81085,0 z m 17.24279,-97.2495 c 13.84587,-13.2656 38.17048,-22.0707 82.76534,-22.0707 l 473.1419,0 c 25.78062,0 57.45371,3.3544 76.55794,22.0707 l -632.46518,0 z" />
      <glyph
         glyph-name="B"
         id="glyph6667"
         unicode="B"
         d="m 138.36257,1026.4982 0,-34.3496 596.63764,0 c -45.5141,22.1364 -100.46648,34.3496 -166.52089,34.3496 l -430.11675,0 z m 0,-82.14035 0,-57.49824 710.14066,0 c -12.40784,21.5891 -27.47916,40.5664 -44.80383,57.49824 l -665.33683,0 z m 0,-105.28899 0,-57.49825 153.07974,0 0,57.49825 -153.07974,0 z m 551.08708,0 c 18.08508,-14.6778 30.44784,-33.64444 38.82998,-57.49825 l 158.30689,0 c -4.1742,20.37404 -9.67607,39.34319 -16.42811,57.49825 l -180.70876,0 z m -551.08708,-105.28899 0,-57.49824 153.07974,0 0,57.49824 -153.07974,0 z m 601.11802,0 c 2.31403,-17.60266 3.59283,-36.83394 3.73365,-57.49824 l 153.82648,0 c -0.1362,20.03282 -1.0588,38.87495 -2.987,57.49824 l -154.57313,0 z m -601.11802,-105.289 0,-57.49824 153.07974,0 0,57.49824 -153.07974,0 z m 601.11802,0 c -3.77939,-22.34502 -10.30075,-41.57262 -20.16173,-57.49824 l 165.77406,0 c 4.9692,18.88466 7.9844,37.78977 9.7075,57.49824 l -155.31983,0 z m -601.11802,-105.28899 0,-56.75151 693.71259,0 c 15.08876,18.47304 26.67274,37.21126 35.84307,56.75151 l -203.85742,0 c -26.1537,-12.01079 -58.04923,-17.92154 -95.58149,-17.92154 l -277.03701,0 0,17.92154 -153.07974,0 z m 0,-104.54227 0,-57.49824 713.12758,0 c -12.00638,19.37872 -27.47492,38.46682 -46.29729,57.49824 l -666.83029,0 z m 0,-105.28898 0,-57.49825 153.07974,0 0,57.49825 -153.07974,0 z m 557.80765,0 c 15.80024,-14.90322 26.19755,-34.49604 33.60287,-57.49825 l 159.80023,0 c -3.401,20.07938 -8.7099,38.95028 -15.68126,57.49825 l -177.72184,0 z m -557.80765,-105.289 0,-57.49824 153.07974,0 0,57.49824 -153.07974,0 z m 601.86474,0 c 2.09587,-17.73417 2.98693,-36.75588 2.98693,-57.49824 l 153.82648,0 c 0,20.24294 -1.0328,39.13603 -2.2403,57.49824 l -154.57311,0 z m -601.86474,-105.289 0,-57.49822 153.07974,0 0,57.49822 -153.07974,0 z m 600.37128,0 C 734.37873,80.10649 727.15626,61.19036 716.33194,45.29441 l 167.26758,0 c 5.0947,17.95823 8.1628,37.55176 10.4542,57.49822 l -155.31987,0 z M 138.36257,-2.4964 l 0,-56.7515 690.72567,0 c 13.94995,17.1031 25.99872,36.003 35.84305,56.7515 l -211.32471,0 c -24.09023,-9.0884 -52.51402,-13.4411 -85.12726,-13.4411 l -277.03701,0 0,13.4411 -153.07974,0 z m 0,-104.5422 0,-57.4983 494.33556,0 c 56.25753,8.2921 105.16247,27.9975 145.61243,57.4983 l -639.94799,0 z" />
      <glyph
         glyph-name="C"
         id="glyph6699"
         unicode="C"
         d="m 556.94617,1024.3845 c -59.24008,0 -105.49618,-10.6492 -143.50098,-34.38045 l 470.86262,0 c -14.80907,24.90655 -42.27492,34.38045 -65.7713,34.38045 l -261.59034,0 z M 361.12711,942.17039 C 348.05035,925.88205 335.82478,906.4719 324.50447,884.62051 l 540.37091,0 c 16.39115,11.33282 28.41319,29.81348 29.89603,57.54988 l -533.6443,0 z m -60.53947,-105.38354 -29.14865,-57.54987 170.40743,0 13.45322,26.15904 c 6.41616,12.83222 11.73311,23.11111 17.19021,31.39083 l -171.90221,0 z m -52.31808,-105.38353 -29.14864,-57.54989 170.40743,0 28.40124,57.54989 -169.66003,0 z M 195.20409,626.01977 178.76127,592.38673 c -4.25002,-8.49987 -7.65769,-16.04176 -11.21101,-23.91683 l 168.91262,0 29.14864,57.54987 -170.40743,0 z M 149.61263,520.63624 c -5.54272,-18.35318 -9.93122,-36.65537 -11.95841,-56.80248 l 156.2068,0 c 3.97331,19.20536 10.5954,37.56493 19.43243,56.80248 l -163.68082,0 z M 135.41201,416.0001 c 0.30136,-20.27571 3.08575,-39.14389 6.72662,-57.54987 l 159.1964,0 c -6.86628,17.42271 -11.35165,35.30454 -11.95841,57.54987 l -153.96461,0 z m 19.43243,-105.38354 c 6.06315,-16.96122 13.85239,-33.68409 22.42203,-50.82326 l 2.9896,-6.72662 171.90223,0 -28.40124,57.54988 -168.91262,0 z m 49.32846,-105.38354 28.40124,-57.54987 171.15483,0 -28.40124,57.54987 -171.15483,0 z m 52.31808,-105.38354 28.40123,-57.54987 171.15483,0 c -1.21737,2.39969 -2.473,4.13556 -3.737,6.72661 l -24.66424,50.82326 -171.15482,0 z M 308.06164,-5.5341 318.52526,-26.4613 c 6.3303,-12.8585 13.22552,-24.7928 20.17983,-35.8752 l 550.08712,0 c -12.97704,31.8655 -44.11292,43.3492 -70.2557,43.3492 l -250.37933,0 c -37.83499,0 -59.92864,1.7297 -76.98229,13.4532 l -183.11325,0 z m 67.26609,-104.6361 c 30.47507,-30.3988 67.18741,-49.2858 113.60495,-57.5499 l 358.00507,0 c 22.68703,7.815 42.48754,25.7922 47.08627,57.5499 l -518.69629,0 z" />
      <glyph
         glyph-name="D"
         id="glyph6712"
         unicode="D"
         d="m 224.24414,1024.3845 c -32.60458,0 -61.62745,-10.4363 -77.01666,-34.39579 l 469.57728,0 c -35.63451,22.80339 -78.45421,34.39579 -135.33995,34.39579 l -257.22067,0 z m -88.23268,-82.25079 c 1.42608,-28.21938 13.29818,-46.54335 31.40484,-57.57557 l 539.1166,0 c -11.61608,21.68133 -23.4712,41.06669 -36.63899,57.57557 l -533.88245,0 z m 149.54691,-105.43057 0,-57.57556 154.03331,0 0,57.57556 -154.03331,0 z m 272.17536,0 c 5.46601,-8.29978 10.84802,-18.40248 17.1979,-31.40486 l 12.71149,-26.1707 171.97894,0 -28.41391,57.57556 -173.47442,0 z m -272.17536,-105.43058 0,-57.57555 154.03331,0 0,57.57555 -154.03331,0 z m 326.01225,0 28.41391,-57.57555 171.97895,0 -28.41392,57.57555 -171.97894,0 z M 285.55837,625.842 l 0,-57.57556 154.03331,0 0,57.57556 -154.03331,0 z m 377.60593,0 28.41391,-57.57556 171.97895,0 c -4.43137,10.17782 -8.81442,20.34991 -14.20696,31.40485 l -13.45922,26.17071 -172.72668,0 z m -377.60593,-105.43057 0,-56.82782 154.03331,0 0,56.82782 -154.03331,0 z m 429.19962,0 c 9.11686,-19.06225 17.13305,-37.06122 21.6843,-56.82782 l 157.02425,0 c -2.15587,20.16778 -6.52982,38.60234 -11.96375,56.82782 l -166.7448,0 z M 285.55837,415.7286 l 0,-57.57557 154.03331,0 0,57.57557 -154.03331,0 z m 455.37033,0 c -0.45463,-21.46673 -4.51536,-39.65712 -11.21603,-57.57557 l 160.0152,0 c 3.67024,18.55558 5.67489,37.50881 5.98187,57.57557 l -154.78104,0 z m -455.37033,-105.43057 0,-57.57556 154.03331,0 0,57.57556 -154.03331,0 z m 422.47001,0 -28.41391,-57.57556 171.2312,0 c 9.76386,19.57827 18.6759,38.24471 25.42298,57.57556 l -168.24027,0 z m -422.47001,-105.43058 0,-57.57555 154.03331,0 0,57.57555 -154.03331,0 z m 370.12858,0 -28.41391,-57.57555 171.23121,0 28.41391,57.57555 -171.23121,0 z M 285.55837,99.43689 l 0,-57.57556 154.03331,0 0,57.57556 -154.03331,0 z m 317.78717,0 -26.91845,-54.58462 c -0.55032,-1.12986 -0.9547,-1.89961 -1.49546,-2.99094 l 170.48348,0 29.16164,57.57556 -171.23121,0 z M 285.55837,-5.9936 l 0,-13.4593 -73.27799,0 c -30.51858,0 -59.1933,-12.9317 -71.03478,-43.3686 l 550.33261,0 c 6.49034,10.4702 12.63301,22.1019 18.69337,34.3958 l 11.21602,22.4321 -180.95176,0 c -15.86752,-11.2949 -35.80105,-13.4593 -71.03478,-13.4593 l -29.90938,0 0,13.4593 -154.03331,0 z M 136.01146,-110.6765 c 4.12486,-31.7434 22.49377,-49.7427 45.61181,-57.5756 l 350.68749,0 c 49.81635,7.491 89.06942,24.7943 121.88073,57.5756 l -518.18003,0 z" />
      <glyph
         glyph-name="E"
         id="glyph3261"
         d="m 137.84907,1024.3845 0,-34.38044 749.64319,0 c -13.5508,24.06604 -39.12363,34.38044 -66.51869,34.38044 l -683.1245,0 z m 0,-82.2141 0,-57.54989 730.95816,0 c 15.94918,11.33108 26.32861,29.8205 27.65384,57.54989 l -758.612,0 z m 0,-105.38354 0,-57.54989 153.2172,0 0,57.54989 -153.2172,0 z m 0,-105.38355 0,-57.54987 153.2172,0 0,57.54987 -153.2172,0 z m 0,-105.38354 0,-57.54987 153.2172,0 0,57.54987 -153.2172,0 z m 0,-105.38354 0,-56.80247 449.18799,0 c -13.04687,27.29386 -40.58854,38.86486 -69.50829,38.86486 l -226.4625,0 0,17.93761 -153.2172,0 z m 0,-104.63613 0,-57.54988 421.53416,0 c 18.64652,9.98249 31.82852,28.76416 34.38044,57.54988 l -455.9146,0 z m 0,-105.38354 0,-57.54987 153.2172,0 0,57.54987 -153.2172,0 z m 0,-105.38354 0,-57.54987 153.2172,0 0,57.54987 -153.2172,0 z m 0,-105.38354 0,-57.54989 153.2172,0 0,57.54989 -153.2172,0 z m 0,-105.38358 0,-56.8025 754.1276,0 c -11.83405,30.4302 -40.49503,43.3493 -71.0031,43.3493 l -529.9073,0 0,13.4532 -153.2172,0 z m 0,-104.6362 0,-57.5498 713.02054,0 c 23.1436,7.8157 41.4639,25.7862 45.59146,57.5498 l -758.612,0 z"
         unicode="E" />
      <glyph
         glyph-name="F"
         id="glyph3273"
         unicode="F"
         d="m 134.97847,1024.3845 0,-34.40143 750.10096,0 c -13.55908,24.08073 -39.89537,34.40143 -67.30717,34.40143 l -682.79379,0 z m 0,-82.26431 0,-57.58502 731.40452,0 c 15.83879,11.35372 26.35091,29.96783 27.67073,57.58502 l -759.07525,0 z m 0,-105.4479 0,-57.58501 153.31076,0 0,57.58501 -153.31076,0 z m 0,-105.44788 0,-57.58503 153.31076,0 0,57.58503 -153.31076,0 z m 0,-105.4479 0,-57.58501 608.75592,0 c -3.41479,29.7668 -19.10208,48.32987 -39.63645,57.58501 l -569.11947,0 z m 0,-105.44789 0,-56.83715 153.31076,0 0,15.705 378.41585,0 c 30.02319,0 58.65068,11.77106 71.04645,41.13215 l -602.77306,0 z m 0,-104.70003 0,-57.58502 153.31076,0 0,57.58502 -153.31076,0 z m 0,-105.4479 0,-57.58501 153.31076,0 0,57.58501 -153.31076,0 z m 0,-105.44788 0,-57.58503 153.31076,0 0,57.58503 -153.31076,0 z m 0,-105.44793 0,-57.58492 153.31076,0 0,57.58492 -153.31076,0 z m 0,-105.44788 0,-56.8371 153.31076,0 0,56.8371 -153.31076,0 z m 0.74666,-104.6999 c 2.92897,-28.9035 15.06723,-48.9458 40.3843,-57.5851 l 71.04645,0 c 25.31228,8.6377 36.70461,28.6907 39.63644,57.5851 l -151.06719,0 z" />
      <glyph
         glyph-name="G"
         id="glyph3282"
         unicode="G"
         d="m 609.80489,1024.3845 c -60.59569,0 -104.22596,-9.4169 -142.75359,-34.38045 l 415.55496,0 c -13.55079,24.06605 -39.12363,34.38045 -66.51869,34.38045 l -206.28268,0 z M 413.98582,942.17039 c -6.31189,-7.08119 -13.00358,-14.22521 -19.43242,-22.42203 l -27.65384,-35.12784 497.76908,0 c 15.82911,11.34678 26.33481,29.94953 27.65383,57.54987 l -478.33665,0 z m -84.45631,-105.38354 -44.84405,-57.54988 195.81905,0 21.67464,27.65384 c 10.15532,12.92511 17.13569,21.7209 23.91682,29.89604 l -196.56646,0 z m -82.2141,-105.38354 -34.38046,-44.09666 c -3.54304,-4.56853 -6.44366,-9.04945 -9.7162,-13.45322 l 194.32426,0 45.59145,57.54988 -195.81905,0 z M 171.08049,626.01976 c -10.64776,-18.75543 -18.74744,-37.78197 -24.66423,-57.54987 l 171.15484,0 c 4.9668,8.65791 10.48251,16.97284 17.19022,25.41163 l 25.41164,32.13824 -189.09247,0 z M 136.70005,520.63622 c -2.15729,-17.35388 -3.68869,-35.81721 -3.73701,-56.80247 l 155.45941,0 c 1.48046,19.70203 3.88242,38.37089 8.96882,56.80247 l -160.69122,0 z m -3.73701,-104.63614 0,-57.54988 153.96461,0 0,35.12784 c 0,7.74478 -0.0479,14.88709 0,22.42204 l -153.96461,0 z m 457.40943,-44.09666 c -17.31484,0 -34.32042,-4.28905 -47.83367,-13.45322 l 350.53108,0 0,13.45322 -302.69741,0 z m -457.40943,-61.28689 0,-57.54987 153.96461,0 0,57.54987 -153.96461,0 z m 381.17453,0 c -0.72709,-4.9294 -1.49481,-10.09498 -1.49481,-15.69541 0,-17.31036 4.22347,-30.82037 10.46361,-41.85446 l 369.96351,0 0,57.54987 -378.93231,0 z m -381.17453,-105.38354 0,-57.54987 153.96461,0 0,57.54987 -153.96461,0 z m 606.14223,0 0,-57.54987 153.96461,0 0,57.54987 -153.96461,0 z M 132.96304,99.84945 l 0,-22.42199 c 0,-12.36804 0.77969,-23.74668 1.4948,-35.12794 l 155.45941,0 c -2.63587,13.73671 -2.9896,29.78923 -2.9896,49.32852 l 0,8.22141 -153.96461,0 z m 606.14223,0 0,-38.86488 c 0,-7.06635 -1.28433,-12.76915 -2.24101,-18.68505 l 154.71201,0 c 0.72228,8.63883 1.4948,17.08902 1.4948,26.15905 l 0,31.39088 -153.96461,0 z M 141.18446,-5.5341 c 4.65039,-19.9026 12.05336,-38.7953 23.16943,-56.8026 l 695.83034,0 c 9.97906,17.2165 17.69703,36.1046 23.16943,56.8026 l -177.13405,0 C 688.04905,-15.8472 663.8244,-18.9873 637.45872,-18.9873 l -244.40012,0 c -33.8251,0 -57.01055,3.7437 -73.2453,13.4532 l -178.62884,0 z m 63.52909,-104.6362 c 0.27264,-0.2473 0.47594,-0.5001 0.74619,-0.7474 36.35192,-33.2359 71.87153,-49.6285 112.85757,-56.8024 l 384.91152,0 c 47.34743,8.5976 88.33562,28.2948 119.58416,57.5498 l -618.10065,0 z" />
      <glyph
         glyph-name="H"
         id="glyph3288"
         d="m 212.19606,1024.3845 c -36.55138,0 -58.24011,-12.1192 -68.76089,-34.38045 l 136.77438,0 c -10.53321,22.21555 -31.50109,34.38045 -68.01349,34.38045 z m 606.14219,0 c -36.51239,0 -58.00501,-12.1649 -68.76089,-34.38045 l 137.52178,0 c -10.52078,22.26125 -32.20951,34.38045 -68.76089,34.38045 z m -683.12449,-82.21411 0,-57.54987 153.2172,0 0,57.54987 -153.2172,0 z m 605.39479,0 0,-57.54987 153.9646,0 0,57.54987 -153.9646,0 z m -605.39479,-105.38353 0,-57.54988 153.2172,0 0,57.54988 -153.2172,0 z m 605.39479,0 0,-57.54988 153.9646,0 0,57.54988 -153.9646,0 z m -605.39479,-105.38354 0,-57.54988 153.2172,0 0,57.54988 -153.2172,0 z m 605.39479,0 0,-57.54988 153.9646,0 0,57.54988 -153.9646,0 z m -605.39479,-105.38354 0,-57.54988 153.2172,0 0,57.54988 -153.2172,0 z m 605.39479,0 0,-57.54988 153.9646,0 0,57.54988 -153.9646,0 z m -605.39479,-105.38354 0,-56.80247 759.35939,0 0,56.80247 -153.9646,0 0,-17.93762 -452.17759,0 0,17.93762 -153.2172,0 z m 0,-104.63613 0,-57.54988 759.35939,0 0,57.54988 -759.35939,0 z m 0,-105.38354 0,-57.54988 153.2172,0 0,57.54988 -153.2172,0 z m 605.39479,0 0,-57.54988 153.9646,0 0,57.54988 -153.9646,0 z m -605.39479,-105.38354 0,-57.54987 153.2172,0 0,57.54987 -153.2172,0 z m 605.39479,0 0,-57.54987 153.9646,0 0,57.54987 -153.9646,0 z M 135.21376,99.84954 l 0,-57.54987 153.2172,0 0,57.54987 -153.2172,0 z m 605.39479,0 0,-57.54987 153.9646,0 0,57.54987 -153.9646,0 z M 135.21376,-5.5341 l 0,-56.8024 153.2172,0 0,56.8024 -153.2172,0 z m 605.39479,0 0,-56.8024 153.9646,0 0,56.8024 -153.9646,0 z M 136.70856,-110.1702 c 2.93029,-28.8766 14.31543,-48.9174 39.61225,-57.5499 l 71.00309,0 c 25.30162,8.6342 37.43247,28.6642 40.35966,57.5499 l -150.975,0 z m 605.39479,0 c 3.02022,-28.8766 15.62798,-48.9174 41.10705,-57.5499 l 70.2557,0 c 25.30161,8.6342 37.43246,28.6642 40.35965,57.5499 l -151.7224,0 z"
         unicode="H" />
      <glyph
         glyph-name="I"
         id="glyph3294"
         unicode="I"
         d="m 211.67663,1024.3845 c -27.39506,0 -52.9679,-10.3144 -66.51869,-34.38045 l 739.92697,0 c -13.5508,24.06605 -39.12363,34.38045 -66.51869,34.38045 l -606.88959,0 z m -75.4875,-82.21411 c 1.32021,-27.60034 11.82472,-46.20307 27.65383,-57.54988 l 702.55692,0 c 15.94917,11.33108 26.32861,29.82051 27.65384,57.54988 l -757.86459,0 z m 301.95,-105.38354 0,-57.54988 153.96459,0 0,57.54988 -153.96459,0 z m 0,-105.38354 0,-57.54986 153.96459,0 0,57.54986 -153.96459,0 z m 0,-105.38353 0,-57.54987 153.96459,0 0,57.54987 -153.96459,0 z m 0,-105.38354 0,-56.80247 153.96459,0 0,56.80247 -153.96459,0 z m 0,-104.63613 0,-57.54988 153.96459,0 0,57.54988 -153.96459,0 z m 0,-105.38354 0,-57.54988 153.96459,0 0,57.54988 -153.96459,0 z m 0,-105.38354 0,-57.54988 153.96459,0 0,57.54988 -153.96459,0 z m 0,-105.38353 0,-57.54986 153.96459,0 0,57.54986 -153.96459,0 z m 0,-105.3835 0,-13.4533 -226.4625,0 c -30.50807,0 -59.16904,-12.919 -71.0031,-43.3493 l 748.89578,0 c -11.83404,30.4303 -40.49502,43.3493 -71.00309,43.3493 l -226.4625,0 0,13.4533 -153.96459,0 z m -301.95,-104.6362 c 4.12302,-31.7293 22.48373,-49.7204 45.59145,-57.5499 l 666.68168,0 c 23.1436,7.8158 41.46389,25.7863 45.59146,57.5499 l -757.86459,0 z" />
      <glyph
         glyph-name="J"
         id="glyph3300"
         unicode="J"
         d="m 817.60684,1024.3845 c -36.54997,0 -58.23788,-12.1187 -68.75825,-34.37911 l 137.51649,0 c -10.75546,22.21471 -32.24702,34.37911 -68.75824,34.37911 z m -76.97934,-82.21095 0,-57.54764 153.95867,0 0,57.54764 -153.95867,0 z m 0,-105.37947 0,-57.54766 153.95867,0 0,57.54766 -153.95867,0 z m 0,-105.37947 0,-57.54766 153.95867,0 0,57.54766 -153.95867,0 z m 0,-105.37948 0,-57.54765 153.95867,0 0,57.54765 -153.95867,0 z m 0,-105.37947 0,-56.80029 153.95867,0 0,56.80029 -153.95867,0 z m 0,-104.63212 0,-57.54764 153.95867,0 0,57.54764 -153.95867,0 z M 365.44667,371.92858 c -22.64526,0 -39.45695,-4.52625 -51.56868,-13.45268 l 103.13735,0 c -12.26024,8.92643 -28.92341,13.45268 -51.56867,13.45268 z m -75.48459,-61.28451 c -0.57398,-5.06268 -1.49475,-10.07139 -1.49475,-15.69481 l 0,-41.85285 153.95867,0 0,41.85285 c 0,5.6204 -0.16741,10.63454 -0.74618,15.69481 l -151.71655,0 z m 450.66542,0 0,-57.54766 153.95867,0 0,57.54766 -153.95867,0 z M 288.46733,205.2646 l 0,-57.54766 153.95867,0 0,57.54766 -153.95867,0 z m 452.16017,0 0,-57.54766 153.95867,0 0,57.54766 -153.95867,0 z M 288.46733,99.88506 l 0,-28.40004 c 0,-10.44638 0.88251,-19.63172 1.49475,-29.14748 l 156.94816,0 C 444.18501,56.7366 442.426,74.3851 442.426,95.40096 l 0,4.4841 -153.95867,0 z m 452.16017,0 0,-35.87377 c 0,-8.11688 -0.55246,-15.03786 -1.49474,-21.67375 l 154.70604,0 c 0.73422,14.34614 0.74618,29.27535 0.74618,46.33699 l 0,11.21053 -153.95867,0 z M 297.4358,-5.4943 c 4.97905,-19.2578 12.23274,-37.8861 23.91591,-56.8004 l 542.5922,0 c 0.5955,0.9727 0.90402,2.001 1.49475,2.9895 10.81739,19.3576 18.11678,36.745 22.42117,53.8109 l -174.88511,0 c -18.02948,-11.6165 -43.92061,-13.4528 -76.23196,-13.4528 l -85.20042,0 c -35.05427,0 -58.95152,3.7461 -75.48459,13.4528 l -178.62195,0 z m 61.28452,-104.6321 c 35.02844,-34.2304 76.80427,-50.546 122.56904,-57.5477 l 222.7169,0 c 46.70514,7.4431 87.6621,24.5604 121.82167,57.5477 l -467.10761,0 z" />
      <glyph
         glyph-name="K"
         id="glyph3306"
         unicode="K"
         d="m 211.69402,1024.3845 c -36.55137,0 -58.24012,-12.1192 -68.76089,-34.38044 l 137.52178,0 c -10.52077,22.26124 -32.20952,34.38044 -68.76089,34.38044 z m 609.13178,-1.4948 c -24.61925,0 -44.31715,-15.2564 -62.78167,-30.64344 l -2.98961,-2.2422 125.56337,0 c -12.6874,19.65424 -33.33816,32.88564 -59.79209,32.88564 z m -686.11408,-80.71931 0,-57.54987 153.21721,0 0,57.54987 -153.21721,0 z m 564.28774,0 -68.0135,-57.54987 234.6839,0 c 15.5945,15.8175 29.14864,34.66164 29.14864,57.54987 l -195.81904,0 z m -564.28774,-105.38354 0,-57.54987 153.21721,0 0,57.54987 -153.21721,0 z m 440.21916,0 -68.01347,-57.54987 236.17869,0 68.0135,57.54987 -236.17872,0 z m -440.21916,-105.38352 0,-57.54988 153.21721,0 0,57.54988 -153.21721,0 z m 315.40321,0 -68.0135,-57.54988 237.67351,0 67.2661,57.54988 -236.92611,0 z m -315.40321,-105.38355 0,-57.54987 361.74206,0 67.2661,57.54987 -237.67351,0 -38.11744,-32.13824 0,32.13824 -153.21721,0 z m 0,-105.38354 0,-56.80248 239.1683,0 66.5187,56.80248 -305.687,0 z m 0,-104.63613 0,-57.54987 272.80136,0 -67.2661,57.54987 -205.53526,0 z m 0,-105.38354 0,-57.54987 153.21721,0 0,6.72661 7.47399,-6.72661 234.68392,0 -67.2661,57.54987 -328.10902,0 z m 0,-105.38362 0,-57.54974 153.21721,0 0,57.54974 -153.21721,0 z m 216.74628,0 67.26608,-57.54974 233.93651,0 -66.51869,57.54974 -234.6839,0 z M 134.71172,99.8495 l 0,-57.54993 153.21721,0 0,57.54993 -153.21721,0 z m 339.32004,0 67.26608,-57.54993 234.6839,0 -67.26608,57.54993 -234.6839,0 z M 134.71172,-5.5341 l 0,-56.8024 153.21721,0 0,56.8024 -153.21721,0 z m 461.89381,0 66.51868,-56.8024 224.2203,0 c -7.18701,13.9068 -19.31549,25.6575 -31.39085,35.8753 l -24.66423,20.9271 -234.6839,0 z m -460.399,-104.6361 c 2.93029,-28.8766 15.06282,-48.9175 40.35964,-57.5499 l 70.2557,0 c 25.30161,8.6342 37.43246,28.6643 40.35964,57.5499 l -150.97498,0 z m 582.22534,0 19.43243,-16.4427 c 18.46452,-13.8484 37.56306,-32.5449 59.79209,-41.1072 l 49.32846,0 c 24.45879,9.1729 41.32205,30.9527 46.33886,57.5499 l -174.89184,0 z" />
      <glyph
         glyph-name="L"
         id="glyph3312"
         unicode="L"
         d="m 212.42407,1024.3845 c -36.55137,0 -58.24011,-12.1192 -68.76088,-34.38044 l 136.77435,0 c -10.53344,22.21554 -31.50109,34.38044 -68.01347,34.38044 z m -76.98231,-82.21411 0,-57.54985 153.21721,0 0,57.54985 -153.21721,0 z m 0,-105.38352 0,-57.54988 153.21721,0 0,57.54988 -153.21721,0 z m 0,-105.38354 0,-57.54988 153.21721,0 0,57.54988 -153.21721,0 z m 0,-105.38352 0,-57.54988 153.21721,0 0,57.54988 -153.21721,0 z m 0,-105.38354 0,-56.80247 153.21721,0 0,56.80247 -153.21721,0 z m 0,-104.63613 0,-57.54988 153.21721,0 0,57.54988 -153.21721,0 z m 0,-105.38354 0,-57.55001 153.21721,0 0,57.55001 -153.21721,0 z m 0,-105.38359 0,-57.54994 153.21721,0 0,57.54994 -153.21721,0 z m 0,-105.38352 0,-57.54994 153.21721,0 0,57.54994 -153.21721,0 z m 0,-105.38349 0,-56.8026 754.12756,0 c -11.83405,30.4302 -40.49502,43.3494 -71.0031,43.3494 l -529.90725,0 0,13.4532 -153.21721,0 z m 0,-104.6362 0,-57.5499 713.7679,0 c 23.10773,7.8293 40.72104,25.8206 44.84406,57.5499 l -758.61196,0 z" />
      <glyph
         glyph-name="M"
         id="glyph3318"
         unicode="M"
         d="m 134.68498,1024.3845 0,-34.39405 216.08433,0 -23.92629,34.39405 -192.15804,0 z m 567.50174,0 -23.92629,-34.39405 216.0843,0 0,34.39405 -192.15801,0 z m -567.50174,-82.24664 0,-57.57263 289.35858,0 -40.3756,57.57263 -248.98298,0 z m 510.6768,0 -40.37563,-57.57263 289.35858,0 0,57.57263 -248.98295,0 z m -510.6768,-105.42521 0,-57.57263 153.27782,0 0,32.89865 2.99079,0 22.43088,-32.89865 183.18568,0 -39.62794,57.57263 -322.25723,0 z m 437.40252,0 -39.62791,-57.57263 182.43796,0 22.43091,32.89865 2.99079,0 0,-32.89865 154.02548,0 0,57.57263 -322.25723,0 z m -437.40252,-105.42521 0,-57.57265 153.27782,0 0,57.57265 -153.27782,0 z m 210.85045,0 38.88022,-57.57265 260.19841,0 38.13253,57.57265 -337.21116,0 z m 394.78382,0 0,-57.57265 154.02548,0 0,57.57265 -154.02548,0 z m -605.63427,-105.42523 0,-57.57263 153.27782,0 0,57.57263 -153.27782,0 z m 281.88163,0 20.93551,-30.65556 0,-24.67398 c 0,-0.74435 -0.0103,-1.50041 0,-2.24309 l 154.0255,0 c 0.0103,0.74268 0,1.49874 0,2.24309 l 0,24.67398 20.93551,30.65556 -195.89652,0 z m 323.75264,0 0,-57.57263 154.02548,0 0,57.57263 -154.02548,0 z m -605.63427,-105.42522 0,-56.82494 153.27782,0 0,56.82494 -153.27782,0 z m 312.53718,0 c 11.09606,-24.75468 32.65796,-42.61872 67.29271,-42.61872 36.55866,0 57.35563,17.86404 68.04039,42.61872 l -135.3331,0 z m 293.09709,0 0,-56.82494 154.02548,0 0,56.82494 -154.02548,0 z m -605.63427,-104.67752 0,-57.57265 153.27782,0 0,57.57265 -153.27782,0 z m 605.63427,0 0,-57.57265 154.02548,0 0,57.57265 -154.02548,0 z m -605.63427,-105.42536 0,-57.57248 153.27782,0 0,57.57248 -153.27782,0 z m 605.63427,0 0,-57.57248 154.02548,0 0,57.57248 -154.02548,0 z m -605.63427,-105.42506 0,-57.57273 153.27782,0 0,57.57273 -153.27782,0 z m 605.63427,0 0,-57.57273 154.02548,0 0,57.57273 -154.02548,0 z M 134.68498,99.48374 l 0,-57.57248 153.27782,0 0,57.57248 -153.27782,0 z m 605.63427,0 0,-57.57248 154.02548,0 0,57.57248 -154.02548,0 z M 134.68498,-5.9413 l 0,-56.8251 153.27782,0 0,56.8251 -153.27782,0 z m 605.63427,0 0,-56.8251 154.02548,0 0,56.8251 -154.02548,0 z M 135.43267,-110.619 c 2.92836,-28.8971 15.064,-48.935 40.37563,-57.5727 l 71.03118,0 c 25.31163,8.6377 37.44728,28.6756 40.3756,57.5727 l -151.78241,0 z m 606.38196,0 c 3.02141,-28.8881 14.88646,-48.9368 40.37563,-57.5727 l 71.03115,0 c 25.31163,8.6377 37.4473,28.6756 40.37563,57.5727 l -151.78241,0 z" />
      <glyph
         glyph-name="N"
         id="glyph3324"
         unicode="N"
         d="m 662.06853,-108.6012 25.44355,-59.1189 206.54164,0 0,59.1189 -231.98519,0 z m -529.07589,0 c 2.28792,-29.8546 13.95997,-49.9931 38.91364,-59.1189 l 73.33727,0 c 25.14396,9.1258 37.30066,29.2643 39.66196,59.1189 l -151.91287,0 z m 483.42721,104.7676 25.44352,-58.3707 252.19035,0 0,58.3707 -277.63387,0 z m -484.17554,0 0,-58.3707 153.40955,0 0,58.3707 -153.40955,0 z m 438.52683,104.76729 25.44355,-58.37041 297.83903,0 0,58.37041 -155.65456,0 0,-11.97326 -1.49668,0 -5.23839,11.97326 -160.89295,0 z m -438.52683,0 0,-58.37041 153.40955,0 0,58.37041 -153.40955,0 z m 606.15485,105.51581 0,-59.11865 155.65456,0 0,59.11865 -155.65456,0 z m -214.02506,0 26.19188,-59.11865 160.89295,0 -24.6952,59.11865 -162.38963,0 z m -392.12979,0 0,-59.11865 153.40955,0 0,59.11865 -153.40955,0 z m 606.90318,105.51611 -0.74833,-59.11895 155.65456,0 0,59.11895 -154.90623,0 z m -260.42208,0 25.44353,-59.11895 162.38963,0 -25.44352,59.11895 -162.38964,0 z m -346.4811,0 0,-59.11895 153.40955,0 0,59.11895 -153.40955,0 z m 606.90318,105.51571 0,-59.11885 154.90623,0 0,59.11885 -154.90623,0 z m -306.07079,0 25.44355,-59.11885 162.38964,0 -25.44356,59.11885 -162.38963,0 z m -300.83239,0 0,-59.11885 153.40955,0 0,59.11885 -153.40955,0 z m 606.90318,105.51584 0,-59.1188 154.90623,0 0,59.1188 -154.90623,0 z m -352.46783,0 26.19188,-59.1188 163.13799,0 -25.44355,59.1188 -163.88632,0 z m -254.43535,0 0,-59.1188 153.40955,0 0,59.1188 -153.40955,0 z m 606.90318,104.76751 0,-58.37047 154.90623,0 0,58.37047 -154.90623,0 z m -398.11651,0 25.44352,-58.37047 163.88632,0 -24.6952,58.37047 -164.63464,0 z m -208.78667,0 0,-58.37047 153.40955,0 0,58.37047 -153.40955,0 z m 607.6515,106.26417 -0.74832,-59.86713 154.90623,0 0,59.86713 -154.15791,0 z m -445.2619,0 26.19191,-59.86713 164.63464,0 -25.44353,59.86713 -165.38302,0 z m -162.3896,0 0,-59.86713 153.40955,0 0,59.86713 -153.40955,0 z m 607.6515,104.76751 0,-58.37048 154.15791,0 0,58.37048 -154.15791,0 z m -607.6515,0 0,-58.37048 307.56746,0 -24.69519,58.37048 -282.87227,0 z m 607.6515,106.26419 0,-59.86715 154.15791,0 0,59.86715 -154.15791,0 z m -607.6515,0 0,-59.86715 262.66711,0 -25.44356,59.86715 -237.22355,0 z m 684.73046,77.82726 c -34.99889,0 -56.23406,-10.8795 -67.35053,-31.43022 l 134.70108,0 c -11.11647,20.55072 -32.35167,31.43022 -67.35055,31.43022 z m -684.73046,1.4967 0,-32.92692 217.01839,0 -14.21844,32.92692 -202.79995,0 z" />
      <glyph
         glyph-name="O"
         id="glyph4254"
         unicode="O"
         d="m 366.6266,-108.6012 c 25.60199,-28.2418 57.53162,-49.4575 95.78744,-59.1189 l 98.78079,0 c 38.33867,9.6291 70.03258,30.9415 95.78742,59.1189 l -290.35565,0 z M 303.01776,-3.8337 324.7196,-46.489 c 2.71428,-5.4287 6.00763,-10.5227 8.98008,-15.7151 l 356.95785,0 c 2.97994,5.1924 6.26569,10.2864 8.98007,15.7151 l 21.70183,42.6553 -175.1114,0 c -8.02218,-9.5543 -18.31935,-16.4635 -34.4236,-16.4635 -16.1239,0 -26.59322,6.8907 -34.42362,16.4635 l -174.36305,0 z m 299.33572,104.76759 -29.93356,-58.37065 172.11804,0 29.18524,58.37065 -171.36972,0 z m -351.71947,0 29.18524,-58.37065 172.11804,0 -29.93358,58.37065 -171.3697,0 z m 404.85158,105.5158 -29.93358,-59.11891 171.3697,0 29.93358,59.11891 -171.3697,0 z m -457.98367,0 29.93356,-59.11891 171.36972,0 -29.93358,59.11891 -171.3697,0 z m 511.11576,105.51579 -29.93358,-59.11883 170.62135,0 c 9.66352,20.34095 18.74801,39.90674 25.44355,59.11883 l -166.13132,0 z m -559.00947,0 c 6.69561,-19.21209 15.78015,-38.77788 25.44352,-59.11883 l 170.62138,0 -29.93358,59.11883 -166.13132,0 z m 588.94303,105.51584 c -0.2816,-22.32613 -3.82024,-41.00015 -9.72841,-59.11881 l 157.8996,0 c 3.42728,18.17949 5.81742,37.4342 5.98672,59.11881 l -154.15791,0 z m -606.90318,0 c 0.17006,-21.68461 2.55931,-40.93932 5.98672,-59.11881 l 157.89958,0 c -6.11283,18.11866 -10.17287,36.79268 -10.47673,59.11881 l -153.40957,0 z m 582.208,105.51584 c 9.6817,-20.21689 16.96682,-38.6658 20.95348,-59.11881 l 155.65459,0 c -1.98113,20.70541 -5.71158,40.00419 -11.22509,59.11881 l -165.38298,0 z m -568.73789,0 c -5.51364,-19.11462 -9.24385,-38.4134 -11.22509,-59.11881 l 154.90623,0 c 3.98672,20.45301 11.27182,38.90192 20.9535,59.11881 l -164.63464,0 z m 516.35412,104.76749 29.18524,-58.37046 171.3697,0 c -3.23451,7.45371 -5.88422,14.5597 -9.72842,22.45019 l -17.96013,35.92027 -172.86639,0 z m -471.45377,0 -17.96015,-35.92027 c -3.84413,-7.89049 -6.49391,-14.99648 -9.72839,-22.45019 l 170.62136,0 29.18522,58.37046 -172.11804,0 z m 419.07002,106.2642 29.18524,-59.86714 172.86638,0 -30.68192,59.86714 -171.3697,0 z m -365.18959,0 -30.6819,-59.86714 172.11804,0 29.93356,59.86714 -171.3697,0 z m 312.80584,104.7675 c 2.43132,-4.71298 4.91581,-9.83137 7.48339,-14.96679 l 21.70185,-43.40368 171.3697,0 -29.18524,58.37047 -171.3697,0 z m -260.42209,0 -29.18522,-58.37047 171.3697,0 21.70185,43.40368 c 2.56781,5.13542 5.10354,10.25381 7.48339,14.96679 l -171.36972,0 z m 59.86715,106.26418 c -11.42008,-14.48377 -21.27603,-30.191 -29.93357,-47.14538 l -6.73505,-12.72177 385.39475,0 -6.73506,12.72177 c -8.66613,16.97115 -19.18479,32.65011 -30.68192,47.14538 l -311.30915,0 z m 155.65458,79.32397 c -40.88542,0 -76.28224,-12.4466 -106.26417,-32.92692 l 212.52835,0 c -30.15867,20.48032 -65.37875,32.92692 -106.26418,32.92692 z" />
      <glyph
         glyph-name="P"
         id="glyph4261"
         unicode="P"
         d="m 133.98143,-109.357 c 2.36272,-29.8745 14.5277,-50.0263 39.68844,-59.1583 l 73.38617,0 c 24.97023,9.132 36.6502,29.2838 38.9396,59.1583 l -152.01421,0 z m -0.74765,104.8374 0,-58.4095 153.51189,0 0,58.4095 -153.51189,0 z m 0,104.83727 0,-58.40933 153.51189,0 0,58.40933 -153.51189,0 z m 0,105.58632 0,-59.15824 153.51189,0 0,59.15824 -153.51189,0 z m 0,105.58623 0,-59.15825 153.51189,0 0,26.20936 338.47503,0 c 62.43731,0 113.38996,2.77011 160.25143,32.94889 l -652.23835,0 z m 0,105.58623 0,-59.15824 702.41054,0 c 17.20147,20.04371 29.65927,39.43995 38.19076,59.15824 l -740.6013,0 z m 605.81036,105.58624 c -1.27241,-26.07014 -5.43021,-45.55191 -14.22793,-59.15824 l 163.2468,0 c 3.50481,18.69507 5.40961,38.01055 5.99071,59.15824 l -155.00958,0 z m -605.81036,0 0,-59.15824 153.51189,0 0,59.15824 -153.51189,0 z m 606.5592,104.83738 0,-58.4094 154.26074,0 0,58.4094 -154.26074,0 z m -606.5592,0 0,-58.4094 153.51189,0 0,58.4094 -153.51189,0 z m 606.5592,106.33508 0,-59.90708 154.26074,0 0,59.90708 -154.26074,0 z m -606.5592,0 0,-59.90708 153.51189,0 0,59.90708 -153.51189,0 z m 592.33127,104.8374 c 8.44354,-13.54835 12.2311,-32.84754 13.47909,-58.40942 l 155.00958,0 c -0.37383,20.96078 -1.61031,40.23552 -4.49303,58.40942 l -163.99564,0 z m -592.33127,0 0,-58.40942 153.51189,0 0,58.40942 -153.51189,0 z m 0,106.33506 0,-59.90708 742.84782,0 c -8.40448,20.45084 -20.54693,40.03376 -38.9396,59.90708 l -703.90822,0 z m 0,79.37689 0,-32.94889 649.99185,0 c -41.81564,26.43939 -84.37986,32.94889 -138.53513,32.94889 l -511.45672,0 z" />
      <glyph
         glyph-name="Q"
         id="glyph4268"
         unicode="Q"
         d="m 589.47961,-108.6013 23.94685,-59.1188 231.23685,0 c 26.21392,7.6968 44.35222,25.0626 47.89371,59.1188 l -303.07741,0 z m -411.58663,0 c 2.06182,-2.4685 3.73093,-4.9857 5.98672,-7.4833 24.27756,-26.3889 54.22191,-43.3716 87.5557,-51.6355 l 103.27081,0 c 30.63738,7.7114 55.73129,23.0748 83.81402,47.1454 l 14.21844,11.9734 -294.84569,0 z M 135.23763,-3.8338 c 1.81757,-20.8095 5.16296,-40.2337 12.72178,-58.3704 l 379.40803,0 32.92692,27.6885 11.2251,-27.6885 314.30252,0 c -12.89227,27.0434 -40.42947,41.907 -74.08559,41.907 l -91.29741,0 -6.73504,16.4634 -354.71285,0 c -11.16738,-8.589 -24.75386,-16.4634 -38.1653,-16.4634 -16.83154,0 -24.96292,6.8969 -29.18523,16.4634 l -156.40293,0 z m 344.2361,104.76757 -66.60222,-58.37054 281.3756,0 -11.97343,29.18534 32.92693,29.1852 -235.72688,0 z m -345.73278,0 0,-58.37054 153.40957,0 0,58.37054 -153.40957,0 z m 331.51433,105.51585 23.19852,-59.11881 279.13056,0 4.49003,3.74169 c 21.79213,18.83733 40.06526,36.93707 55.37711,55.37712 l -362.19622,0 z m -331.51433,0 0,-59.11881 153.40957,0 0,59.11881 -153.40957,0 z M 718.19397,311.96547 C 706.20785,293.54914 687.75703,275.96831 659.8235,252.84665 l 199.05826,0 c 10.10127,18.49058 17.69889,38.20626 23.19852,59.11882 l -163.88631,0 z m -276.88555,0 c -1.84151,-6.22979 -2.99336,-12.63389 -2.99336,-19.45684 0,-12.55197 4.1409,-26.06279 8.98007,-39.66198 l 163.13798,0 -5.98672,14.96679 c -6.37633,14.71439 -11.82353,30.05259 -17.96013,44.15203 l -145.17784,0 z m -307.56747,0 0,-59.11882 153.40957,0 0,59.11882 -153.40957,0 z m 381.65306,54.62877 c -11.75981,0 -23.29837,-3.22301 -33.67527,-8.23174 l 68.84723,0 c -9.33402,5.14043 -20.90179,8.23174 -35.17196,8.23174 z m 224.5018,50.88707 c -0.16763,-23.8731 -1.63796,-42.96978 -4.49003,-59.11881 l 155.65457,0 c 2.09055,18.09089 2.99337,36.70359 2.99337,57.62213 l 0,1.49668 -154.15791,0 z m -606.15486,0 0,-59.11881 153.40957,0 0,59.11881 -153.40957,0 z m 606.15486,105.51584 0,-59.11881 154.15791,0 0,59.11881 -154.15791,0 z m -596.42644,0 c -4.37245,-18.4204 -7.77723,-38.01013 -8.98007,-59.11881 l 154.15789,0 c 2.41217,23.51246 8.42762,42.18719 18.70848,59.11881 l -163.8863,0 z m 596.42644,104.7675 0,-58.37046 154.15791,0 0,58.37046 -154.15791,0 z m -547.03605,0 c -14.15139,-18.5284 -25.41599,-37.65811 -34.42361,-58.37046 l 190.07819,0 c 2.51658,2.23137 4.77788,4.42728 7.48339,6.73506 l 59.86716,51.6354 -223.00513,0 z m 547.03605,106.26419 0,-59.86714 154.15791,0 0,59.86714 -154.15791,0 z m -435.53349,0 -47.89371,-40.41032 c -7.48651,-6.37753 -14.17103,-13.04553 -20.9535,-19.45682 l 234.23021,0 69.59555,59.86714 -234.97855,0 z m 434.78515,104.76751 c 1.22368,-10.19611 0.74715,-21.4382 0.74715,-30.68193 l 0,-27.68854 154.1579,0 0,43.40368 c 0,5.0923 -0.4502,9.98943 -0.74715,14.96679 l -154.1579,0 z m -312.0575,0 -68.84721,-58.37047 234.2302,0 68.09888,58.37047 -233.48187,0 z m 124.97267,106.26418 -70.3439,-59.86714 404.85157,0 c -5.92133,21.96381 -15.64807,42.12755 -27.68855,59.86714 l -306.81912,0 z m 149.66786,79.32397 c -37.92966,0 -66.46091,-13.2627 -93.5424,-32.92693 l 205.04497,0 c -30.23698,20.86653 -67.99639,32.92693 -111.50257,32.92693 z" />
      <glyph
         glyph-name="R"
         id="glyph4275"
         unicode="R"
         d="m 733.04439,-108.6013 15.71513,-22.4502 c 11.07254,-16.1052 23.19181,-29.4049 38.91364,-36.6686 l 60.61549,0 c 25.3317,9.6659 43.10913,30.776 45.6487,59.1188 l -160.89296,0 z m -597.92314,0 c 2.28692,-29.8545 13.96007,-49.9929 38.91365,-59.1188 l 73.33726,0 c 25.14396,9.1259 37.30058,29.2643 39.66198,59.1188 l -151.91289,0 z m 524.58589,104.7676 40.41031,-58.3705 183.34314,0 c -7.63976,15.1696 -17.73983,29.3609 -26.94021,41.9069 l -11.22509,16.4636 -185.58815,0 z m -525.33423,0 0,-58.3705 153.40957,0 0,58.3705 -153.40957,0 z m 451.99697,104.76746 40.41032,-58.3705 185.58816,0 -40.41033,58.3705 -185.58815,0 z m -451.99697,0 0,-58.3705 153.40957,0 0,58.3705 -153.40957,0 z m 377.91137,105.51584 41.15866,-59.11881 185.58817,0 -41.15867,59.11881 -185.58816,0 z m -377.91137,0 0,-59.11881 153.40957,0 0,59.11881 -153.40957,0 z m 303.82578,105.51584 41.15865,-59.1188 186.33651,0 -41.90701,59.1188 -185.58815,0 z m -303.82578,0 0,-59.1188 153.40957,0 0,59.1188 -153.40957,0 z m 229.74018,105.51586 41.15867,-59.11881 186.33649,0 -41.15867,59.11881 -186.33649,0 z m -229.74018,0 0,-59.11881 153.40957,0 0,59.11881 -153.40957,0 z m 0,105.51584 0,-59.11881 153.40957,0 0,11.97343 35.17195,0 8.23173,-11.97343 186.3365,0 -8.23173,11.97343 142.18447,0 c 56.61564,0 112.48438,16.12366 156.40292,47.14538 l -673.50541,0 z m 0,104.76751 0,-58.37047 721.39913,0 c 12.5096,17.12655 22.48466,36.61954 29.18523,58.37047 l -750.58436,0 z m 606.15487,106.26418 0,-38.91364 c 0,-7.9767 -0.92675,-14.80658 -2.99335,-20.9535 l 155.65458,0 c 0.58669,6.89382 1.49668,13.7067 1.49668,20.9535 l 0,38.91364 -154.15791,0 z m -606.15487,0 0,-59.86714 153.40957,0 0,59.86714 -153.40957,0 z m 594.18145,104.76752 c 7.38688,-9.65059 11.97342,-21.81081 11.97342,-38.16532 l 0,-20.20516 154.15791,0 0,20.20516 c 0,13.28046 -1.57332,25.86477 -3.7417,38.16532 l -162.38963,0 z m -594.18145,0 0,-58.37048 153.40957,0 0,58.37048 -153.40957,0 z m 0,106.26418 0,-59.86715 743.10097,0 c -9.67454,22.41498 -23.47367,42.38857 -39.66198,59.86715 l -703.43899,0 z m 0,79.32397 0,-32.92693 644.32018,0 c -38.5293,21.41713 -82.69473,32.92693 -127.21769,32.92693 l -517.10249,0 z" />
      <glyph
         glyph-name="S"
         id="glyph4282"
         unicode="S"
         d="m 187.6214,-108.6013 c 5.69146,-5.9893 11.72319,-11.3814 17.96015,-16.4634 27.99436,-23.3286 57.716,-36.0985 89.80072,-42.6554 l 461.72534,0 c 40.95728,9.179 75.70657,29.3477 100.27748,59.1188 z M 135.23766,-3.8337 c 3.05393,-20.022 9.70134,-39.9489 19.45681,-58.3705 l 728.88249,0 c 6.09041,17.4202 10.10821,36.8794 10.47676,58.3705 l -154.90624,0 c -2.76012,-20.2315 -38.28767,-16.4635 -50.13874,-16.4635 l -334.50766,0 c -27.47951,0 -47.39659,2.6998 -58.37048,16.4635 z m 531.3209,104.76749 45.6487,-58.37052 175.85974,0 c -5.81957,20.91136 -15.21632,39.90006 -27.68856,58.37052 z m -490.91058,0 C 154.26056,89.26736 141.08595,67.83948 135.98599,42.56327 l 149.66787,0 c -2.85423,24.79936 -15.57911,46.54461 -35.92029,58.37052 z m 409.3416,105.51584 45.64869,-59.1188 194.56823,0 -46.39704,59.1188 z m -82.31733,105.51584 46.39704,-59.1188 193.81988,0 -46.39704,59.1188 z m -81.56897,105.51585 45.64868,-59.11881 193.81988,0 -46.39703,59.11881 z m -82.31733,105.51584 46.39704,-59.1188 193.07154,0 -46.39704,59.1188 z m -80.82064,104.76751 44.90035,-58.37048 192.3232,0 -44.90036,58.37048 z m -82.31733,106.26418 c 2.79627,-3.75464 5.18664,-7.31002 8.23172,-11.2251 l 37.41697,-48.64205 192.3232,0 -46.39704,59.86715 z m 560.50614,104.7675 c 2.69474,-7.79063 1.37171,-20.57438 3.74169,-30.55957 2.47639,-10.43354 10.42462,-24.55109 18.43194,-27.81089 l 122.6229,0 c 7.76571,9.64856 13.10307,29.38614 13.10307,46.39704 0,3.99073 -0.40231,7.95562 -0.74715,11.97342 l -157.15126,0 z m -602.41315,0 c 1.0848,-22.32757 5.04441,-41.16249 12.72177,-58.37046 l 184.09147,0 -20.20516,26.19188 c -4.70627,7.05952 -15.78865,20.22072 -20.9535,32.17858 z m 28.4369,106.26418 c -12.23253,-18.10407 -21.02606,-37.98186 -25.44354,-59.86714 l 745.34596,0 c -8.12685,21.31797 -19.58662,42.03655 -33.67527,59.86714 z m 180.34977,79.32397 c -49.30035,0 -84.82815,0.046 -127.96603,-27.68855 -2.59415,-1.67868 -5.00368,-3.47229 -7.48339,-5.23838 l 589.69138,0 c -38.18925,24.29003 -79.90947,32.92693 -127.96602,32.92693 z" />
      <glyph
         glyph-name="T"
         id="glyph4289"
         unicode="T"
         d="m 437.56555,-108.6012 c 2.36116,-29.8546 14.51802,-49.9929 39.66198,-59.1189 l 73.33726,0 c 25.14395,9.126 37.30058,29.2643 39.66198,59.1189 l -152.66122,0 z m -0.74714,104.7674 0,-58.3704 154.15789,0 0,58.3704 -154.15789,0 z m 0,104.76762 0,-58.37051 154.15789,0 0,58.37051 -154.15789,0 z m 0,105.51584 0,-59.11881 154.15789,0 0,59.11881 -154.15789,0 z m 0,105.51583 0,-59.1188 154.15789,0 0,59.1188 -154.15789,0 z m 0,105.51585 0,-59.1188 154.15789,0 0,59.1188 -154.15789,0 z m 0,105.51583 0,-59.1188 154.15789,0 0,59.1188 -154.15789,0 z m 0,104.7675 0,-58.37045 154.15789,0 0,58.37045 -154.15789,0 z m 0,106.26419 0,-59.86714 154.15789,0 0,59.86714 -154.15789,0 z m 303.07741,104.7675 0,-24.6952 c 0,-12.63508 1.37215,-24.046 4.49003,-33.67527 l 145.17783,0 c 2.97228,9.62927 4.49004,21.04019 4.49004,33.67527 l 0,24.6952 -154.1579,0 z m -303.07741,0 0,-58.37047 154.15789,0 0,58.37047 -154.15789,0 z m -303.07742,0 0,-24.6952 c 0,-12.63508 1.444,-24.046 4.49005,-33.67527 l 144.42948,0 c 2.97228,9.62927 4.49003,21.04019 4.49003,33.67527 l 0,24.6952 -153.40956,0 z m 0,106.26418 0,-59.86715 760.31273,0 0,59.86715 -760.31273,0 z m 0,79.32396 0,-32.92693 760.31273,0 0,32.92693 -760.31273,0 z" />
      <glyph
         glyph-name="U"
         id="glyph4296"
         unicode="U"
         d="m 204.89785,-108.6013 c 34.08333,-33.3942 71.64253,-50.9883 113.74758,-59.1188 l 392.87815,0 c 42.10505,8.1305 79.66425,25.7246 113.74758,59.1188 l -620.37331,0 z M 143.53403,-3.8338 c 4.88253,-20.0616 13.01295,-39.3346 24.6952,-58.3704 l 693.71055,0 c 11.76078,19.0358 19.68839,38.3088 24.6952,58.3704 l -172.11804,0 C 699.19717,-16.179 676.54249,-20.2973 645.66971,-20.2973 l -261.17042,0 c -30.873,0 -53.52746,4.1183 -68.84722,16.4635 l -172.11804,0 z m 597.92312,104.76757 0,-13.47011 c 0,-17.84733 -1.33145,-32.21483 -3.74169,-44.90043 l 155.65458,0 c 1.10633,14.26958 2.24382,29.3228 2.24382,44.90043 l 0,13.47011 -154.1579,0 z m -606.15486,0 0,-13.47011 c 0,-15.57173 0.44541,-30.63589 1.49668,-44.90043 l 155.65458,0 c -2.40977,12.6856 -3.7417,27.0531 -3.7417,44.90043 l 0,13.47011 -153.40956,0 z m 606.15486,105.51584 0,-59.1188 154.1579,0 0,59.1188 -154.1579,0 z m -606.15486,0 0,-59.1188 153.40956,0 0,59.1188 -153.40956,0 z m 606.15486,105.51585 0,-59.11881 154.1579,0 0,59.11881 -154.1579,0 z m -606.15486,0 0,-59.11881 153.40956,0 0,59.11881 -153.40956,0 z m 606.15486,105.51584 0,-59.1188 154.1579,0 0,59.1188 -154.1579,0 z m -606.15486,0 0,-59.1188 153.40956,0 0,59.1188 -153.40956,0 z m 606.15486,105.51585 0,-59.11881 154.1579,0 0,59.11881 -154.1579,0 z m -606.15486,0 0,-59.11881 153.40956,0 0,59.11881 -153.40956,0 z m 606.15486,104.76751 0,-58.37047 154.1579,0 0,58.37047 -154.1579,0 z m -606.15486,0 0,-58.37047 153.40956,0 0,58.37047 -153.40956,0 z m 606.15486,106.26417 0,-59.86713 154.1579,0 0,59.86713 -154.1579,0 z m -606.15486,0 0,-59.86713 153.40956,0 0,59.86713 -153.40956,0 z m 606.15486,104.76752 0,-58.37048 154.1579,0 0,58.37048 -154.1579,0 z m -606.15486,0 0,-58.37048 153.40956,0 0,58.37048 -153.40956,0 z m 606.15486,106.26419 0,-59.86716 154.1579,0 0,59.86716 -154.1579,0 z m -606.15486,0 0,-59.86716 153.40956,0 0,59.86716 -153.40956,0 z m 683.98214,79.32396 c -35.79815,0 -57.74017,-11.4643 -68.84721,-32.92692 l 136.19776,0 c -10.66497,21.46262 -31.55238,32.92692 -67.35055,32.92692 z m -607.65153,0 c -35.79816,0 -56.68557,-11.4643 -67.35054,-32.92692 l 135.44942,0 c -10.886,21.46262 -32.30072,32.92692 -68.09888,32.92692 z" />
      <glyph
         glyph-name="V"
         id="glyph4303"
         unicode="V"
         d="m 438.51513,-108.6013 c 10.94036,-27.2032 21.36011,-49.1246 44.15201,-59.1188 l 62.86051,0 c 23.2639,9.978 34.65421,31.8845 45.6487,59.1188 l -152.66122,0 z m -41.15866,104.7676 23.19851,-58.3705 188.58152,0 23.19851,58.3705 -234.97854,0 z m -41.15868,104.76751 23.19853,-58.37046 270.89884,0 23.19851,58.37046 -317.29588,0 z m 193.81989,105.5158 -22.45017,-59.1188 163.88631,0 23.19851,59.1188 -164.63465,0 z m -234.97855,0 23.19852,-59.1188 162.38963,0 -22.45017,59.1188 -163.13798,0 z m 276.13722,105.51585 -23.19853,-59.1188 164.63466,0 23.19853,59.1188 -164.63466,0 z m -317.29588,0 23.19852,-59.1188 163.13798,0 -22.45019,59.1188 -163.88631,0 z m 357.7062,105.51584 -23.19852,-59.11881 166.13133,0 23.19852,59.11881 -166.13133,0 z m -399.6132,0 23.19851,-59.11881 164.63466,0 -22.45017,59.11881 -165.383,0 z m 440.02353,105.51585 -22.45019,-59.11881 166.13133,0 23.19853,59.11881 -166.87967,0 z m -481.18219,0 23.19851,-59.11881 165.383,0 -23.19853,59.11881 -165.38298,0 z m 521.5925,104.7675 -22.45017,-58.37046 166.87968,0 23.19851,58.37046 -167.62802,0 z m -562.75116,0 23.19851,-58.37046 166.13133,0 -22.45018,58.37046 -166.87966,0 z m 591.18806,106.2642 0,-32.92694 -10.47675,-26.94021 163.13798,0 c 1.20453,10.09647 1.49667,20.16325 1.49667,29.93357 l 0,29.93358 -154.1579,0 z m -606.15486,0 0,-29.93358 c 0,-9.77032 0.29216,-19.8371 1.49668,-29.93357 l 162.38963,0 -10.47674,26.94021 0,32.92694 -153.40957,0 z m 606.15486,104.7675 0,-58.37047 154.1579,0 0,58.37047 -154.1579,0 z m -606.15486,0 0,-58.37047 153.40957,0 0,58.37047 -153.40957,0 z m 606.15486,106.26418 0,-59.86715 154.1579,0 0,59.86715 -154.1579,0 z m -606.15486,0 0,-59.86715 153.40957,0 0,59.86715 -153.40957,0 z m 683.23381,79.32397 c -35.79816,0 -57.21288,-11.4643 -68.09887,-32.92692 l 136.19776,0 c -10.88601,21.46262 -32.30073,32.92692 -68.09889,32.92692 z m -606.90319,0 c -35.79816,0 -56.68558,-11.4643 -67.35054,-32.92692 l 135.44941,0 c -10.88599,21.46262 -32.30071,32.92692 -68.09887,32.92692 z" />
      <glyph
         glyph-name="W"
         id="glyph4310"
         unicode="W"
         d="m 514.64568,-108.6012 c 6.80738,-34.1482 21.46668,-51.2585 44.15203,-59.1189 l 213.2767,0 c 18.66203,6.7586 30.47932,20.5522 46.39704,48.6422 l 5.9867,10.4767 -309.81247,0 z m -312.05749,0 5.9867,-10.4767 c 15.88947,-28.0402 27.26183,-41.8696 45.6487,-48.6422 l 213.27672,0 c 22.68533,7.8604 37.34464,24.9707 44.15201,59.1189 l -309.06413,0 z m -60.6155,104.7674 c 2.90332,-5.7055 6.96616,-12.4799 11.97344,-20.9535 l 21.70184,-37.4169 675.00208,0 21.70183,37.4169 c 5.00705,8.4736 8.99996,15.248 11.97343,20.9535 l -177.35641,0 -8.98008,-16.4634 -65.85387,0 -8.98007,16.4634 -219.26342,0 -8.98007,-16.4634 -65.85385,0 -9.72842,16.4634 -177.35643,0 z m 597.92312,104.76757 0,-47.14541 -5.9867,-11.22504 160.14461,0 c 0.0718,3.8313 0,6.50251 0,11.22504 l 0,47.14541 -154.15791,0 z m -303.82575,0 0,-47.14541 -5.98672,-11.22504 166.13132,0 -5.9867,11.22504 0,47.14541 -154.1579,0 z m -303.07744,0 0,-47.14541 c 0,-4.72253 -0.0478,-7.39374 0,-11.22504 l 160.14463,0 -6.73506,11.22504 0,47.14541 -153.40957,0 z m 606.90319,105.51585 0,-59.11874 154.15791,0 0,59.11874 -154.15791,0 z m -303.82575,0 0,-59.11874 154.1579,0 0,59.11874 -154.1579,0 z m -303.07744,0 0,-59.11874 153.40957,0 0,59.11874 -153.40957,0 z m 606.90319,105.51583 0,-59.11879 154.15791,0 0,59.11879 -154.15791,0 z m -303.82575,0 0,-59.11879 154.1579,0 0,59.11879 -154.1579,0 z m -303.07744,0 0,-59.11879 153.40957,0 0,59.11879 -153.40957,0 z m 606.90319,105.51586 0,-59.11881 154.15791,0 0,59.11881 -154.15791,0 z m -303.82575,0 0,-59.11881 154.1579,0 0,59.11881 -154.1579,0 z m -303.07744,0 0,-59.11881 153.40957,0 0,59.11881 -153.40957,0 z m 606.90319,105.51583 0,-59.11879 154.15791,0 0,59.11879 -154.15791,0 z m -303.82575,0 0,-59.11879 154.1579,0 0,59.11879 -154.1579,0 z m -303.07744,0 0,-59.11879 153.40957,0 0,59.11879 -153.40957,0 z m 606.90319,104.76751 0,-58.37046 154.15791,0 0,58.37046 -154.15791,0 z m -246.20363,0 c -30.82799,-6.70894 -47.22487,-29.65793 -53.88043,-58.37046 l 146.6745,0 c -6.65554,28.71253 -23.05244,51.66152 -53.88043,58.37046 l -38.91364,0 z m -360.69956,0 0,-58.37046 153.40957,0 0,58.37046 -153.40957,0 z m 606.90319,106.2642 0,-59.86715 154.15791,0 0,59.86715 -154.15791,0 z m -606.90319,0 0,-59.86715 153.40957,0 0,59.86715 -153.40957,0 z m 606.90319,104.76749 0,-58.37046 154.15791,0 0,58.37046 -154.15791,0 z m -606.90319,0 0,-58.37046 153.40957,0 0,58.37046 -153.40957,0 z m 606.90319,106.2642 0,-59.86715 154.15791,0 0,59.86715 -154.15791,0 z m -606.90319,0 0,-59.86715 153.40957,0 0,59.86715 -153.40957,0 z m 683.98215,79.32396 c -35.79817,0 -57.21288,-11.4643 -68.09888,-32.92694 l 136.19776,0 c -10.88576,21.46264 -32.30072,32.92694 -68.09888,32.92694 z m -606.9032,0 c -35.79816,0 -57.21287,-11.4643 -68.09888,-32.92694 l 135.44942,0 c -10.66496,21.46264 -31.55237,32.92694 -67.35054,32.92694 z" />
      <glyph
         glyph-name="X"
         id="glyph4317"
         unicode="X"
         d="m 736.15413,-108.6011 c 14.30034,-24.9264 28.57146,-48.6618 53.88043,-59.119 l 59.1188,0 c 23.64465,10.2586 42.07128,32.7502 44.90036,59.119 l -157.89959,0 z m -600.91649,0 c 2.88823,-26.3936 21.77537,-48.8727 45.64871,-59.119 l 59.11879,0 c 25.1289,10.4572 38.91628,34.1926 53.13211,59.119 l -157.89961,0 z m 539.55266,104.7674 33.67528,-58.3705 177.35642,0 c -2.53071,5.3367 -5.66225,10.5014 -8.98009,15.7152 l -24.69519,42.6553 -177.35642,0 z m -497.64566,0 -24.69519,-42.6553 c -3.31784,-5.2138 -6.44936,-10.3785 -8.98007,-15.7152 l 177.35642,0 33.67526,58.3705 -177.35642,0 z m 436.28183,104.76738 33.67528,-58.37029 178.10476,0 -34.42362,58.37029 -177.35642,0 z m -374.918,0 -34.4236,-58.37029 178.10475,0 33.67527,58.37029 -177.35642,0 z m 312.80584,105.51589 34.42361,-59.11878 178.10476,0 -34.4236,59.11878 -178.10477,0 z m -251.44201,0 -34.42362,-59.11878 178.10477,0 34.4236,59.11878 -178.10475,0 z m 61.36381,105.51589 -34.4236,-59.1188 178.10477,0 9.72841,16.46347 9.7284,-16.46347 178.10476,0 -34.4236,59.1188 -306.81914,0 z m 61.36383,105.51585 -34.4236,-59.11882 252.93868,0 -34.4236,59.11882 -184.09148,0 z m -52.38376,105.51585 34.42363,-59.11882 220.01174,0 34.42363,59.11882 -288.859,0 z m -61.36381,104.7675 34.42361,-58.37047 342.7394,0 34.42361,58.37047 -178.10475,0 -27.68855,-47.14538 -27.68857,47.14538 -178.10475,0 z m 295.59403,106.26417 -35.17195,-59.86714 178.10477,0 35.17194,59.86714 -178.10476,0 z m -357.7062,0 35.17195,-59.86714 178.10476,0 -35.17195,59.86714 -178.10476,0 z m 419.07003,104.76753 -34.4236,-58.37047 178.10474,0 33.67528,58.37047 -177.35642,0 z m -479.68552,0 33.67528,-58.37047 178.10477,0 -34.42363,58.37047 -177.35642,0 z m 541.79768,106.26417 -35.17195,-59.86714 177.35642,0 6.73505,11.22509 c 9.62736,15.12842 15.87365,30.2401 17.21181,48.64205 l -166.13133,0 z m -592.68475,0 c 1.33863,-18.40195 7.58445,-33.51363 17.21181,-48.64205 l 6.73505,-11.22509 177.35642,0 -35.17194,59.86714 -166.13134,0 z m 684.73049,79.32397 c -30.58708,0 -49.04245,-13.7414 -63.60885,-32.92693 l 125.72101,0 c -13.95599,19.78683 -37.68805,32.92693 -62.11216,32.92693 z m -609.89655,0 c -24.42963,0 -48.68564,-13.1325 -62.86051,-32.92693 l 125.72101,0 c -14.31448,19.02433 -32.43962,32.92693 -62.8605,32.92693 z" />
      <glyph
         glyph-name="Y"
         id="glyph4324"
         unicode="Y"
         d="m 437.56552,-108.6011 c 2.28692,-29.8547 13.96006,-49.993 38.91364,-59.119 l 74.08559,0 c 25.27975,9.1399 37.22994,29.2962 39.66197,59.119 l -152.6612,0 z m -0.74714,104.7674 0,-58.3706 154.1579,0 0,58.3706 -154.1579,0 z m 0,104.76751 0,-58.37041 154.1579,0 0,58.37041 -154.1579,0 z m 0,105.5158 0,-59.11873 154.1579,0 0,59.11873 -154.1579,0 z m 0,105.51586 0,-59.11878 154.1579,0 0,59.11878 -154.1579,0 z m -17.21181,105.51585 17.21181,-22.45021 0,-36.66859 154.1579,0 0,36.66859 17.21179,22.45021 -188.5815,0 z m -80.82063,105.51583 44.90035,-59.1188 260.42209,0 44.90034,59.1188 -350.22278,0 z m 235.72687,104.76752 -44.90037,-58.37047 195.31659,0 44.90034,58.37047 -195.31656,0 z m -316.54754,0 44.90037,-58.37047 193.81987,0 -44.15201,58.37047 -194.56823,0 z m 398.11654,106.26416 -45.64872,-59.86715 194.56823,0 45.6487,59.86715 -194.56821,0 z m -478.93719,0 45.64872,-59.86715 193.81986,0 -46.39701,59.86715 -193.07157,0 z m 559.75782,104.76752 -44.90037,-58.37046 194.56823,0 7.48342,9.72839 0,48.64207 -157.15128,0 z m -603.16149,0 0,-48.64207 7.48341,-9.72839 193.81985,0 -44.90034,58.37046 -156.40292,0 z m 606.15484,106.26419 0,-59.86716 154.15793,0 0,59.86716 -154.15793,0 z m -606.15484,0 0,-59.86716 153.40957,0 0,59.86716 -153.40957,0 z m 683.98214,79.32396 c -35.79815,0 -57.74019,-11.4643 -68.84721,-32.92691 l 136.19776,0 c -10.66475,21.46261 -31.55237,32.92691 -67.35055,32.92691 z m -607.65151,0 c -35.79818,0 -56.68559,-11.4643 -67.35055,-32.92691 l 135.44941,0 c -10.88599,21.46261 -32.30071,32.92691 -68.09886,32.92691 z" />
      <glyph
         glyph-name="Z"
         id="glyph4331"
         unicode="Z"
         d="m 134.03198,-108.6013 0,-59.1188 716.16072,0 c 22.78329,8.395 40.09496,26.7007 43.40368,59.1188 l -759.5644,0 z m 42.65534,104.7676 -33.67526,-58.3705 744.59761,0 c -12.29025,29.4778 -40.30135,41.9071 -70.34389,41.9071 l -475.94382,0 9.72842,16.4634 -174.36306,0 z m 60.61549,104.76759 -33.67528,-58.37048 174.36306,0 34.42362,58.37048 -175.1114,0 z m 61.36383,105.51567 -34.42362,-59.11882 175.1114,0 34.42362,59.11882 -175.1114,0 z m 61.3638,105.51592 -34.42359,-59.11882 175.85973,0 34.42362,59.11882 -175.85976,0 z m 61.36383,105.51584 -34.4236,-59.11881 175.85974,0 35.17196,59.11881 -176.6081,0 z m 61.36383,105.51585 -34.4236,-59.11882 176.60807,0 34.4236,59.11882 -176.60807,0 z m 61.36383,104.76748 -34.42363,-58.37045 176.6081,0 34.4236,58.37045 -176.60807,0 z m 61.36382,106.26418 -34.42362,-59.86712 176.6081,0 35.17193,59.86712 -177.35641,0 z m 61.36383,104.76751 -34.42362,-58.37045 178.10477,0 33.67526,58.37045 -177.35641,0 z m -532.8176,106.26419 c 0.546,-28.80879 11.17934,-48.07189 26.94023,-59.86713 l 710.92235,0 22.45016,38.91363 0,20.9535 -760.31274,0 z m 76.3306,79.32397 c -26.66505,0 -51.3775,-10.1614 -65.10551,-32.92692 l 749.08765,0 0,32.92692 -683.98214,0 z" />
      <glyph
         glyph-name="0"
         id="glyph3285"
         unicode="0"
         d="M 131.73227,1024.3845 C 113.05703,1007.629 97.949626,986.89136 88.353804,963.33332 l 792.862006,0 c -9.62682,23.63414 -24.61837,44.26838 -43.37847,61.05118 l -706.10507,0 z M 77.107542,911.9218 c -0.220528,-3.47155 -0.803312,-6.91871 -0.803312,-10.44296 l 0,-51.41152 165.48082,0 0,51.41152 485.99951,0 0,-51.41152 165.48082,0 0,51.41152 c 0,3.52425 -0.58276,6.97141 -0.80331,10.44296 l -815.354528,0 z m -0.803312,-113.26599 0,-61.85448 165.48082,0 0,61.85448 -165.48082,0 z m 651.48033,0 0,-61.85448 165.48082,0 0,61.85448 -165.48082,0 z M 76.30423,685.3898 l 0,-61.85448 165.48082,0 0,61.85448 -165.48082,0 z m 651.48033,0 0,-61.85448 165.48082,0 0,61.85448 -165.48082,0 z M 76.30423,572.12381 l 0,-61.85448 165.48082,0 0,61.85448 -165.48082,0 z m 651.48033,0 0,-61.85448 165.48082,0 0,61.85448 -165.48082,0 z m -651.48033,-113.266 0,-61.05118 165.48082,0 0,61.05118 -165.48082,0 z m 651.48033,0 0,-61.05118 165.48082,0 0,61.05118 -165.48082,0 z M 76.30423,346.39512 l 0,-61.85448 165.48082,0 0,61.85448 -165.48082,0 z m 651.48033,0 0,-61.85448 165.48082,0 0,61.85448 -165.48082,0 z m -651.48033,-113.266 0,-61.85448 165.48082,0 0,61.85448 -165.48082,0 z m 651.48033,0 0,-61.85448 165.48082,0 0,61.85448 -165.48082,0 z M 76.30423,119.86311 l 0,-61.85446 165.48082,0 0,61.85446 -165.48082,0 z m 651.48033,0 0,-61.85446 165.48082,0 0,61.85446 -165.48082,0 z M 76.30423,6.5971 l 0,-61.0512 c 0,-0.2622 -0.0011,-0.5424 0,-0.802 l 816.96115,0 c 10e-4,0.2622 0,0.5424 0,0.802 l 0,61.0512 -165.48082,0 0,-61.0512 -485.99951,0 0,61.0512 -165.48082,0 z m 8.033059,-113.266 c 7.337435,-23.0748 19.406901,-43.9024 35.345411,-61.0512 l 730.20421,0 c 15.92927,17.1388 28.00662,37.9926 35.34541,61.0512 l -800.895031,0 z" />
      <glyph
         glyph-name="1"
         id="glyph3292"
         unicode="1"
         d="m 84.322317,1024.3845 c -4.834769,-10.8597 -7.229747,-24.43923 -7.229747,-40.16525 0,-7.75697 0.349093,-14.32067 1.606609,-20.88593 l 489.212731,0 0,61.05118 -483.589593,0 z M 114.0446,911.9218 c 13.2188,-7.29478 28.86057,-10.44296 44.98508,-10.44296 l 243.40141,0 0,-51.41152 165.48082,0 0,61.85448 -453.86731,0 z m 288.38649,-113.26599 0,-61.85448 165.48082,0 0,61.85448 -165.48082,0 z m 0,-113.26601 0,-61.85448 165.48082,0 0,61.85448 -165.48082,0 z m 0,-113.26599 0,-61.85448 165.48082,0 0,61.85448 -165.48082,0 z m 0,-113.266 0,-61.05118 165.48082,0 0,61.05118 -165.48082,0 z m 0,-112.46269 0,-61.85448 165.48082,0 0,61.85448 -165.48082,0 z m 352.65086,0 C 737.51485,332.48573 729.4246,310.66411 728.5729,284.54064 l 165.48082,0 c -0.88254,26.12347 -8.72511,47.94509 -26.50907,61.85448 l -112.4627,0 z m -352.65086,-113.266 0,-61.85448 165.48082,0 0,61.85448 -165.48082,0 z m 326.14181,0 0,-61.85448 165.48082,0 0,61.85448 -165.48082,0 z m -326.14181,-113.26601 0,-61.85446 165.48082,0 0,61.85446 -165.48082,0 z m 326.14181,0 0,-61.85446 165.48082,0 0,61.85446 -165.48082,0 z M 402.43109,6.5971 l 0,-61.0512 -243.40141,0 c -2.82731,0 -5.24729,-0.604 -8.03306,-0.802 l 743.0571,0 0,61.8545 -165.48082,0 0,-61.0512 -160.66099,0 0,61.0512 -165.48082,0 z M 81.1091,-106.6689 c -2.74908,-8.9456 -4.01653,-18.871 -4.01653,-30.5256 0,-11.8785 1.969321,-21.4592 4.819827,-30.5256 l 807.321483,0 c 2.87772,9.0384 4.81984,18.6992 4.81984,30.5256 l 0,30.5256 -812.94462,0 z" />
      <glyph
         glyph-name="2"
         id="glyph3299"
         unicode="2"
         d="m 84.32239,1024.3845 c -4.83477,-10.8597 -8.033059,-24.43923 -8.033059,-40.16525 0,-7.75697 1.15239,-14.32067 2.409921,-20.88593 l 802.501598,0 c -7.60865,20.19882 -19.51788,39.41128 -39.36195,57.83798 -1.33155,1.2261 -2.69062,2.0487 -4.01652,3.2132 l -753.49999,0 z m 29.72227,-112.46269 c 13.21883,-7.29478 28.86053,-10.44296 44.98508,-10.44296 l 569.54317,0 0,-51.41151 165.48081,0 0,23.29585 c 0,13.741 -0.59637,26.19262 -1.60661,38.55862 l -778.40245,0 z m 614.52825,-113.26598 0,-61.85448 165.48081,0 0,61.85448 -165.48081,0 z m 0,-113.266 0,-61.85448 165.48081,0 0,61.85448 -165.48081,0 z m 0,-113.26599 0,-61.85448 164.67751,0 c 0.34188,8.13048 0.80202,16.19849 0.80202,24.90246 l 0,36.95202 -165.48081,0 z M 122.88102,458.85785 C 107.03151,442.6406 95.195408,422.15157 87.535607,397.80668 l 764.746253,0 c 17.77168,19.35437 27.92494,39.35191 33.73882,61.05117 l -763.13966,0 z M 77.89594,346.39516 c -0.730547,-8.77389 -1.606609,-17.82693 -1.606609,-27.31236 l 0,-34.54211 166.284119,0 0,56.23134 465.91684,0 c 21.83011,0 40.81586,1.65545 58.64126,5.62313 l -689.23561,0 z m -1.606609,-113.26598 0,-61.85448 166.284119,0 0,61.85448 -166.284119,0 z m 0,-113.26593 0,-61.85462 166.284119,0 0,61.85462 -166.284119,0 z m 0,-113.26615 0,-61.8544 742.253729,0 c -2.65618,0.1798 -5.34551,0.8019 -8.03304,0.8019 l -567.93657,0 0,61.0512 -166.284119,0 z m 0,-113.266 0,-61.0512 812.944559,0 c 2.87776,9.0384 4.81983,18.6992 4.81983,30.5256 0,11.6945 -2.00248,21.5584 -4.81983,30.5256 l -812.944559,0 z" />
      <glyph
         glyph-name="3"
         id="glyph3307"
         unicode="3"
         d="m 84.323232,1024.3845 c -4.834741,-10.8597 -8.033045,-24.43923 -8.033045,-40.16525 0,-7.74926 0.352167,-14.32608 1.606609,-20.88593 l 804.911564,0 c -9.0186,23.81485 -23.58606,44.40488 -41.77186,61.05118 l -756.713268,0 z M 114.04552,911.9218 c 13.21893,-7.29478 28.86063,-10.44296 44.98508,-10.44296 l 568.7399,0 0,-51.41152 166.28412,0 0,51.41152 c 0,3.48647 -0.61436,7.02178 -0.80202,10.44296 l -779.2058,0 z m 613.72498,-113.26599 0,-61.85448 166.28412,0 0,61.85448 -166.28412,0 z m 0,-113.26601 0,-58.64126 c 0,-1.18502 0.0114,-2.04875 0,-3.21322 l 166.28412,0 0,61.85448 -166.28412,0 z m -4.81982,-113.26599 c -9.00371,-37.2934 -28.82722,-55.17973 -53.01814,-61.85448 l 214.48243,0 c 5.41389,19.07341 8.21325,39.26785 8.83635,61.85448 l -170.30064,0 z m -477.96645,-113.266 c -3.79598,-10.1052 -6.42645,-21.52446 -6.42645,-35.34542 0,-9.56846 1.32899,-17.97604 3.21323,-25.70576 l 611.31506,0 c -6.94801,8.57467 -14.80369,17.31 -24.09915,25.70576 12.8169,11.5766 23.6727,23.27759 32.13221,35.34542 l -616.1349,0 z m 43.37846,-112.46269 c 10.22472,-3.46926 21.53371,-5.62314 32.9355,-5.62314 l 324.5352,0 c 32.95453,0 60.63244,-14.52273 73.90407,-56.23134 l 173.51386,0 c -1.14904,22.52389 -4.75248,42.89442 -11.24627,61.85448 l -593.64236,0 z m 438.6045,-113.266 c 0.17994,-4.41934 0.80203,-8.10091 0.80203,-12.85288 l 0,-49.0016 166.28412,0 0,61.85448 -167.08743,0 z m 0.80203,-113.26601 0,-61.85446 166.28412,0 0,61.85446 -166.28412,0 z m 0,-113.26601 0,-61.0512 -568.73992,0 c -2.68753,0 -5.38278,-0.6221 -8.03304,-0.802 l 743.05708,0 c 10e-4,0.2673 0,0.5347 0,0.802 l 0,61.0512 -166.28412,0 z M 81.108719,-106.6689 c -2.767225,-8.9672 -4.819827,-18.8311 -4.819827,-30.5256 0,-11.8264 1.992205,-21.4872 4.819827,-30.5256 l 769.566151,0 c 15.87536,17.1255 28.10334,37.7564 35.34542,61.0512 l -804.911571,0 z" />
      <glyph
         glyph-name="4"
         id="glyph3314"
         unicode="4"
         d="m 167.86604,1024.3845 c -5.36634,-12.2239 -8.83636,-26.35123 -8.83636,-40.16525 l 0,-20.88593 166.28413,0 0,20.88593 c 0,13.81402 -2.78676,27.94135 -8.03305,40.16525 l -149.41472,0 z m -8.83636,-112.4627 0,-61.85448 166.28413,0 0,61.85448 -166.28413,0 z m 517.32839,0 C 655.831,897.49883 647.72829,874.50142 646.6358,850.06732 l 164.67751,0 c -1.09249,24.4341 -9.99851,47.43151 -30.52558,61.85448 l -104.42966,0 z m -517.32839,-113.26599 0,-61.85448 166.28413,0 0,61.85448 -166.28413,0 z m 487.60612,0 0,-61.85448 164.67751,0 0,61.85448 -164.67751,0 z M 159.02968,685.3898 l 0,-61.85448 166.28413,0 0,61.85448 -166.28413,0 z m 487.60612,0 0,-61.85448 164.67751,0 0,61.85448 -164.67751,0 z m -487.60612,-113.26599 0,-61.85448 166.28413,0 0,61.85448 -166.28413,0 z m 487.60612,0 0,-61.85448 164.67751,0 0,61.85448 -164.67751,0 z m -487.60612,-113.266 0,-61.05118 166.28413,0 0,61.05118 -166.28413,0 z m 487.60612,0 0,-61.05118 164.67751,0 0,61.05118 -164.67751,0 z m -487.60612,-112.46269 0,-61.85448 735.02404,0 c -0.37531,28.86318 -9.77847,48.75816 -24.90245,61.85448 l -710.12159,0 z m 0,-113.266 0,-32.9355 487.60612,0 0,-28.91898 164.67751,0 0,28.91898 c 27.81235,0 54.54531,10.07742 69.88754,32.9355 l -722.17117,0 z m 487.60612,-113.26601 0,-61.85446 164.67751,0 0,61.85446 -164.67751,0 z m 0,-113.26601 0,-61.8544 164.67751,0 0,61.8544 -164.67751,0 z m 0,-113.266 0,-30.5256 c 0,-11.3486 0.97682,-21.3948 3.21322,-30.5256 l 157.44776,0 c 2.23641,9.1308 4.01653,19.177 4.01653,30.5256 l 0,30.5256 -164.67751,0 z" />
      <glyph
         glyph-name="5"
         id="glyph3321"
         unicode="5"
         d="m 240.96675,1024.3845 0,-61.05117 651.48036,0 c 1.28014,6.55985 1.60661,13.13666 1.60661,20.88592 0,15.72601 -3.11529,29.30555 -8.03306,40.16525 l -645.05391,0 z m 0,-112.46271 0,-61.85447 165.48083,0 0,51.41152 404.06242,0 c 16.12444,0 32.42756,3.14818 45.78839,10.44295 l -615.33164,0 z m 0,-113.26599 0,-61.85449 165.48083,0 0,61.85449 -165.48083,0 z m 0,-113.266 0,-61.8545 165.48083,0 0,61.8545 -165.48083,0 z m 0,-113.26601 0,-61.8545 165.48083,0 0,61.8545 -165.48083,0 z m 0,-113.26601 0,-61.05119 643.4473,0 c -7.1881,21.27717 -19.20888,40.63516 -40.96855,61.05119 l -602.47875,0 z m 0,-112.4627 0,-5.62314 487.60613,0 0,-56.23135 165.48084,0 0,34.54212 c 0,9.83605 -0.32133,18.42461 -0.80202,27.31237 l -652.28366,0 z m 487.60613,-113.26601 0,-61.85448 165.48084,0 0,61.85448 -165.48084,0 z m 0,-113.26601 0,-61.85455 165.48084,0 0,61.85455 -165.48084,0 z M 125.29083,6.597 C 101.21327,-4.5366 83.628982,-28.6284 78.699135,-55.2574 l 814.551275,0 c 0.27762,6.8498 0.80202,13.4826 0.80202,20.886 l 0,40.9684 -165.48083,0 0,-61.0511 -382.37318,0 c -26.46074,0 -64.40733,23.0128 -87.56026,32.9355 L 209.63785,0.1705 c -5.40567,2.4576 -10.98098,4.6354 -16.06609,6.4265 l -68.28093,0 z M 85.928876,-106.6689 c 16.520594,-28.4843 52.253654,-40.8077 85.150344,-55.428 l 12.85287,-5.6232 666.74316,0 c 1.26472,1.4318 2.75668,2.5037 4.01652,4.0165 16.21083,19.2986 25.59522,37.8316 31.32889,57.0347 l -800.091784,0 z" />
      <glyph
         glyph-name="6"
         id="glyph3328"
         unicode="6"
         d="m 82.715709,1024.3845 c -4.503381,-12.611 -6.426436,-26.95018 -6.426436,-40.16525 l 0,-20.88593 245.811327,0 c 1.47036,6.64726 2.40862,13.46108 2.40862,20.88593 0,14.25051 -3.80727,28.01315 -10.44296,40.16525 l -231.351832,0 z m -6.426436,-112.4627 0,-61.85448 166.284127,0 0,51.41152 c 15.89491,0 29.61355,3.70779 41.77187,10.44296 l -208.055997,0 z m 0,-113.26599 0,-61.85448 166.284127,0 0,61.85448 -166.284127,0 z m 0,-113.26601 0,-61.85448 166.284127,0 0,61.85448 -166.284127,0 z m 0,-113.26599 0,-61.85448 166.284127,0 0,61.85448 -166.284127,0 z m 0,-113.266 0,-61.05118 166.284127,0 0,61.05118 -166.284127,0 z m 0,-112.46269 0,-61.85448 816.157837,0 c -2.46518,27.55888 -9.13582,48.45021 -24.09915,61.85448 l -792.058687,0 z m 0,-113.266 0,-61.85448 166.284127,0 0,28.91898 485.9995,0 0,-28.91898 165.48082,0 0,61.85448 -817.764447,0 z m 0,-113.26601 0,-61.85446 166.284127,0 0,61.85446 -166.284127,0 z m 652.283627,0 0,-61.85446 165.48082,0 0,61.85446 -165.48082,0 z M 76.289273,6.5971 l 0,-61.8544 817.764447,0 0,61.8544 -165.48082,0 0,-61.0512 -485.9995,0 0,61.0512 -166.284127,0 z m 0,-113.266 0,-8.8363 c 0,-21.1728 3.039966,-38.0464 8.033059,-52.2149 l 801.698348,0 c 5.09231,14.0837 8.03304,30.986 8.03304,52.2149 l 0,8.8363 -817.764447,0 z" />
      <glyph
         glyph-name="7"
         id="glyph3335"
         unicode="7"
         d="M 88.338466,1024.3845 C 81.218997,1011.5614 77.092189,997.10297 77.092189,984.21925 l 0,-20.88593 816.961151,0 0,61.05118 -805.714874,0 z m -11.246277,-112.4627 0,-10.44296 c 0,-17.05474 6.954188,-35.86288 19.279322,-51.41152 l 126.922179,0 c 12.51357,15.54864 19.27932,34.35678 19.27932,51.41152 l 485.99951,0 0,-51.41152 165.48082,0 0,61.85448 -816.961151,0 z m 651.480331,-113.26599 0,-61.85448 165.48082,0 0,61.85448 -165.48082,0 z m 0,-113.26601 0,-12.04957 c 0,-22.73957 0.47041,-37.75636 -0.80203,-49.80491 l 166.28413,0 0,61.85448 -165.48082,0 z m -31.3289,-113.26599 c -6.01129,-5.63084 -11.41232,-10.05353 -20.08263,-17.67272 l -50.6082,-44.18176 250.63113,0 c 14.59292,17.10076 16.66608,32.47948 16.86942,61.85448 l -196.80972,0 z m -130.13541,-113.266 -69.88752,-61.05118 253.84437,0 69.88752,61.05118 -253.84437,0 z M 438.57943,346.39512 c -23.22387,-21.4111 -30.176,-33.47405 -31.3289,-61.85448 l 212.87581,0 71.49415,61.85448 -253.04106,0 z m -32.13221,-113.266 0,-61.85448 164.67752,0 0,12.04958 c 0,23.51485 1.18504,38.29745 4.81983,49.8049 l -169.49735,0 z m 0,-113.26601 0,-61.85446 164.67752,0 0,61.85446 -164.67752,0 z m 0,-113.26601 0,-61.8544 164.67752,0 0,61.8544 -164.67752,0 z m 0,-113.266 0,-30.5256 c 0,-11.3486 1.77884,-21.3948 4.01653,-30.5256 l 157.44778,0 c 2.23639,9.1308 3.21321,19.177 3.21321,30.5256 l 0,30.5256 -164.67752,0 z" />
      <glyph
         glyph-name="8"
         id="glyph3343"
         d="m 251.40975,1024.3845 c -5.84858,-12.1246 -8.83636,-25.95922 -8.83636,-40.16525 l 0,-20.88593 485.99951,0 0,20.88593 c 0,14.20603 -2.98778,28.04065 -8.83636,40.16525 l -468.32679,0 z m -8.83636,-112.4627 0,-61.85448 165.48082,0 0,51.41152 155.03786,0 0,-51.41152 165.48083,0 0,61.85448 -485.99951,0 z m 0,-113.26599 0,-61.85448 165.48082,0 0,61.85448 -165.48082,0 z m 320.51868,0 0,-61.85448 165.48083,0 0,61.85448 -165.48083,0 z M 242.57339,685.3898 l 0,-61.85448 165.48082,0 0,61.85448 -165.48082,0 z m 320.51868,0 0,-61.85448 165.48083,0 0,61.85448 -165.48083,0 z m -320.51868,-113.26599 0,-61.85448 165.48082,0 0,61.85448 -165.48082,0 z m 320.51868,0 0,-61.85448 165.48083,0 0,61.85448 -165.48083,0 z M 120.47104,458.85781 C 103.48314,442.52489 92.170029,422.15872 85.125629,397.80663 l 800.895031,0 c -7.27009,24.35209 -19.15232,44.71826 -36.14872,61.05118 l -729.4009,0 z M 77.09257,346.39512 c -0.05137,-2.35465 0,-4.83063 0,-7.22975 l 0,-54.62473 165.48082,0 0,56.23134 485.99951,0 0,-56.23134 165.48082,0 0,54.62473 c 0,2.39835 0.0771,4.87612 0,7.22975 l -816.96115,0 z m 0,-113.266 0,-61.85448 165.48082,0 0,61.85448 -165.48082,0 z m 651.48033,0 0,-61.85448 165.48082,0 0,61.85448 -165.48082,0 z M 77.09257,119.86311 l 0,-61.85446 165.48082,0 0,61.85446 -165.48082,0 z m 651.48033,0 0,-61.85446 165.48082,0 0,61.85446 -165.48082,0 z M 77.09257,6.5971 l 0,-61.0512 c 0,-0.2724 -10e-4,-0.5296 0,-0.802 l 816.96115,0 c 10e-4,0.2724 0,0.5296 0,0.802 l 0,61.0512 -165.48082,0 0,-61.0512 -485.99951,0 0,61.0512 -165.48082,0 z m 6.426436,-113.266 c 6.16811,-23.693 16.800774,-44.2427 31.328894,-61.0512 l 741.45049,0 c 14.64148,16.8535 25.12814,37.2412 31.32888,61.0512 l -804.108264,0 z"
         unicode="8" />
      <glyph
         glyph-name="9"
         id="glyph3350"
         unicode="9"
         d="M 88.33889,1024.3845 C 81.356937,1012.2324 77.092613,998.46976 77.092613,984.21925 l 0,-20.88593 816.961107,0 0,20.88593 c 0,14.16259 -4.22697,28.06735 -11.24625,40.16525 l -794.46858,0 z m -11.246277,-112.4627 0,-61.85448 165.480817,0 0,51.41152 485.99951,0 0,-51.41152 165.48078,0 0,61.85448 -816.961107,0 z m 0,-113.26599 0,-61.85448 165.480817,0 0,61.85448 -165.480817,0 z m 651.480327,0 0,-61.85448 165.48078,0 0,61.85448 -165.48078,0 z M 77.092613,685.3898 l 0,-61.85448 816.961107,0 0,61.85448 -165.48078,0 0,-41.77185 -485.99951,0 0,41.77185 -165.480817,0 z m 0,-113.26599 0,-11.24627 c 0,-18.43566 6.449576,-36.32403 17.672712,-50.60821 l 799.288395,0 0,61.85448 -816.961107,0 z m 651.480327,-113.266 0,-61.05118 165.48078,0 0,61.05118 -165.48078,0 z m 0,-112.46269 0,-61.85448 165.48078,0 0,61.85448 -165.48078,0 z m 0,-113.266 0,-61.85448 165.48078,0 0,61.85448 -165.48078,0 z m 0,-113.26601 0,-61.85446 165.48078,0 0,61.85446 -165.48078,0 z m 0,-113.26601 0,-61.0512 c -2.99755,0 -5.94986,-0.5526 -8.83635,-0.802 l 174.31713,0 0,61.8545 -165.48078,0 z m -77.11728,-113.266 c -3.25563,-9.2859 -5.62313,-19.3454 -5.62313,-30.5256 0,-10.8959 2.75694,-20.9031 6.42644,-30.5256 l 235.36834,0 c 3.74225,9.6225 6.42641,19.6297 6.42641,30.5256 l 0,30.5256 -242.59806,0 z" />
      <glyph
         glyph-name="."
         id="glyph3357"
         unicode="."
         d="m 411.70397,-116.3426 c 9.7272,-34.4778 35.50419,-51.3775 80.41679,-51.3775 l 40.95299,0 c 44.9021,0 70.68434,16.9156 80.4168,51.3775 l -201.78658,0 z m -0.74342,104.9885 c -2.04678,-9.0851 -3.72302,-19.2852 -3.72302,-30.5285 l 0,-26.8058 210.72181,0 0,26.8058 c 0,11.2074 -0.94357,21.4653 -2.97839,30.5285 l -204.0204,0 z m 81.16139,57.33427 c -18.93189,0 -33.67831,-3.49873 -46.1652,-9.67977 l 133.2834,0 c -12.44757,6.10269 -27.35341,9.67977 -46.16521,9.67977 l -40.95299,0 z" />
      <glyph
         glyph-name="!"
         id="glyph3365"
         unicode="!"
         d="m 474.25155,1024.3845 c -40.86699,0 -58.95207,-15.3995 -65.52479,-44.67598 l 206.99879,0 c -6.0595,29.25168 -22.44215,44.67598 -63.291,44.67598 l -78.183,0 z m -68.50321,-92.33041 c 0.19061,-6.90105 1.01268,-13.96724 1.48919,-21.59338 l 2.23264,-35.74081 206.99877,0 1.48919,35.74081 c 0.31693,7.6221 0.61951,14.69542 0.74342,21.59338 l -212.9556,0 z m 5.95681,-104.98856 2.97839,-57.33422 195.8298,0 2.97841,57.33422 -201.7866,0 z m 5.21218,-104.98862 2.97841,-57.33419 185.40539,0 2.97839,57.33419 -191.36219,0 z m 5.9568,-104.98859 2.9784,-56.58959 174.23639,0 2.97842,56.58959 -180.19321,0 z m 5.21221,-104.24399 2.97842,-57.33422 163.81198,0 2.97839,57.33422 -169.76879,0 z m 5.21221,-104.98859 1.4892,-23.0826 c 0.68859,-12.06346 1.66074,-23.52318 3.72301,-34.25162 l 148.91998,0 c 2.12299,10.72844 3.03366,22.18816 3.72298,34.25162 l 1.48922,23.0826 -159.34439,0 z M 462.33793,302.8671 c 11.42587,-10.20413 27.59,-15.63655 50.63282,-15.63655 23.0652,0 39.07731,5.41409 50.63279,15.63655 l -101.26561,0 z M 492.12194,45.98017 c -18.93189,0 -33.67831,-3.49873 -46.1652,-9.67977 l 133.2834,0 c -12.44757,6.10269 -27.35341,9.67977 -46.16521,9.67977 l -40.95299,0 z M 410.96055,-11.3541 c -2.04678,-9.0851 -3.72302,-19.2852 -3.72302,-30.5285 l 0,-26.8058 210.72181,0 0,26.8058 c 0,11.2074 -0.94357,21.4653 -2.97839,30.5285 l -204.0204,0 z m 0.74342,-104.9885 c 9.7272,-34.4778 35.50419,-51.3775 80.41679,-51.3775 l 40.95299,0 c 44.9021,0 70.68434,16.9156 80.4168,51.3775 l -201.78658,0 z" />
      <glyph
         glyph-name="&gt;"
         id="glyph3373"
         unicode="&gt;"
         d="m 188.01708,-117.9825 c 9.35857,-27.4107 34.81803,-49.7376 63.76609,-49.7376 22.20078,0 40.44303,11.8707 56.11415,22.3182 l 41.44797,27.4194 -161.32821,0 z m 40.17264,89.2726 -1.27533,-0.6367 c -21.02927,-13.6691 -34.82762,-27.3236 -40.17264,-49.0999 l 221.906,0 75.24399,49.7375 -255.70202,0 z M 363.37383,61.20018 287.49217,10.825 l 255.70203,0 75.88164,50.37518 -255.70201,0 z m 135.1841,89.91021 -75.88164,-50.37521 255.70202,0 75.88164,50.37521 -255.70202,0 z m 135.18411,89.91018 -75.88164,-50.37521 256.33967,0 30.60773,20.40515 c 15.18402,9.66265 27.77389,18.37912 36.34666,29.97006 l -247.41242,0 z m -12.75321,89.91018 73.96866,-49.09988 -1.91299,-1.27533 200.22553,0 c 0.006,0.4428 0,0.82438 0,1.27533 0.80253,22.47281 -7.09214,37.06473 -19.76749,49.09988 l -252.51371,0 z m -135.18412,89.27254 75.24399,-49.73756 255.70203,0 -74.60633,49.73756 -256.33969,0 z m -137.09709,90.54784 77.15697,-51.01287 256.97734,0 -77.15697,51.01287 -256.97734,0 z m -132.63346,89.27252 c 4.26147,-3.40745 8.71192,-7.00121 13.39088,-10.20257 l 59.94013,-39.53497 256.97733,0 -74.60633,49.73754 -255.70201,0 z m -23.59345,90.54785 c -5.0172,-9.65674 -7.89512,-20.20028 -8.2896,-31.24539 0,-7.27198 1.46938,-13.77102 3.18831,-19.76748 l 224.45663,0 -76.5193,51.01287 -142.83604,0 z" />
      <glyph
         glyph-name="&lt;"
         id="glyph3381"
         unicode="&lt;"
         d="m 730.102,-117.9825 41.44797,-27.4194 c 15.67112,-10.4475 33.91337,-22.3182 56.11415,-22.3182 28.9263,0 54.22361,22.3556 63.76609,49.7376 l -161.32821,0 z m -133.90878,89.2726 74.60632,-49.7376 222.54365,0 c -5.50611,21.7763 -19.78102,35.4309 -40.81029,49.0998 l -1.27533,0.6367 -255.06435,0 z M 461.0091,61.20018 536.25309,10.825 l 255.70202,0 -75.24399,50.37518 -255.70202,0 z m -135.82176,89.91021 75.88164,-50.37521 256.33969,0 -75.88166,50.37521 -256.33967,0 z m -126.25685,89.91018 c 8.57277,-11.59094 21.16264,-20.30741 36.34667,-29.97006 l 30.60772,-20.40515 256.33967,0 -75.88164,50.37521 -247.41242,0 z m 7.65192,89.91018 c -12.67534,-12.03515 -20.57009,-26.62707 -19.76749,-49.09988 0,-0.45095 -0.006,-0.83253 0,-1.27533 l 200.22552,0 -1.91298,1.27533 73.96867,49.09988 -252.51372,0 z m 131.35815,89.27254 -74.60633,-49.73756 255.70202,0 75.24399,49.73756 -256.33968,0 z m 135.82177,90.54784 -76.51932,-51.01287 256.33969,0 77.15697,51.01287 -256.97734,0 z m 134.54644,89.27252 -75.24398,-49.73754 256.97733,0 59.94013,39.53497 c 4.67896,3.20136 9.09262,6.79512 13.39087,10.20257 l -255.06435,0 z m 135.82177,90.54785 -76.5193,-51.01287 225.0943,0 c 1.76484,5.99646 3.1883,12.4955 3.1883,19.76748 -0.39444,11.04511 -3.82885,21.58865 -8.92726,31.24539 l -142.83604,0 z" />
      <glyph
         glyph-name="-"
         id="glyph3415"
         unicode="-"
         d="m 295.03214,318.13165 c -23.01777,-8.4464 -36.69255,-25.8354 -41.57461,-55.1941 l 517.53237,0 c -4.9735,29.2723 -18.5169,46.7205 -41.5746,55.1941 l -434.38316,0 z m -43.00823,-101.0694 c 2.37795,-25.6079 9.98021,-43.7717 23.65452,-55.1939 l 472.37377,0 c 13.8319,11.4222 21.9374,29.586 24.3714,55.1939 l -520.39969,0 z" />
      <glyph
         glyph-name="+"
         id="glyph3424"
         unicode="+"
         d="m 512.60064,621.54315 c -39.85357,0 -62.08484,-13.86067 -71.60816,-39.9498 l 143.97007,0 c -9.72521,26.1487 -32.46084,39.9498 -72.36191,39.9498 z m -77.6383,-88.19108 0,-58.04027 155.27659,0 0,58.04027 -155.27659,0 z m 0,-106.28154 0,-57.28652 155.27659,0 0,57.28652 -155.27659,0 z m 0,-105.52779 0,-8.29147 -227.63852,0 c -32.54089,0 -63.16228,-14.85783 -73.86944,-49.74881 l 758.29244,0 c -10.49118,34.95612 -40.54673,49.74881 -73.1156,49.74881 l -228.39229,0 0,8.29147 -155.27659,0 z M 130.43931,215.26118 c 8.01962,-40.9865 41.78875,-57.2865 76.88451,-57.2865 l 227.63852,0 0,-0.75257 155.27659,0 0,0.75257 228.39229,0 c 35.09048,0 67.50043,16.31351 75.37698,57.2865 l -763.56889,0 z m 304.52303,-106.28155 0,-58.04028 155.27659,0 0,58.04028 -155.27659,0 z m 0,-106.28153 0,-58.0403 155.27659,0 0,58.0403 -155.27659,0 z m 4.52261,-106.2816 c 8.79608,-28.4937 31.55365,-44.4725 73.11569,-44.4725 41.57504,0 64.86448,15.9618 73.86944,44.4725 l -146.98513,0 z" />
      <glyph
         glyph-name="/"
         id="glyph3431"
         unicode="/"
         d="m 781.11347,891.30183 c -28.65893,0 -44.64546,-17.91953 -58.87131,-39.68852 l 120.38844,0 c -10.2584,23.23969 -34.74077,39.68852 -61.51713,39.68852 z m -84.00736,-82.02294 -29.7664,-50.93359 156.10809,0 9.2607,15.8754 c 5.738,10.51969 10.6289,21.75545 13.2295,35.05819 l -148.83189,0 z m -54.90245,-93.26801 -29.7664,-50.93359 156.76965,0 29.76638,50.93359 -156.76963,0 z m -54.24097,-93.26801 -29.76639,-50.9336 156.10817,0 29.76637,50.9336 -156.10815,0 z m -54.24098,-93.26801 -29.76638,-50.27212 156.76963,0 29.10492,50.27212 -156.10817,0 z m -54.24098,-92.60653 -29.76637,-50.9336 156.10815,0 29.7664,50.9336 -156.10818,0 z m -54.24096,-93.26801 -29.76638,-50.93359 156.10816,0 29.76638,50.93359 -156.10816,0 z m -54.90245,-93.26802 -29.76638,-50.93359 156.76963,0 29.7664,50.93359 -156.76965,0 z m -54.24097,-93.26801 -29.76637,-50.93359 156.10814,0 29.7664,50.93359 -156.10817,0 z M 261.85539,63.79635 232.089,13.5241 l 156.76964,0 29.1049,50.27225 -156.10815,0 z m -54.24098,-92.60655 -2.64589,-4.6303 c -9.21621,-14.746 -19.34557,-29.9852 -25.13607,-46.3033 l 154.12374,0 29.76639,50.9336 -156.10817,0 z m -29.10491,-93.2681 c 9.16286,-26.5164 36.83073,-45.6418 64.82458,-45.6418 33.49986,0 50.0704,17.8188 66.14752,45.6418 l -130.9721,0 z" />
      <glyph
         glyph-name="\"
         id="glyph3438"
         unicode="\"
         d="m 243.33403,891.30183 c 28.65893,0 44.64546,-17.91953 58.87131,-39.68852 l -120.38844,0 c 10.2584,23.23969 34.74077,39.68852 61.51713,39.68852 z m 84.00736,-82.02294 29.7664,-50.93359 -156.10809,0 -9.2607,15.8754 c -5.738,10.51969 -10.6289,21.75545 -13.2295,35.05819 l 148.83189,0 z m 54.90245,-93.26801 29.7664,-50.93359 -156.76965,0 -29.76638,50.93359 156.76963,0 z m 54.24097,-93.26801 29.76639,-50.9336 -156.10817,0 -29.76637,50.9336 156.10815,0 z m 54.24098,-93.26801 29.76638,-50.27212 -156.76963,0 -29.10492,50.27212 156.10817,0 z m 54.24098,-92.60653 29.76637,-50.9336 -156.10815,0 -29.7664,50.9336 156.10818,0 z m 54.24096,-93.26801 29.76638,-50.93359 -156.10816,0 -29.76638,50.93359 156.10816,0 z m 54.90245,-93.26802 29.76638,-50.93359 -156.76963,0 -29.7664,50.93359 156.76965,0 z m 54.24097,-93.26801 29.76637,-50.93359 -156.10814,0 -29.7664,50.93359 156.10817,0 z m 54.24096,-93.26794 29.76639,-50.27225 -156.76964,0 -29.1049,50.27225 156.10815,0 z m 54.24098,-92.60655 2.64589,-4.6303 c 9.21621,-14.746 19.34557,-29.9852 25.13607,-46.3033 l -154.12374,0 -29.76639,50.9336 156.10817,0 z m 29.10491,-93.2681 c -9.16286,-26.5164 -36.83073,-45.6418 -64.82458,-45.6418 -33.49986,0 -50.0704,17.8188 -66.14752,45.6418 l 130.9721,0 z" />
      <glyph
         glyph-name="*"
         id="glyph3445"
         unicode="*"
         d="m 512.22375,623.12495 c -21.36113,0 -36.20531,-5.30952 -46.3695,-14.83824 l 93.35725,0 c -10.30882,9.58057 -25.56688,14.83824 -46.98775,14.83824 z m -62.44424,-54.40687 c -0.25127,-3.15104 -0.61728,-6.49498 -0.61728,-9.89215 l 0,-37.71385 127.36152,0 0,37.71385 c 0,3.38845 -0.36204,6.74863 -0.61726,9.89215 l -126.12501,0 z M 206.80339,481.54345 c -5.81126,-10.32642 -9.2739,-22.24766 -9.2739,-34.62255 0,-4.63368 1.14551,-8.75831 2.47304,-12.98346 l 178.67709,0 -55.64337,47.60601 -116.23286,0 z m 242.35785,0 0,-47.60601 127.36153,0 0,47.60601 -127.36153,0 z m 252.86827,0 -55.64338,-47.60601 178.05883,0 c 1.28796,4.22515 2.47305,8.34978 2.47305,12.98346 0,12.37489 -3.5606,24.29613 -9.27392,34.62255 l -115.61458,0 z M 230.91553,394.36882 c 0.65485,-0.56386 1.20486,-1.3038 1.85378,-1.85381 l 52.5521,-45.13297 454.42097,0 52.55307,45.13199 c 0.6509,0.55198 1.20092,1.2939 1.8538,1.8538 l -193.51533,0 -24.11214,-21.02084 0,21.02084 -127.36152,0 0,-21.02084 -24.73039,21.02084 -193.51533,0 z m 100.77635,-86.55638 55.64339,-47.60601 250.39522,0 55.64339,47.60601 -361.682,0 z m 65.53554,-87.17465 -55.64339,-47.60599 341.27943,0 -55.64338,47.60599 -229.99266,0 z M 295.21455,133.46317 248.84505,93.89455 c -3.07764,-2.53457 -6.60992,-5.32595 -9.89215,-8.0374 l 195.37011,0 14.83823,12.98346 0,-12.98346 127.36153,0 0,12.98346 14.83824,-12.98346 194.13357,0 c -3.28221,2.71145 -6.81449,5.50283 -9.89215,8.0374 l -46.36947,39.56862 -434.01841,0 z M 203.71208,46.28854 c -3.65336,-7.17203 -6.18259,-14.49085 -6.18259,-22.87564 0,-8.7055 1.96459,-17.0313 4.94609,-24.7304 l 129.83455,0 55.6434,47.60604 -184.24145,0 z m 245.44916,0 0,-47.60604 127.36153,0 0,47.60604 -127.36153,0 z m 187.95099,0 55.6434,-47.60604 129.21629,0 c 2.92611,7.6991 4.94609,16.0249 4.94609,24.7304 0,8.38479 -2.52924,15.70361 -6.18261,22.87564 l -183.62317,0 z M 248.2268,-40.8862 c 4.2738,-0.8961 8.98761,-1.8537 13.60171,-1.8537 4.22852,0 8.34345,0.8368 12.36519,1.8537 l -25.9669,0 z m 200.93444,0 0,-43.8964 c 0,-1.104 -0.0197,-2.0133 0,-3.0914 l 127.36153,0 c 0.0199,1.0724 0,1.9929 0,3.0914 l 0,43.8964 -127.36153,0 z m 301.71079,0 c 4.04809,-1.0188 8.1367,-1.8537 12.36521,-1.8537 4.6141,0 9.34493,0.9595 13.60171,1.8537 l -25.96692,0 z m -290.58211,-86.5563 c 9.83301,-13.3052 26.37407,-21.0208 51.93383,-21.0208 25.64265,0 42.56081,7.6315 52.55209,21.0208 l -104.48592,0 z" />
      <glyph
         glyph-name="("
         id="glyph3447"
         unicode="("
         d="m 623.46406,892.3736 c -32.29938,0 -48.11099,-17.156 -66.21446,-39.72868 l 121.83462,0 c -10.08878,22.16416 -30.5453,39.72868 -55.62016,39.72868 z m -100.646,-82.10595 -41.71511,-50.98513 172.81977,0 4.63502,5.95929 c 9.78736,13.04987 21.55635,27.8247 25.82364,45.02584 l -161.56332,0 z m -75.48449,-93.3624 -28.47222,-35.09367 c -4.53482,-5.5654 -8.50253,-10.58097 -12.58075,-15.89147 l 176.79264,0 39.06653,50.98514 -174.8062,0 z m -69.52519,-93.36239 c -9.96207,-16.82463 -17.46695,-33.60835 -23.17507,-50.98515 l 157.59045,0 38.40439,50.98515 -172.81977,0 z M 344.039,530.18045 c -2.28803,-15.34205 -3.55033,-32.12154 -3.97287,-50.323 l 136.40181,0 c 0.16738,22.77757 1.42727,37.20003 7.2836,50.323 l -139.71254,0 z m -3.97287,-92.70025 0,-50.98515 136.40181,0 0,50.98515 -136.40181,0 z m 0,-93.36241 0,-50.98514 136.40181,0 0,50.98514 -136.40181,0 z m 0,-93.3624 c 0.23117,-18.63963 1.29844,-35.41574 3.31072,-50.98514 l 137.7261,0 c -4.3104,12.48709 -4.58911,27.42338 -4.63501,50.98514 l -136.40181,0 z m 12.58075,-93.36241 c 5.2209,-17.64482 12.47201,-34.27133 21.85077,-50.98514 l 171.49549,0 -34.43154,45.688 c -1.67114,2.18538 -2.45621,3.29461 -3.97286,5.29714 l -154.94186,0 z m 48.99871,-93.36237 c 5.4556,-7.29523 10.87464,-14.73051 17.21576,-22.51295 l 22.51292,-27.81006 174.8062,0 -38.40439,50.32301 -176.13049,0 z m 74.16021,-92.70021 41.71512,-50.9852 164.21187,0 c -6.05501,15.0988 -17.61836,29.0358 -27.14793,42.3772 l -6.62145,8.608 -172.15761,0 z m 76.14663,-93.3625 1.98644,-2.6486 c 19.08458,-23.1739 34.1602,-43.0394 66.87661,-43.0394 29.28485,0 53.00238,18.7717 61.57946,45.688 l -130.44251,0 z" />
      <glyph
         glyph-name=")"
         id="glyph3478"
         unicode=")"
         d="m 400.98345,892.3736 c 32.29938,0 48.11099,-17.156 66.21446,-39.72868 l -121.83462,0 c 10.08878,22.16416 30.5453,39.72868 55.62016,39.72868 z m 100.646,-82.10595 41.71511,-50.98513 -172.81977,0 -4.63502,5.95929 c -9.78736,13.04987 -21.55635,27.8247 -25.82364,45.02584 l 161.56332,0 z m 75.48449,-93.3624 28.47222,-35.09367 c 4.53482,-5.5654 8.50253,-10.58097 12.58075,-15.89147 l -176.79264,0 -39.06653,50.98514 174.8062,0 z m 69.52519,-93.36239 c 9.96207,-16.82463 17.46695,-33.60835 23.17507,-50.98515 l -157.59045,0 -38.40439,50.98515 172.81977,0 z m 33.76938,-93.36241 c 2.28803,-15.34205 3.55033,-32.12154 3.97287,-50.323 l -136.40181,0 c -0.16738,22.77757 -1.42727,37.20003 -7.2836,50.323 l 139.71254,0 z m 3.97287,-92.70025 0,-50.98515 -136.40181,0 0,50.98515 136.40181,0 z m 0,-93.36241 0,-50.98514 -136.40181,0 0,50.98514 136.40181,0 z m 0,-93.3624 c -0.23117,-18.63963 -1.29844,-35.41574 -3.31072,-50.98514 l -137.7261,0 c 4.3104,12.48709 4.58911,27.42338 4.63501,50.98514 l 136.40181,0 z m -12.58075,-93.36241 c -5.2209,-17.64482 -12.47201,-34.27133 -21.85077,-50.98514 l -171.49549,0 34.43154,45.688 c 1.67114,2.18538 2.45621,3.29461 3.97286,5.29714 l 154.94186,0 z M 622.80192,64.03061 C 617.34632,56.73538 611.92728,49.3001 605.58616,41.51766 l -22.51292,-27.81006 -174.8062,0 38.40439,50.32301 176.13049,0 z m -74.16021,-92.70021 -41.71512,-50.9852 -164.21187,0 c 6.05501,15.0988 17.61836,29.0358 27.14793,42.3772 l 6.62145,8.608 172.15761,0 z m -76.14663,-93.3625 -1.98644,-2.6486 c -19.08458,-23.1739 -34.1602,-43.0394 -66.87661,-43.0394 -29.28485,0 -53.00238,18.7717 -61.57946,45.688 l 130.44251,0 z" />
      <glyph
         glyph-name="a"
         id="glyph3356"
         unicode="a"
         d="m 431.21292,597.8594 c -40.97635,0 -84.25242,-8.07241 -96.0613,-48.75838 l 462.8408,0 C 747.06831,591.8172 696.5811,597.8594 629.15741,597.8594 l -197.94449,0 z m -96.0613,-95.33355 c 12.5916,-41.90137 59.96428,-48.7584 96.0613,-48.7584 l 178.29559,0 c 32.3054,0 56.47659,-1.57424 74.95692,-7.27736 l 184.84522,0 c -5.47226,19.29213 -14.09883,37.52026 -27.65401,56.03576 l -506.50502,0 z M 729.58513,399.91491 c 4.12462,-14.208 5.88238,-33.07374 6.54963,-55.30802 l 144.09195,0 -0.72774,18.19342 c -0.28084,13.48398 -1.20699,25.34341 -2.1832,37.1146 l -147.73064,0 z m 7.27736,-101.8832 0,-2.91095 -309.28826,0 c -62.58905,0 -117.41384,-10.25631 -166.6518,-53.12481 l 622.21523,0 -1.45547,56.03576 -144.8197,0 z M 219.44141,195.42078 c -11.55929,-17.39675 -18.77203,-35.88011 -23.28758,-56.03576 l 171.01822,0 c 14.49848,7.0629 31.37528,10.47081 47.30291,11.6438 5.28475,0.3889 10.41325,0 15.28249,0 l 212.49922,0 c 29.77717,0 51.27508,-3.28285 66.95182,-11.6438 l 176.84011,0 -1.45547,56.03576 -665.15172,0 z M 190.33194,92.80985 c -0.13228,-4.11166 0,-8.06775 0,-12.37153 l 0,-43.66423 143.36421,0 0,51.66934 c 0,1.64876 0.61572,2.7973 0.72773,4.36642 l -144.09194,0 z m 550.16925,0 c 2.71018,-12.59393 4.36642,-27.25346 4.36642,-45.11971 l 0,-10.91605 144.09195,0 -1.45548,56.03576 -147.00289,0 z M 191.05967,-9.8012 c 1.24733,-20.2513 4.29743,-38.6741 9.46059,-56.0357 l 211.77149,0 c -33.66446,2.6334 -77.05365,15.8207 -78.5956,56.0357 l -142.63648,0 z m 503.59408,0 -107.70509,-56.0357 305.64959,0 -2.18322,56.0357 -195.76128,0 z M 221.62462,-112.4121 c 10.74785,-16.3086 24.5693,-31.4222 42.9365,-46.5752 3.90149,-3.2325 7.80052,-5.8912 11.64379,-8.7328 l 419.17657,0 58.21898,29.8373 c -0.39566,-10.6849 1.5265,-20.8436 5.82189,-29.8373 l 128.08173,0 c 4.93392,12.6155 7.06337,27.0968 6.54964,41.481 l -0.72774,13.827 -671.70136,0 z" />
      <glyph
         glyph-name="b"
         id="glyph3363"
         unicode="b"
         d="m 252.47544,892.3736 c -27.07723,-2.93031 -42.37457,-17.65716 -50.86125,-37.05605 l 122.79358,0 c -9.58256,21.79233 -27.13488,37.05605 -61.0335,37.05605 -3.83313,0 -7.45479,0.37202 -10.89883,0 z m -60.3069,-83.55776 c -0.246,-4.88663 -0.7266,-9.59353 -0.7266,-14.53179 l 0,-41.41558 143.13808,0 0,41.41558 c 0,4.93639 0.24576,9.64702 0,14.53179 l -142.41148,0 z m -0.7266,-102.44908 0,-55.94737 143.13808,0 0,55.94737 -143.13808,0 z m 0,-102.44908 0,-55.94737 143.13808,0 0,55.94737 -143.13808,0 z m 311.70678,-7.2659 c -50.46029,0 -79.69296,-18.40304 -111.89474,-48.68147 l 373.46686,0 c -34.76672,28.64622 -66.78667,48.68147 -103.17567,48.68147 l -158.39645,0 z m -311.70678,-95.18318 0,-55.94737 308.80043,0 c 10.48561,4.52113 21.52024,7.26589 31.24333,7.26589 l 100.26931,0 c 11.64563,0 20.01332,-2.60711 27.61039,-7.26589 l 209.2577,0 c -11.58906,19.09569 -27.34811,37.08325 -48.68148,55.94737 l -475.18935,0 -10.17225,-10.17225 0,10.17225 -143.13808,0 z m 0,-102.44908 0,-55.22078 183.82708,0 c 1.17788,0.99282 2.43274,1.93215 3.63294,2.90635 l 59.58032,52.31443 -247.04034,0 z m 528.95695,0 10.89885,-8.71907 c 9.93948,-7.45469 16.79355,-24.74403 18.89132,-46.50171 l 143.86466,0 c -0.34366,20.71256 -2.57829,38.86613 -6.53931,55.22078 l -167.11552,0 z m -528.95695,-101.72249 0,-55.94737 143.13808,0 0,20.3445 c 0,13.85332 2.27184,25.4097 5.81271,35.60287 l -148.95079,0 z m 559.4737,0 0,-55.94737 143.13808,0 0,55.94737 -143.13808,0 z m -559.4737,-102.44908 0,-55.94737 143.13808,0 0,55.94737 -143.13808,0 z m 559.4737,0 0,-55.94737 143.13808,0 0,55.94737 -143.13808,0 z m -559.4737,-102.44908 0,-55.9474 191.81956,0 -4.35954,3.63298 c -22.75728,19.11616 -33.88493,33.74583 -39.23581,52.31442 l -148.22421,0 z m 559.4737,0 0,-16.71155 c 0,-12.78332 -0.28064,-26.55434 -2.17976,-39.23585 l 145.31784,0 c 0.1395,4.14868 0,7.97391 0,12.35205 l 0,43.59535 -143.13808,0 z m -559.4737,-102.44907 0,-55.9473 321.87902,0 c -14.87429,2.4236 -36.21259,22.3058 -53.041,36.3293 l -22.52427,19.618 -246.31375,0 z m 528.95695,0 -50.13465,-42.1422 c -9.16211,-7.8532 -21.09462,-12.7441 -37.78264,-13.8051 l 231.78196,0 c 11.59097,16.9804 19.23506,35.3462 23.97745,55.9473 l -167.84212,0 z M 191.44194,-112.4993 c 0.16973,-19.5951 2.51877,-38.7801 8.71908,-55.2208 l 125.69993,0 c 6.46735,16.1452 8.71907,35.2191 8.71907,53.7676 l 0,1.4532 -143.13808,0 z m 151.13056,0 25.43062,-23.9775 c 11.91269,-11.0302 23.90814,-21.3877 36.32946,-31.2433 l 351.66919,0 c 3.78735,2.8476 7.98111,5.7086 11.62543,8.7191 l 49.40806,42.1422 c 1.63732,1.4206 2.78206,2.9519 4.35953,4.3595 l -478.82229,0 z" />
      <glyph
         glyph-name="c"
         id="glyph3375"
         unicode="c"
         d="m 572.06174,597.8594 c -79.18873,0 -114.99597,-1.98643 -175.38464,-48.75839 l 498.49993,0 c -11.65358,40.68598 -55.08492,48.75839 -96.0613,48.75839 l -227.05399,0 z M 339.91361,502.52583 280.23916,452.31198 c -2.39629,-1.97945 -4.27816,-3.87249 -6.54964,-5.8219 l 237.97004,0 c 11.39927,4.30913 23.38353,7.27737 34.93139,7.27737 l 252.52478,0 c 36.09715,0 83.62083,6.85703 96.0613,48.75838 l -555.26342,0 z M 229.29755,399.9149 c -12.47909,-17.33086 -21.6178,-35.00567 -26.92626,-55.30802 l 174.6569,0 65.49634,55.30802 -213.22698,0 z M 195.09391,298.03171 c -0.72867,-10.63988 -0.72774,-22.00398 -0.72774,-34.20365 l 0,-21.83211 143.36422,0 0,41.48102 c 0,5.30258 0.34931,10.08003 1.45547,14.55474 l -144.09195,0 z m -0.72774,-102.61094 0,-56.03576 143.36422,0 0,56.03576 -143.36422,0 z m 0.72774,-102.61094 c 1.3132,-21.06385 4.34765,-39.23726 9.46058,-56.03582 l 180.47882,0 -8.00512,6.54964 c -19.00127,15.2012 -33.62681,28.60277 -37.84233,49.48618 l -144.09195,0 z M 227.11435,-9.8011 c 12.7064,-18.3895 29.98719,-36.1943 53.12481,-55.3081 l 0.72657,-0.7266 254.70799,0 c -24.91748,3.2734 -49.75975,18.034 -72.04597,36.387 l -23.2876,19.6489 -213.22696,0 z m 110.61604,-102.611 48.03065,-40.0255 c 7.12461,-5.858 13.89035,-10.5646 20.37664,-15.2825 l 486.85613,0 c 3.21905,8.1898 5.09417,18.3196 5.09417,29.8372 0,9.8321 -1.13876,18.1102 -3.63868,25.4708 l -556.71891,0 z" />
      <glyph
         glyph-name="d"
         id="glyph3387"
         unicode="d"
         d="m 778.92512,941.27411 c -26.39033,-2.93027 -40.6752,-17.76992 -48.978,-37.144 l 119.96063,0 c -9.3454,21.91817 -27.14944,37.144 -60.33523,37.144 -3.74471,0 -7.2827,0.3729 -10.6474,0 z m -58.20574,-83.75609 c -0.24086,-4.89822 -0.70869,-9.61629 -0.70869,-14.56626 l 0,-41.5139 139.83576,0 0,41.5139 c 0,4.94997 -0.47018,9.66804 -0.70869,14.56626 l -138.41613,0 z m -0.70869,-102.69222 0,-56.08017 139.83576,0 0,56.08017 -139.83576,0 z m 0,-102.69223 0,-56.08015 139.83576,0 0,56.08015 -139.83576,0 z m -286.7698,-7.28317 c -57.16977,0 -88.9375,-11.81007 -131.31789,-48.79698 l 362.01142,0 c -36.6986,32.16205 -68.89224,48.79698 -106.47396,48.79698 l -124.21957,0 z M 247.26639,549.4413 C 225.56637,530.1847 209.7201,512.2197 198.28837,493.36114 l 208.68892,0 c 7.67977,4.29228 15.63049,7.28315 23.42428,7.28315 l 99.37566,0 c 7.81218,0 17.52784,-2.54643 27.68323,-7.28315 l 302.38599,0 0,56.08016 -139.83576,0 0,-10.1964 -9.22774,10.1964 -463.51656,0 z M 179.12305,446.74906 c -3.74399,-16.18415 -5.35899,-34.72761 -5.67859,-55.35182 l 142.67508,0 c 2.79046,19.96232 8.20741,37.61572 19.1653,46.61206 l 10.6474,8.73976 -166.80919,0 z m 440.09231,0 59.62539,-52.4386 c 1.18342,-1.04175 2.36686,-1.87146 3.54915,-2.91322 l 177.45655,0 0,55.35182 -240.63109,0 z m -445.7709,-101.96391 0,-56.08015 139.83576,0 0,40.05724 c 0,5.17816 -0.0456,10.60286 0,16.02291 l -139.83576,0 z m 544.43673,0 c 1.15844,-4.20512 2.12837,-8.40486 2.12837,-13.10964 l 0,-42.97051 139.83575,0 0,56.08015 -141.96525,0 z m -544.43673,-102.69223 0,-56.08018 139.83576,0 0,56.08018 -139.83576,0 z m 546.56623,0 0,-56.08018 139.83576,0 0,56.08018 -139.83576,0 z m -546.56623,-102.69224 0,-43.69883 c 0,-4.3885 -0.13632,-8.23168 0,-12.38132 l 144.09473,0 c -3.08894,17.43871 -4.1272,37.1011 -4.25895,56.08015 l -139.83578,0 z m 545.8564,0 c -4.53403,-21.40799 -22.75035,-36.86362 -40.46011,-52.43859 l -4.25897,-3.64156 185.26467,0 0,56.08015 -140.54559,0 z M 179.12305,36.7084 c 4.56585,-20.7246 12.37463,-38.8882 24.1341,-56.0801 l 220.75599,0 c -15.2448,2.8002 -30.79466,15.2846 -46.13872,28.4042 l -34.78147,27.6759 -163.9699,0 z m 442.22179,0 L 598.63038,17.044 C 573.89435,-5.5161 550.59752,-17.9611 533.32636,-19.3717 l 326.52009,0 0,56.0801 -238.50161,0 z M 245.84673,-65.9839 c 1.56049,-1.396 2.63739,-2.9557 4.25896,-4.3698 l 48.97802,-42.2423 c 2.97219,-2.614 7.85239,-5.6565 12.06702,-8.7397 l 341.42645,0 c 12.37711,9.3967 25.0195,19.93 36.91096,31.3175 l 23.42427,24.0343 -467.06568,0 z m 474.16396,0 0,-1.4566 c 0,-18.9945 2.34661,-37.8873 8.51791,-53.8952 l 122.79994,0 c 6.05727,16.4797 8.35299,35.7102 8.51791,55.3518 l -139.83576,0 z" />
      <glyph
         glyph-name="e"
         id="glyph3394"
         unicode="e"
         d="m 470.51076,597.8594 c -54.22212,0 -87.30937,-1.87232 -145.54741,-48.75838 l 430.82032,0 c -52.44459,41.37667 -85.29894,48.75838 -153.55252,48.75838 l -131.72039,0 z m -200.1277,-95.33355 -10.18832,-8.73284 c -18.99545,-16.14621 -32.66085,-31.22026 -42.93649,-47.3029 l 211.77149,0 c 12.59718,5.30607 25.23839,6.73011 38.57006,7.27736 6.27391,0.25841 12.17916,0 18.92116,0 l 121.53207,0 c 16.14484,0 34.76557,-0.6404 50.94161,-7.27736 l 207.40506,0 c -10.9957,18.34129 -25.93492,35.3999 -47.30293,52.39706 l -4.3664,3.63868 -544.34731,0 z M 196.88162,399.91493 c -4.10885,-16.64644 -5.82052,-34.88131 -6.54964,-55.30815 l 143.36421,0 c 1.69534,32.85823 12.78186,43.4939 28.38174,55.30815 l -165.19631,0 z m 521.05971,0 13.827,-11.64379 c 13.39876,-12.36803 17.23934,-27.07648 18.19343,-43.66436 l 143.36421,0 c -0.94077,19.86003 -3.78004,38.13216 -8.00509,55.30815 l -167.37955,0 z m -527.60935,-101.88327 0,-56.03574 143.36421,0 0,56.03574 -143.36421,0 z m 560.35753,0 0,-56.03574 143.36421,0 0,56.03574 -143.36421,0 z M 190.33198,195.4208 l 0,-56.03574 698.62755,0 c 3.58515,14.74954 5.06906,32.66063 5.09419,56.03574 l -703.72174,0 z m 0,-102.61086 0,-48.03079 c 0,-2.89304 -0.0467,-5.2332 0,-8.00495 l 144.09193,0 c -0.27477,1.67201 -0.72655,3.51884 -0.72655,5.09415 l 0,48.03052 461.38527,0 c 16.01231,0 28.6917,0.97354 40.02554,2.91107 l -644.77502,0 z M 193.97066,-9.8009 c 3.91373,-21.4354 11.18991,-39.0318 22.55984,-56.036 l 253.98026,0 c -38.03142,1.4229 -62.95496,8.5149 -80.05108,26.9264 l -26.19854,29.1096 -170.29048,0 z m 64.76861,-102.6112 c 1.57189,-1.439 2.72651,-2.899 4.36643,-4.3664 l 58.21894,-50.9416 566.90714,0 c 3.52207,8.2899 5.82194,18.0389 5.82194,29.8373 0,9.8859 -1.22957,18.0646 -3.63865,25.4707 l -631.6758,0 z" />
      <glyph
         glyph-name="f"
         id="glyph3401"
         unicode="f"
         d="m 660.45012,894.04841 c -54.70442,-1.54631 -100.4997,-8.89027 -145.54744,-37.1146 l 372.6014,0 c -16.17438,34.38623 -58.44788,37.1146 -97.51677,37.1146 l -97.51676,0 c -11.0495,0 -21.66445,0.29342 -32.02043,0 z M 459.59466,810.35864 c -16.80105,-18.50689 -28.7271,-37.07804 -37.11459,-56.03576 l 412.62695,0 c 29.99278,5.67285 54.51229,20.36593 58.9467,56.03576 l -434.45906,0 z M 407.92533,707.74771 c -3.2272,-17.57305 -5.18358,-36.44996 -5.82189,-56.03576 l 144.81969,0 c 1.92821,23.42032 6.64697,42.19059 14.55473,56.03576 l -153.55253,0 z m -5.82189,-102.61094 0,-7.27737 -40.75329,0 c -40.97637,0 -84.40772,-8.07241 -96.0613,-48.75839 l 502.86636,0 c -11.68479,40.62147 -54.38212,48.75839 -95.33357,48.75839 l -127.35399,0 0,7.27737 -143.36421,0 z M 265.28885,502.52584 c 12.44046,-41.90136 59.96414,-48.75838 96.0613,-48.75838 l 40.75329,0 0,-7.27738 143.36421,0 0,7.27738 127.35399,0 c 36.09715,0 82.8931,6.85702 95.33357,48.75838 l -502.86636,0 z m 136.81459,-102.61092 0,-55.30803 143.36421,0 0,55.30803 -143.36421,0 z m 0,-101.88321 0,-56.03575 143.36421,0 0,56.03575 -143.36421,0 z m 0,-102.61094 0,-56.03575 143.36421,0 0,56.03575 -143.36421,0 z m 0,-102.611 0,-56.03568 143.36421,0 0,56.03568 -143.36421,0 z m 0,-102.61087 0,-56.0357 143.36421,0 0,56.0357 -143.36421,0 z m 0,-102.611 c 0.093,-19.5888 2.02601,-38.973 8.0051,-55.308 l 127.35399,0 c 5.95837,16.3202 7.92245,35.748 8.00512,55.308 l -143.36421,0 z" />
      <glyph
         glyph-name="g"
         id="glyph3410"
         unicode="g"
         d="m 422.75682,597.8594 c -38.44208,0 -61.86266,-10.50216 -92.61628,-35.10587 l -18.67264,-14.93796 365.98374,0 c -42.70625,30.445 -80.05201,50.04383 -112.03583,50.04383 l -142.65899,0 z m 399.59452,0 c -36.68443,0 -59.59757,-20.96596 -69.46222,-50.04383 l 135.18996,0 c -7.76816,28.29623 -25.02833,50.04383 -65.72774,50.04383 z m -572.1297,-97.84577 -28.38243,-22.40716 c -10.00758,-8.00454 -18.04737,-20.27287 -25.3948,-35.10346 l 211.37432,0 c 9.22553,5.09802 20.5185,7.46898 34.35765,7.46898 l 108.30131,0 c 7.45255,0 15.25886,-2.99 23.901,-7.46898 l 319.6756,0 0,51.53522 c 0,1.95988 0.0241,3.99405 0,5.9754 l -147.14044,0 0,-5.9754 -7.46903,5.9754 -489.22318,0 z M 180.01251,394.70108 c -3.92647,-17.49082 -6.59595,-36.82668 -7.46907,-56.76493 l 147.88733,0 c 1.62288,20.75099 5.37244,39.63743 17.17881,49.29594 l 9.70979,7.46899 -167.30686,0 z m 458.60005,0 67.9684,-56.76493 187.47333,0 0,56.76493 -255.44173,0 z m -466.81599,-104.56687 0,-57.51282 147.14037,0 0,57.51282 -147.14037,0 z m 572.87658,0 c 1.446,-6.99107 2.23951,-14.16357 2.23951,-21.66148 l 0,-35.85134 147.14038,0 0,57.51282 -149.38109,0 z m -572.87658,-105.31475 0,-57.51062 147.14037,0 0,57.51062 -147.14037,0 z m 575.11728,0 0,-23.90096 c 0,-12.17279 -2.09371,-23.98468 -5.97521,-33.60966 l 153.11565,0 0,57.51062 -147.14044,0 z M 172.54344,79.50691 c 0.4135,-21.23134 1.41018,-40.57904 5.97525,-57.51311 l 184.48567,0 -25.39478,20.16775 c -9.33787,7.6388 -14.05137,21.69741 -16.43192,37.34536 l -148.63422,0 z m 519.0994,0 -69.4622,-57.51311 271.87365,0 0,57.51311 -202.41145,0 z M 203.91351,-25.8079 c 4.03493,-4.73 8.33806,-9.4505 13.44427,-14.1901 l 47.80198,-43.3204 463.82837,0 17.92572,18.6712 0,-18.6712 147.14044,0 0,57.5105 -690.14078,0 z m 115.02343,-105.3127 c 40.41827,-32.8088 73.68481,-36.5995 102.32609,-36.5995 l 173.2821,0 c 26.96101,0 55.89362,16.0231 82.15959,36.5995 l -357.76778,0 z m 427.97691,0 0,-56.7647 147.14044,0 0,56.7647 -147.14044,0 z m 0,-104.5666 0,-32.1181 c 0,-9.3191 -1.09227,-17.5767 -2.9876,-25.395 l 148.63414,0 c 0.99188,16.7405 1.39836,35.3353 1.4939,57.5131 l -147.14044,0 z m -34.35764,-105.315 -23.90098,-22.4073 c -23.06517,-19.9881 -43.18979,-33.6093 -73.94367,-33.6093 l -271.12671,0 c -9.1039,0 -17.93173,-0.4782 -26.88862,-1.482 l 545.98802,0 c 11.71876,16.0759 19.24436,34.0711 23.90094,57.5109 l -174.02898,0 z M 245.74023,-446.3146 c -2.18219,-7.2899 -2.98767,-15.1461 -2.98767,-24.6491 0,-13.265 2.43937,-23.884 6.72216,-32.8637 l 495.19843,0 c 9.05582,6.3837 18.25796,13.9698 28.38238,22.4069 l 41.82673,35.1059 -569.14203,0 z" />
      <glyph
         glyph-name="h"
         id="glyph3417"
         unicode="h"
         d="m 252.45517,892.3736 c -26.98384,-2.92011 -41.58976,-17.70835 -50.07953,-37.01529 l 122.65854,0 c -9.55558,21.8422 -27.76003,37.01529 -61.69216,37.01529 -3.82893,0 -7.44673,0.37161 -10.88685,0 z m -59.51481,-83.46587 c -0.24618,-4.88127 -0.72463,-9.58299 -0.72463,-14.51581 l 0,-41.37003 142.98068,0 0,41.37003 c 0,4.93282 -0.48309,9.63454 -0.72463,14.51581 l -141.5291,0 z m -0.72463,-102.33643 0,-55.88584 142.98068,0 0,55.88584 -142.98068,0 z m 0,-102.33642 0,-55.88584 142.98068,0 0,55.88584 -142.98068,0 z m 388.29778,-7.25789 c -47.81483,0 -91.10956,-23.99475 -128.46487,-47.90217 l -1.45158,-0.72463 359.99193,0 c -57.81654,48.42287 -107.32845,48.62795 -134.99697,48.62795 l -95.07851,0 z m -388.29778,-95.07854 0,-55.88584 366.52407,0 c 11.32163,4.95442 22.9057,7.25789 34.11213,7.25789 l 65.32114,0 c 17.65051,0 30.93073,-2.51296 41.37003,-7.25789 l 172.01229,0 c -3.7193,19.56591 -8.99795,38.15799 -19.59634,55.88584 l -472.48944,0 -44.2732,-29.0316 0,29.0316 -142.98068,0 z m 0,-102.33642 0,-55.16006 203.22127,0 87.09482,55.16006 -290.31609,0 z m 539.98793,0 c 3.10964,-15.83825 3.64242,-34.96147 4.35475,-55.16006 l 142.98066,0 0,5.80633 c -0.65959,17.15792 -1.31454,33.69966 -2.1762,49.35373 l -145.15805,0 z M 192.21573,297.9514 l 0,-55.88584 142.98068,0 0,55.88584 -142.98068,0 z m 546.52005,0 1.45158,-55.88584 142.98066,0 -2.17619,55.88584 -142.2549,0 z m -546.52005,-102.33642 0,-55.88584 142.98068,0 0,55.88584 -142.98068,0 z m 549.42321,0 2.1762,-55.88584 142.25489,0 -1.45158,55.88584 -142.98068,0 z M 192.21457,93.27855 l 0,-55.88582 142.98069,0 0,55.88582 -142.98069,0 z m 553.05215,0 2.17622,-55.88582 142.25488,0 -2.17621,55.88582 -142.25489,0 z M 192.21457,-9.0579 l 0,-55.8858 142.98069,0 0,55.8858 -142.98069,0 z m 556.6811,0 2.17622,-55.8858 141.52909,0 -1.45158,55.8858 -142.25488,0 z m -556.6811,-102.3364 c 0.0929,-19.5364 2.0206,-38.8687 7.9837,-55.1601 l 127.01327,0 c 5.94244,16.2766 7.90126,35.6525 7.98372,55.1601 l -142.98069,0 z m 560.31006,0 c 0.60618,-19.3968 3.03577,-38.6801 9.43527,-55.1601 l 124.11013,0 c 6.04716,16.4805 8.01946,35.7166 7.98369,55.1601 l -141.52909,0 z" />
      <glyph
         glyph-name="i"
         id="glyph3475"
         unicode="i"
         d="m 334.98298,-112.4143 c -2.40821,-7.4052 -3.63836,-15.5859 -3.63836,-25.4718 0,-11.7975 2.30083,-21.5463 5.82155,-29.834 l 552.32279,0 c 3.52166,8.2877 5.09353,18.0365 5.09353,29.834 0,9.8859 -1.22926,18.0666 -3.63836,25.4718 l -555.96115,0 z m 209.57724,102.6055 0,-56.0322 144.08381,0 0,56.0322 -144.08381,0 z m 0,102.60468 0,-56.03309 144.08381,0 0,56.03309 -144.08381,0 z m 0,102.60493 0,-56.0327 144.08381,0 0,56.0327 -144.08381,0 z m 0,102.60544 0,-56.03268 144.08381,0 0,56.03268 -144.08381,0 z m 0,101.87784 0,-55.30507 144.08381,0 0,55.30507 -144.08381,0 z M 334.98298,502.48954 c 12.43987,-41.89909 59.23342,-48.75596 95.32873,-48.75596 l 114.24851,0 0,-7.27672 144.08381,0 0,50.21112 c 0,2.13059 0.0234,3.77797 0,5.82156 l -353.66105,0 z m 95.32873,95.32827 c -40.97435,0 -84.40341,-8.07186 -96.05631,-48.75551 l 349.29512,0 c -10.72607,40.4 -40.07933,48.75551 -101.87786,48.75551 l -151.36095,0 z m 41.47955,192.67795 c 2.78445,-34.35395 20.45113,-50.90668 45.84518,-56.03267 l 123.7084,0 c 25.56195,5.12599 43.72045,21.67872 46.57279,56.03267 l -216.12637,0 z m 2.18201,101.87784 c -1.75122,-7.05917 -2.91078,-14.80058 -2.91078,-24.01418 l 0,-31.29089 217.58154,0 0,31.29089 c 0,9.2136 -1.12213,16.95501 -2.91077,24.01418 l -211.75999,0 z" />
      <glyph
         glyph-name="j"
         id="glyph3522"
         unicode="j"
         d="m 374.21039,-399.4074 c 14.18349,-21.9467 31.47836,-40.9073 49.22132,-54.2146 0.26935,-0.2056 0.44512,-0.5091 0.7122,-0.7123 l 388.77708,0 c 8.19933,6.4491 16.11742,14.0651 24.25398,22.8273 10.31679,10.8459 18.74096,21.1321 25.68068,32.1008 l -488.64641,0 z m -30.67415,100.5827 c -0.32415,-2.6718 -0.71222,-5.0877 -0.71222,-7.8468 0,-15.0156 3.00818,-31.3662 8.56023,-47.0813 l 532.1609,0 c 5.3231,17.696 8.55453,35.7028 9.98694,54.9281 l -141.95713,0 c -5.57145,-36.1209 -23.76182,-53.5013 -84.17559,-53.5013 l -92.02246,0 c -50.7213,0 -74.35871,6.3754 -89.16906,53.5013 l -142.67048,0 z m 67.76847,60.635 c -15.71201,0 -30.21487,-5.5643 -42.08779,-14.9804 l 89.88241,0 c -12.16032,9.8165 -28.26885,14.9804 -47.79462,14.9804 z m 343.12251,39.9478 0,-34.9543 c 0,-7.196 0.0208,-13.4678 0,-19.9739 l 140.53044,0 c 0.0456,6.7186 0,12.9896 0,19.9739 l 0,34.9543 -140.53044,0 z m 0,99.8693 0,-54.2148 140.53044,0 0,54.2148 -140.53044,0 z m 0,100.5827 0,-54.9281 140.53044,0 0,54.9281 -140.53044,0 z m 0,100.58271 0,-54.92814 140.53044,0 0,54.92814 -140.53044,0 z m 0,100.5827 0,-54.92814 140.53044,0 0,54.92814 -140.53044,0 z m 0,100.58269 0,-54.92813 140.53044,0 0,54.92813 -140.53044,0 z m 0,99.86934 0,-54.21479 140.53044,0 0,54.21479 -140.53044,0 z M 489.77348,504.41023 c 12.19456,-41.07312 58.77887,-47.79462 94.16252,-47.79462 l 170.49122,0 0,-7.13351 140.53044,0 0,49.22131 c 0,2.08869 0.0229,3.70349 0,5.70682 l -405.18418,0 z M 583.936,597.8594 c -40.16643,0 -82.73929,-7.91285 -94.16252,-47.79462 l 400.19071,0 c -10.31269,39.60395 -38.57605,47.79462 -99.15598,47.79462 l -206.87221,0 z m 98.44263,194.64487 c 2.75479,-33.99347 20.38477,-50.05818 45.65456,-54.92814 l 121.26991,0 c 24.89337,5.02473 42.21197,21.25105 44.9412,54.92814 l -211.86567,0 z m 2.14006,99.86933 c -1.71661,-6.91987 -2.85341,-14.50878 -2.85341,-23.54064 l 0,-30.67415 213.29238,0 0,30.67415 c 0,9.03186 -1.1368,16.62077 -2.85342,23.54064 l -207.58555,0 z" />
      <glyph
         glyph-name="k"
         id="glyph3524"
         unicode="k"
         d="m 252.47429,892.3736 c -27.07726,-2.93031 -42.37445,-17.65717 -50.86126,-37.05606 l 122.79357,0 c -9.56608,21.86627 -27.06375,37.05606 -61.03348,37.05606 -3.83314,0 -7.45493,0.37201 -10.89883,0 z m -60.30691,-83.55776 c -0.24646,-4.88662 -0.72543,-9.59352 -0.72543,-14.53178 l 0,-41.41559 143.13807,0 0,41.41559 c 0,4.93826 -0.48361,9.64516 -0.72542,14.53178 l -141.68489,0 z m -0.72543,-102.44907 0,-55.94737 143.13807,0 0,55.94737 -143.13807,0 z m 0,-102.44909 0,-55.94736 143.13807,0 0,55.94736 -143.13807,0 z M 759.6347,596.6518 c -29.94547,0 -60.70008,-26.81753 -85.01094,-48.68148 l 152.58375,0 c -9.76861,28.3093 -35.92096,48.68148 -67.57281,48.68148 z m -568.19275,-95.18318 0,-55.94739 143.13807,0 0,55.94739 -143.13807,0 z m 427.96105,0 -66.11963,-55.94739 223.06289,0 7.2659,5.81272 c 19.52071,16.07588 37.23066,29.25887 44.32193,50.13467 l -208.53109,0 z m -427.96105,-102.44909 0,-55.22078 143.13807,0 0,55.22078 -143.13807,0 z m 306.62064,0 -66.11962,-55.22078 221.60971,0 66.84621,55.22078 -222.3363,0 z m -306.62064,-101.72248 0,-55.94737 338.59057,0 67.57281,55.94737 -220.88314,0 -42.14217,-35.60288 0,35.60288 -143.13807,0 z m 0,-102.4491 0,-55.94738 412.70268,0 -67.5728,55.94738 -345.12988,0 z m 0,-102.44912 0,-55.94741 143.13807,0 0,34.87631 23.25087,21.0711 -166.38894,0 z m 242.68081,0 67.57278,-55.94741 225.96923,0 -67.57278,55.94741 -225.96923,0 z M 191.44195,-10.0501 l 0,-55.9474 143.13807,0 0,55.9474 -143.13807,0 z m 365.47437,0 67.57279,-55.9474 225.96925,0 c -2.31112,1.9135 -4.16003,3.83 -6.53929,5.8127 l -60.30691,50.1347 -226.69584,0 z M 191.44195,-112.4993 c 0.0931,-19.529 2.04373,-38.9263 7.99248,-55.2208 l 127.15311,0 c 5.94896,16.2945 7.90994,35.6918 7.99248,55.2208 l -143.13807,0 z m 488.99453,0 66.11962,-55.2208 140.95831,0 c 4.37975,9.5243 6.53931,19.973 6.53931,31.2434 0,9.083 -1.87635,16.9435 -4.35954,23.9774 l -209.2577,0 z" />
      <glyph
         glyph-name="l"
         id="glyph3531"
         unicode="l"
         d="m 271.21193,892.3736 c -30.94573,-2.07398 -60.25274,-10.96743 -73.38552,-37.05605 l 340.77035,0 c -13.0435,30.76344 -42.44444,37.05605 -98.08955,37.05605 l -151.13056,0 c -5.98337,0 -12.19623,0.39992 -18.16472,0 z m -79.92481,-83.55776 c 4.80943,-36.81819 32.28473,-50.56759 61.76007,-55.94737 l 294.26863,0 0,39.96241 c 0,6.01035 -0.47431,10.6554 -0.72542,15.98496 l -355.30213,0 z m 212.16404,-102.44908 0,-55.94737 143.86466,0 0,55.94737 -143.86466,0 z m 0,-102.44908 0,-55.94737 143.86466,0 0,55.94737 -143.86466,0 z m 0,-102.44908 0,-55.94737 143.86466,0 0,55.94737 -143.86466,0 z m 0,-102.44908 0,-55.22078 143.86466,0 0,55.22078 -143.86466,0 z m 0,-101.72249 0,-55.94737 143.86466,0 0,55.94737 -143.86466,0 z m 0,-102.44908 0,-55.94737 143.86466,0 0,55.94737 -143.86466,0 z m 0,-102.44908 0,-55.9474 143.86466,0 0,55.9474 -143.86466,0 z m 0,-102.44907 0,-55.9473 143.86466,0 0,55.9473 -143.86466,0 z M 194.19347,-112.4993 c -2.40484,-7.3945 -3.63295,-15.5604 -3.63295,-25.4306 0,-11.7798 2.29718,-21.5136 5.81271,-29.7902 l 551.48122,0 c 3.5164,8.2766 5.0861,18.0104 5.0861,29.7902 0,9.8702 -1.2276,18.0361 -3.6329,25.4306 l -555.11418,0 z" />
      <glyph
         glyph-name="m"
         id="glyph3539"
         d="m 268.30095,597.8594 c -39.06936,0 -58.61929,-20.49284 -67.67956,-48.75839 l 133.90364,0 c -10.52366,28.64956 -33.34527,48.75839 -66.22408,48.75839 z m 189.93938,0 c -49.44141,0 -70.97729,-19.56436 -108.43282,-48.03064 l -0.72657,-0.72659 221.95982,0 c -30.09665,30.68233 -67.94132,48.7584 -112.79926,48.7584 z m 269.99047,0 c -56.82822,0 -77.77683,-13.27438 -114.25472,-48.75839 l 226.32623,0 C 812.00836,580.41187 771.81841,597.8594 728.2308,597.8594 z M 194.07176,502.52583 c -0.0698,-2.35553 0,-4.91902 0,-7.27737 l 0,-48.75837 686.98384,0 c -1.29247,19.4286 -4.43374,37.87655 -11.64381,56.03574 l -675.34003,0 z m 0,-102.61091 0,-55.30804 143.3642,0 0,11.64379 46.57518,43.66425 -189.93938,0 z m 278.72331,0 c 1.13644,-10.84365 1.45549,-21.40759 1.45549,-29.83724 l 0,-25.4708 143.3642,0 0,11.64379 29.83722,33.47592 c 2.29383,2.58049 5.48516,6.3531 8.73286,10.18833 l -183.38977,0 z m 266.35179,0 c 1.21794,-13.42857 0.13964,-27.00942 0.72656,-37.11461 l 0.72659,-18.19343 143.36421,0 -1.45549,50.9416 c -0.0465,1.53931 0.0465,2.84715 0,4.36644 l -143.3642,0 z m -545.0751,-101.88321 0,-56.03581 143.3642,0 0,56.03581 -143.3642,0 z m 280.1788,0 0,-56.03581 143.3642,0 0,56.03581 -143.3642,0 z m 267.80725,0 2.18206,-56.03581 142.63647,0 -1.45549,56.03581 -143.3642,0 z m -547.98605,-102.61092 0,-56.03574 143.3642,0 0,56.03574 -143.3642,0 z m 280.1788,0 0,-56.03574 143.3642,0 0,56.03574 -143.3642,0 z m 271.44594,0 1.45546,-56.03574 143.36421,0 -2.18203,56.03574 -142.63647,0 z M 194.07176,92.80995 l 0,-56.03598 143.3642,0 0,56.03598 -143.3642,0 z m 280.1788,0 0,-56.03598 143.3642,0 0,56.03598 -143.3642,0 z m 274.35689,0 2.18203,-56.03598 142.63647,0 -1.45546,56.03598 -143.36421,0 z M 194.07176,-9.8011 l 0,-56.0358 143.3642,0 0,56.0358 -143.3642,0 z m 280.1788,0 0,-56.0358 143.3642,0 0,56.0358 -143.3642,0 z m 277.99558,0 2.18203,-56.0358 141.90874,0 -1.45547,56.0358 -142.63647,0 z M 194.07176,-112.412 c 0.0932,-19.5592 1.31809,-38.9886 7.27737,-55.3081 l 128.08173,0 c 5.95837,16.3202 7.92244,35.7482 8.0051,55.3081 l -143.3642,0 z m 280.1788,0 c 0.0932,-19.5592 1.31806,-38.9886 7.27737,-55.3081 l 128.08173,0 c 5.95835,16.3202 7.92244,35.7482 8.0051,55.3081 l -143.3642,0 z m 281.63426,0 c 0.6078,-19.449 2.31712,-38.7838 8.73284,-55.3081 l 124.44305,0 c 6.06337,16.5248 8.7687,35.8124 8.73283,55.3081 l -141.90872,0 z"
         unicode="m" />
      <glyph
         glyph-name="n"
         id="glyph3546"
         unicode="n"
         d="m 295.55277,597.8594 c -23.42893,0 -38.85622,-7.6334 -48.96949,-19.31191 l 97.24927,0 c -10.15486,11.60943 -25.38332,19.31191 -48.27978,19.31191 z m 296.57579,0 c -25.74805,0 -49.29714,-8.22048 -71.72996,-19.31191 l 256.57253,0 c -24.59206,13.39099 -50.0269,19.31191 -83.45505,19.31191 l -101.38752,0 z M 229.34051,534.40598 c -1.63907,-12.21528 -1.37943,-25.03176 -1.37943,-37.93412 l 0,-15.17364 135.8731,0 0,1.37943 0,15.17364 c 0,12.30158 -0.39242,24.73404 -2.06915,36.55469 l -132.42452,0 z m 218.63842,0 -82.07563,-53.10776 500.73028,0 c -6.67784,18.68422 -16.8618,36.04905 -33.10614,53.10776 l -385.54851,0 z m -220.01785,-97.24927 0,-53.10776 234.50178,0 84.14476,53.10776 -318.64654,0 z m 498.66115,0 c 9.53664,-12.22124 14.23731,-29.92794 16.55305,-53.10776 l 136.56281,0 c -0.61868,18.34235 -1.46439,36.56882 -3.44855,53.10776 l -149.66731,0 z m -498.66115,-97.24927 0,-53.10776 135.8731,0 0,35.17528 28.27815,17.93248 -164.15125,0 z m 517.97304,0 2.06915,-53.10776 135.87308,0 -2.06913,53.10776 -135.8731,0 z m -517.97304,-97.24927 0,-52.41804 135.8731,0 0,52.41804 -135.8731,0 z m 521.42161,0 2.06913,-52.41804 135.18338,0 -1.37943,52.41804 -135.87308,0 z m -521.42161,-96.55955 0,-53.10789 135.8731,0 0,53.10789 -135.8731,0 z m 524.87017,0 2.06913,-53.10789 135.18338,0 -2.06914,53.10789 -135.18337,0 z m -524.87017,-97.24937 0,-53.10775 135.8731,0 0,53.10775 -135.8731,0 z m 528.31872,0 1.37942,-53.10775 135.18338,0 -1.37943,53.10775 -135.18337,0 z m -528.31872,-97.24915 0,-25.5193 c 0,-9.2815 0.3148,-18.6786 1.37943,-27.5886 l 132.42452,0 c 1.0647,8.91 2.06915,18.3071 2.06915,27.5886 l 0,25.5193 -135.8731,0 z m 531.76728,0 0.68971,-26.8989 c 0.27345,-8.7497 0.82786,-17.7035 2.06913,-26.209 l 131.04511,0 c 1.33043,11.6136 1.7277,24.0262 1.37943,35.8651 l -0.68971,17.2428 -134.49367,0 z m -514.52449,-97.2494 c 10.20058,-13.3179 25.59381,-22.0708 50.3489,-22.0708 24.7551,0 40.14832,8.7529 50.34892,22.0708 l -100.69782,0 z m 533.8364,0 c 10.20419,-13.2936 25.34132,-22.0708 48.96948,-22.0708 24.35556,0 39.62488,8.7452 49.6592,22.0708 l -98.62868,0 z" />
      <glyph
         glyph-name="o"
         id="glyph3553"
         unicode="o"
         d="m 507.48505,597.8594 c -49.19658,0 -80.99101,-6.08027 -109.66408,-19.31191 l 327.61284,0 c -28.65379,13.20692 -60.51063,19.31191 -109.66409,19.31191 l -108.28467,0 z M 331.60868,534.40597 c -5.42283,-4.38701 -10.63619,-8.88459 -16.55306,-13.79422 -17.72756,-14.40361 -31.89385,-26.70187 -43.45182,-39.31355 l 580.73688,0 c -11.55797,12.61168 -25.72427,24.90994 -43.45181,39.31355 -5.91689,4.90963 -11.13024,9.40721 -16.55307,13.79422 l -460.72712,0 z m -88.97275,-97.24929 c -6.42423,-15.16945 -10.40449,-32.65634 -12.41481,-53.10777 l 145.52908,0 c 7.62037,11.86899 19.83476,23.89822 38.62383,40.00325 5.97051,5.11755 11.72349,9.11369 17.24278,13.10452 l -188.98088,0 z m 449.69174,0 c 5.5193,-3.99083 11.27226,-7.98697 17.24279,-13.10452 18.78907,-16.10503 31.00345,-28.13426 38.62382,-40.00325 l 145.52907,0 c -2.01032,20.45143 -5.99058,37.93832 -12.4148,53.10777 l -188.98088,0 z m -464.17568,-97.24929 0,-53.10777 135.87313,0 0,53.10777 -135.87313,0 z m 531.07767,0 0,-53.10777 135.87312,0 0,53.10777 -135.87312,0 z m -531.07767,-97.24929 0,-52.41804 135.87313,0 0,52.41804 -135.87313,0 z m 531.07767,0 0,-52.41804 135.87312,0 0,52.41804 -135.87312,0 z m -531.07767,-96.55956 0,-53.10778 135.87313,0 0,53.10778 -135.87313,0 z m 531.07767,0 0,-53.10778 135.87312,0 0,53.10778 -135.87312,0 z M 230.22112,48.84919 c 2.07069,-20.34642 6.51986,-37.54579 13.10452,-53.10779 l 183.4632,0 c -4.06321,3.1439 -8.07878,5.9395 -12.41481,9.656 -20.33505,17.4302 -33.24246,30.90429 -40.69296,43.45179 l -143.45995,0 z m 520.04229,0 C 742.81292,36.30169 729.9055,22.8276 709.57046,5.3974 c -4.33603,-3.7165 -8.35161,-6.5121 -12.41481,-9.656 l 183.46319,0 c 6.58466,15.562 11.03388,32.76137 13.10451,53.10779 l -143.45994,0 z M 270.9141,-48.4001 c 13.26505,-15.4098 29.80852,-30.4467 51.03863,-48.2797 2.01263,-1.6906 3.57162,-3.2146 5.51769,-4.828 l 469.00365,0 c 1.94597,1.6134 3.50514,3.1374 5.51769,4.828 21.16853,17.7815 37.10128,32.9139 50.34892,48.2797 l -581.42658,0 z m 117.94062,-97.2493 c 33.2074,-17.8067 64.49526,-22.0707 118.63033,-22.0707 l 108.28467,0 c 54.13507,0 85.42296,4.264 118.63033,22.0707 l -345.54533,0 z" />
      <glyph
         glyph-name="p"
         id="glyph3561"
         unicode="p"
         d="m 319.13551,597.8594 c -22.51618,0 -37.34237,-7.16821 -47.0616,-18.55951 l 92.79751,0 c -9.98862,11.16903 -24.16615,18.55951 -45.73591,18.55951 z m 214.09712,0 c -14.3659,0 -30.6516,-7.64015 -47.72444,-18.55951 l 188.90923,0 c -18.2161,10.89941 -35.92908,18.55951 -51.03863,18.55951 l -90.14616,0 z M 255.50292,536.87817 c -1.65401,-11.8802 -1.98851,-24.17846 -1.98851,-36.45617 l 0,-14.58246 545.51682,0 -65.62109,51.03863 -302.25477,0 c -7.35422,-6.44661 -14.8913,-12.99823 -21.21087,-18.55951 l -25.85074,-23.19938 0,16.57099 c 0,8.55286 -0.8463,17.04824 -1.98745,25.1879 l -126.60234,0 z m -1.98851,-93.46034 0,-51.03865 212.1086,0 37.78186,35.79333 c 4.35161,4.35163 10.05329,9.85564 15.90814,15.24532 l -265.7986,0 z m 384.44684,0 61.64406,-51.03865 182.94369,0 c -6.9385,17.91216 -18.67425,33.99507 -35.13049,51.03865 l -209.45726,0 z m -384.44684,-93.46037 0,-51.03864 132.56787,0 c 3.81329,17.88565 13.99005,31.50916 34.46766,51.03864 l -167.03553,0 z m 493.81534,0 c 11.83398,-13.50708 16.571,-27.03217 16.571,-46.39876 l 0,-4.63988 130.57936,0 c -0.1697,19.12627 -0.8739,36.09368 -2.65136,51.03864 l -144.499,0 z m -493.81534,-93.46035 0,-50.37579 130.57935,0 0,50.37579 -130.57935,0 z m 510.38634,0 0,-50.37579 130.57936,0 0,50.37579 -130.57936,0 z m -510.38634,-92.7975 0,-51.03865 139.19627,0 c -5.72544,12.33836 -8.61692,27.03388 -8.61692,39.77037 l 0,11.26828 -130.57935,0 z m 510.38634,0 0,-35.79335 c 0,-5.65269 -0.51756,-10.45568 -1.32569,-15.2453 l 131.24222,0 c 0.35633,10.3036 0.66177,21.09907 0.66177,33.14196 l 0,17.89669 -130.57937,0 z m -510.38634,-93.46037 0,-51.03864 231.99378,0 -53.68999,51.03864 -178.30379,0 z m 482.54707,0 -61.64406,-51.03864 197.52615,0 c 9.45663,15.65744 14.66179,32.04983 17.89667,51.03864 l -153.77876,0 z m -482.54707,-93.46034 0,-51.0387 130.57935,0 0,11.2683 11.93112,-11.2683 377.15562,0 38.44468,30.4907 c 9.28145,7.2925 17.18312,13.8254 24.52505,20.548 l -212.77144,0 c -8.84132,-6.2992 -18.74021,-11.2683 -29.82778,-11.2683 l -33.80479,0 c -8.18763,0 -17.61882,4.3279 -27.17644,11.2683 l -279.05537,0 z m 0,-93.4603 0,-51.0387 130.57935,0 0,51.0387 -130.57935,0 z m 186.9207,0 c 28.10588,-27.1716 54.44914,-48.3873 98.10023,-48.3873 l 88.82048,0 c 30.62298,0 66.00608,26.8428 92.79753,48.3873 l -279.71824,0 z m -186.9207,-93.4604 0,-50.3758 130.57935,0 0,50.3758 -130.57935,0 z m 0,-92.7975 0,-23.8622 c 0,-9.3816 0.84016,-18.2096 1.98851,-27.1765 l 127.26516,0 c 1.14752,8.9611 1.32568,17.8013 1.32568,27.1765 l 0,23.8622 -130.57935,0 z m 17.23382,-93.4604 c 9.83343,-12.1878 25.2581,-19.8852 48.38728,-19.8852 23.07296,0 37.88896,7.749 47.72442,19.8852 l -96.1117,0 z" />
      <glyph
         glyph-name="q"
         id="glyph3569"
         unicode="q"
         d="m 480.19251,597.8594 c -37.20975,0 -63.40729,-5.49297 -88.97276,-19.31192 l 271.74624,0 c -21.31661,11.89085 -42.58729,19.31192 -64.83285,19.31192 l -117.94063,0 z m 347.61445,0 c -21.97188,0 -36.51782,-7.85344 -46.90036,-19.31192 l 95.18014,0 c -10.25297,11.72377 -25.70181,19.31192 -48.27978,19.31192 z M 332.59431,534.40595 302.24702,509.57636 c -11.48165,-9.75924 -20.57039,-19.02986 -28.96787,-28.27815 l 622.80924,0 0,20.69134 c 0,10.99365 -1.18742,21.8624 -2.75885,32.4164 l -131.04513,0 c -1.3397,-8.98146 -2.06803,-18.20307 -2.06803,-27.58844 l 0,-8.96623 -31.03701,29.65759 c -2.43132,2.35031 -5.15242,4.63021 -7.58682,6.89708 l -388.99713,0 z m -88.97274,-97.24926 c -6.90306,-15.77309 -11.16693,-33.19686 -13.10451,-53.10777 l 142.77022,0 c 9.36065,16.82829 25.66211,31.34204 45.52093,47.59008 2.75179,2.26622 5.57839,3.50991 8.27654,5.51769 l -183.46318,0 z m 385.54857,0 c 3.77984,-3.20357 7.37494,-6.47889 11.7251,-10.34567 l 50.3489,-42.7621 204.84425,0 0,53.10777 -266.91825,0 z m -400.0325,-97.24928 0,-53.10777 135.8731,0 0,53.10777 -135.8731,0 z m 513.14514,0 c 10.27438,-10.22914 17.93249,-21.58233 17.93249,-40.00325 l 0,-13.10452 135.87312,0 0,53.10777 -153.80561,0 z m -513.14514,-97.24929 0,-52.41804 135.8731,0 0,52.41804 -135.8731,0 z m 531.07763,0 0,-52.41804 135.87312,0 0,52.41804 -135.87312,0 z m -531.07763,-96.55957 0,-53.10775 135.8731,0 0,53.10775 -135.8731,0 z m 531.07763,0 0,-17.24279 c 0,-15.69184 -5.88737,-26.50939 -14.48393,-35.86496 l 150.35705,0 0,53.10775 -135.87312,0 z M 230.51706,48.84928 c 1.6884,-20.11617 5.19877,-37.33418 11.7251,-53.10778 l 179.32492,0 c -0.9292,0.7416 -1.82086,1.2999 -2.75887,2.068 -21.31969,17.4434 -37.99479,32.50299 -46.90035,51.03868 l -141.3908,0 z m 464.17564,0 L 640.89524,2.6386 c -3.05704,-2.5474 -5.52212,-4.5858 -8.27654,-6.8971 l 263.46969,0 0,53.10778 -201.39569,0 z M 270.5203,-48.4 c 8.96141,-10.1835 19.00404,-20.2225 31.72672,-31.037 l 25.51933,-22.0708 399.34279,0 c 2.97823,2.9556 6.00412,6.0041 8.96624,8.9663 l 24.13989,24.1399 0,-33.1062 135.87312,0 0,53.1078 -625.56809,0 z m 114.49208,-97.2493 c 27.37921,-16.3171 53.94291,-22.0708 95.18013,-22.0708 l 120.69949,0 c 29.33864,0 52.85592,8.8683 73.79908,22.0708 l -289.6787,0 z m 375.20289,0 0,-53.1077 135.87312,0 0,53.1077 -135.87312,0 z m 0,-97.2492 0,-52.4182 135.87312,0 0,52.4182 -135.87312,0 z m 0,-96.5596 0,-24.8298 c 0,-9.7552 0.17656,-18.9535 1.37943,-28.2781 l 132.42455,0 c 1.19402,9.3306 2.06802,18.5163 2.06802,28.2781 l 0,24.8298 -135.8731,0 z m 17.93249,-97.2493 c 10.23421,-12.6283 25.65086,-20.6914 49.6592,-20.6914 24.06684,0 40.11691,8.0096 50.34892,20.6914 l -100.00812,0 z" />
      <glyph
         glyph-name="r"
         id="glyph3577"
         unicode="r"
         d="m 294.6946,597.8594 c -23.429,0 -38.85624,-7.63339 -48.96951,-19.31191 l 95.86987,0 c -10.44719,11.45847 -25.49194,19.31191 -46.90036,19.31191 z m 295.19644,0 c -22.51394,0 -43.71026,-7.58793 -64.83286,-19.31191 l 260.71087,0 c -25.72148,13.08618 -54.48962,19.31191 -86.21392,19.31191 l -109.66409,0 z M 228.48232,534.40596 c -1.63986,-12.21529 -1.37943,-25.03178 -1.37943,-37.93412 l 0,-15.17365 135.87313,0 0,25.51932 c 0,9.40016 -1.33086,18.59396 -2.75884,27.58845 l -131.73486,0 z m 235.19156,0 -64.83287,-53.10777 477.28022,0 c -8.19465,18.51472 -19.60413,35.98416 -35.17528,53.10777 l -377.27207,0 z m -236.57099,-97.24929 0,-53.10777 273.12567,0 53.10778,44.14152 c 3.88578,3.20004 7.39988,6.16105 11.03537,8.96625 l -337.26882,0 z m 516.59377,0 c 12.6589,-17.72238 14.27271,-33.86472 14.48393,-53.10777 l 135.87313,0 c 0.0221,1.63986 0,3.19055 0,4.82798 0,17.17127 -1.48978,33.19112 -4.13827,48.27979 l -146.21879,0 z m -516.59377,-97.2493 0,-53.10776 155.18504,0 64.14316,53.10776 -219.3282,0 z m 536.59539,0 c 8.91108,-26.79831 28.68449,-46.90037 63.45344,-46.90037 37.31813,0 54.11398,20.15525 61.38431,46.90037 l -124.83775,0 z m -536.59539,-97.24929 0,-52.41806 135.87313,0 0,52.41806 -135.87313,0 z m 0,-96.55958 0,-53.10777 135.87313,0 0,53.10777 -135.87313,0 z m 0,-97.2493 0,-53.1078 135.87313,0 0,53.1078 -135.87313,0 z m 0,-97.2493 0,-25.5193 c 0,-9.2814 0.31562,-18.6785 1.37943,-27.5885 l 132.42457,0 c 1.06381,8.91 2.06803,18.3071 2.06803,27.5885 l 0,25.5193 -135.87313,0 z m 17.24278,-97.2493 c 10.20067,-13.3179 25.59393,-22.0707 50.34893,-22.0707 24.75501,0 40.14827,8.7528 50.34892,22.0707 l -100.69785,0 z" />
      <glyph
         glyph-name="s"
         id="glyph3585"
         unicode="s"
         d="m 437.29421,597.8594 c -32.52943,0 -63.50045,-6.80464 -90.35217,-19.31192 l 439.34606,0 c -31.77814,16.47053 -62.56464,19.31192 -115.87149,19.31192 l -233.1224,0 z M 288.31658,534.40596 C 275.41667,519.1288 265.24646,501.39782 258.659,481.29819 l 622.11953,0 c -2.64164,23.65192 -16.43851,39.14184 -33.10613,53.10777 l -559.35582,0 z m -37.93411,-97.24927 c -0.28031,-4.27026 -0.68862,-8.69059 -0.68862,-13.10453 0,-14.60201 1.7767,-27.65531 4.13827,-40.00324 l 166.22042,0 c -18.61779,8.18119 -33.79586,16.99669 -33.79586,38.62383 0,5.50224 0.68641,10.43219 2.06803,14.48394 l -137.94224,0 z m 500.73036,0 c 0.99318,-0.96892 1.77228,-1.71049 2.75884,-2.75886 17.03906,-18.4591 33.06663,-28.96786 58.62546,-28.96786 23.93463,0 46.0822,12.52692 58.62546,31.72672 l -120.00976,0 z M 269.00466,339.9074 c 11.51873,-21.21663 28.00096,-38.25172 48.9695,-53.10777 l 316.57746,0 -117.25091,53.10777 -248.29605,0 z m 133.11427,-97.24929 115.18178,-52.41805 309.68036,0 c -17.87445,14.14205 -38.78981,26.79566 -63.45344,37.93411 l -31.72672,14.48394 -329.68198,0 z m 211.74136,-96.55957 75.86824,-34.48557 c 11.28588,-5.1299 23.1829,-11.47326 34.48556,-18.6222 l 166.2204,0 c -4.72335,19.66262 -12.07998,37.43444 -22.07076,53.10777 l -254.50344,0 z M 760.07907,48.84925 c 0.19864,-1.62441 0.68861,-3.14222 0.68861,-4.82798 0,-21.70567 -5.03346,-37.23397 -13.10452,-48.27987 l 146.21879,0 c 1.88926,12.5753 2.75884,25.9239 2.75884,40.00333 0,4.65385 0.19864,8.64159 0,13.10452 l -136.56283,0 z M 300.73138,21.9505 c -22.54351,0 -42.81485,-9.9793 -55.86661,-26.2091 l 110.3538,0 c -0.66874,0.6842 -1.42798,1.3508 -2.06803,2.0681 -15.61925,17.0393 -31.1191,24.1399 -52.41805,24.1399 z M 230.38083,-48.4 c 1.25804,-20.7514 16.12226,-38.0677 33.10615,-53.1078 l 586.25456,0 c 13.60331,15.1337 24.56056,32.5988 32.41642,53.1078 l -651.77713,0 z m 93.80074,-97.2493 c 40.39875,-20.304 82.50823,-22.0708 138.63195,-22.0708 l 210.36194,0 c 43.25979,0 82.14096,7.4734 115.18177,22.0708 l -464.17566,0 z" />
      <glyph
         glyph-name="t"
         id="glyph3592"
         unicode="t"
         d="m 370.63485,892.3736 c -23.466,-9.79834 -34.42383,-31.35427 -39.01734,-56.68557 l 139.87346,0 c -4.45593,25.26298 -14.99137,46.90774 -38.28115,56.68557 l -62.57497,0 z m -41.96204,-103.80084 0,-55.94938 145.76288,0 0,55.94938 -145.76288,0 z m 0,-103.06464 0,-36.07264 -46.37909,0 c -28.89557,0 -58.56216,-4.27853 -78.03468,-20.61293 l 592.62178,0 c -19.46991,16.40742 -49.08776,20.61293 -78.03466,20.61293 l -244.41047,0 0,36.07264 -145.76288,0 z M 182.90994,581.70728 c -0.1177,-1.96708 -0.735,-3.80999 -0.735,-5.88941 0,-23.87048 8.27321,-39.91277 20.61293,-50.79616 l 595.56648,0 c 12.33973,10.88339 20.61294,26.92568 20.61294,50.79616 0,2.08014 -0.62427,3.92281 -0.735,5.88941 l -635.32,0 z m 145.76287,-103.80085 0,-56.68554 145.76288,0 0,56.68554 -145.76288,0 z m 0,-103.80083 0,-56.68555 145.76288,0 0,56.68555 -145.76288,0 z m 0,-103.80084 0,-55.94938 145.76288,0 0,55.94938 -145.76288,0 z m 0,-103.06465 0,-56.68556 145.76288,0 0,56.68556 -145.76288,0 z m 0.735,-103.80083 c 0.35336,-19.70413 1.47706,-38.58146 4.41705,-56.68558 l 154.59699,0 c -9.28831,14.1068 -12.32347,33.31648 -13.25118,56.68558 l -145.76286,0 z m 427.71833,0 C 753.15266,56.62092 749.67981,48.7595 747.55585,40.61771 743.87473,26.26153 739.6843,15.3883 734.30467,6.7537 l 157.5417,0 c 1.26505,7.1975 2.20735,13.8497 2.20735,20.61302 0,13.20257 -3.53081,25.55835 -9.57028,36.07256 l -127.35848,0 z M 347.07722,-40.3616 c 7.86824,-18.5597 18.26871,-37.116 34.60027,-55.2132 0.47586,-0.5182 0.99413,-0.9612 1.47235,-1.4723 l 457.90155,0 c 1.15668,1.3216 2.53905,2.3109 3.68089,3.6809 11.5642,13.7324 23.19955,32.5199 32.39175,53.0046 l -530.04681,0 z m 101.59231,-103.8009 c 36.69383,-17.1723 77.45772,-23.5576 121.46904,-23.5576 l 73.61762,0 c 48.90566,0 95.51302,4.3915 136.19259,23.5576 l -331.27925,0 z" />
      <glyph
         glyph-name="u"
         id="glyph3599"
         unicode="u"
         d="m 295.24255,597.8594 c -23.42878,0 -38.68144,-7.38973 -48.96951,-19.31192 l 95.86987,0 c -9.81906,11.69795 -24.32242,19.31192 -46.90036,19.31192 z m 531.07765,0 c -23.0123,0 -38.02616,-7.58505 -48.27979,-19.31192 l 97.24928,0 C 865.03628,590.30304 849.3645,597.8594 826.3202,597.8594 z M 229.03027,534.40597 c -1.66414,-12.56179 -1.75463,-26.16224 -1.37943,-39.31355 l 0.68861,-13.79422 134.49369,0 -0.68861,22.76048 c -0.32444,10.07331 -0.62018,20.35211 -2.06803,30.34729 l -131.04513,0 z m 531.76735,0 c -1.35734,-9.80868 -2.06802,-20.02965 -2.06802,-30.34729 l 0,-22.76048 135.8731,0 0,22.76048 c 0,10.30108 -0.7195,20.55295 -2.06802,30.34729 l -131.73484,0 z m -531.07764,-97.24928 1.37943,-53.10777 135.1834,0 -2.06804,53.10777 -134.49369,0 z m 529.00851,0 0,-53.10777 135.87312,0 0,53.10777 -135.87312,0 z m -526.24967,-97.24929 2.06804,-53.10777 135.1834,0 -2.06804,53.10777 -135.1834,0 z m 526.24967,0 0,-53.10777 135.87312,0 0,53.10777 -135.87312,0 z m -522.80111,-97.24928 1.37942,-52.41805 135.87312,0 -2.06804,52.41805 -135.1834,0 z m 522.80111,0 0,-52.41805 135.87312,0 0,52.41805 -135.87312,0 z m -520.04226,-96.55957 2.06803,-53.10777 135.87311,0 -2.06804,53.10777 -135.8731,0 z m 520.04226,0 0,-38.62383 -22.76047,-14.48394 158.63359,0 0,53.10777 -135.87312,0 z M 242.13478,48.84932 c 0.66875,-18.44126 1.45005,-36.42912 3.44856,-53.10782 l 145.52906,0 c -0.15448,0.2693 -0.5341,0.4194 -0.6886,0.6886 -7.14342,12.5009 -10.0689,32.08565 -11.72509,52.41809 l -136.56282,0 z m 423.48269,0 -84.83448,-53.10782 313.81862,0 0,53.10782 -228.98414,0 z M 255.929,-48.4 c 6.34469,-18.3569 15.3714,-36.3895 30.34729,-53.1078 l 395.20455,0 78.62707,51.7283 0,-22.7604 c 0,-9.7553 0.17657,-19.5483 1.37943,-28.9679 l 132.42455,0 c 1.0903,12.9225 0.68861,25.3743 0.68861,34.4856 l 0,18.6222 -638.67259,0 z m 87.59333,-97.2492 c 30.81012,-16.5081 59.95743,-22.0709 86.90362,-22.0709 l 100.69783,0 c 25.1013,0 50.60141,8.2121 77.93737,22.0709 l -265.53882,0 z m 433.82836,0 c 10.21457,-13.3515 25.86384,-22.0709 50.34892,-22.0709 26.09492,0 42.02428,9.0983 51.72834,22.0709 l -102.07726,0 z" />
      <glyph
         glyph-name="v"
         id="glyph3606"
         unicode="v"
         d="m 293.31519,597.8594 c -20.90719,0 -35.60301,-7.55261 -46.21065,-19.31191 l 95.18015,0 c -10.39863,11.8531 -26.07307,19.31191 -48.9695,19.31191 z m 533.83654,0 c -22.89666,0 -38.57086,-7.45881 -48.9695,-19.31191 l 95.86987,0 c -10.61383,11.86613 -25.88636,19.31191 -46.90037,19.31191 z m -598.6694,-63.45345 c -0.83869,-6.16567 -1.37942,-12.79729 -1.37942,-19.31191 l 0,-33.79584 135.87312,0 0,15.17363 c 0,12.81208 -1.45005,25.54096 -3.44856,37.93412 l -131.04514,0 z m 532.45712,0 c -1.99742,-12.39316 -2.75886,-25.12204 -2.75886,-37.93412 l 0,-15.17363 135.87313,0 0,33.79584 c 0,6.51462 -1.22934,13.14624 -2.06803,19.31191 l -131.04513,0 z m -533.83654,-97.24929 0,-18.62219 c 0,-14.14603 1.56261,-23.98011 5.51769,-34.48556 l 148.97764,0 -18.62221,42.76209 0,10.34566 -135.87312,0 z m 531.07768,0 0,-10.34566 -18.62219,-42.76209 148.28792,0 c 3.95421,10.50545 6.2074,20.33953 6.2074,34.48556 l 0,18.62219 -135.87313,0 z m -505.55836,-97.24928 24.8296,-53.10776 146.90851,0 -23.45019,53.10776 -148.28792,0 z m 467.62425,0 -23.45018,-53.10776 146.2188,0 24.82959,53.10776 -147.59821,0 z m -422.79301,-97.24929 23.45017,-52.41806 145.52909,0 -23.4502,52.41806 -145.52906,0 z m 380.03091,0 -22.76046,-52.41806 144.83936,0 23.45018,52.41806 -145.52908,0 z m -336.57911,-96.55959 24.1399,-53.10776 143.45995,0 -23.45019,53.10776 -144.14966,0 z m 294.50672,0 -23.45019,-53.10776 143.45996,0 24.13989,53.10776 -144.14966,0 z M 385.7365,48.84921 409.87639,-4.2586 l 140.70112,0 -22.76047,53.10781 -142.08054,0 z m 206.91339,0 -22.76048,-53.10781 140.70111,0 24.1399,53.10781 -142.08053,0 z M 429.87803,-48.4001 445.05168,-82.1959 c 2.42205,-5.3826 5.71345,-12.4642 8.96625,-19.3119 l 212.43107,0 c 3.21263,6.8477 6.54398,13.9293 8.96625,19.3119 l 15.17364,33.7958 -260.71086,0 z m 50.34892,-97.2492 c 10.48229,-12.8589 22.84126,-22.0708 36.55471,-22.0708 l 87.59332,0 c 13.73839,0 26.19381,9.1747 36.55471,22.0708 l -160.70274,0 z" />
      <glyph
         glyph-name="w"
         id="glyph3613"
         unicode="w"
         d="m 294.00488,597.8594 c -22.81409,0 -38.15393,-7.36457 -48.27977,-19.31191 l 95.86986,0 c -10.07199,11.95417 -25.31184,19.31191 -47.59009,19.31191 z m 533.83657,0 c -22.27825,0 -37.51809,-7.35774 -47.59009,-19.31191 l 95.86986,0 C 865.9956,590.50166 850.66305,597.8594 827.84145,597.8594 z M 228.48231,534.40596 c -1.51404,-11.42646 -1.73476,-23.46077 -1.37941,-35.17527 l 0.6886,-17.9325 134.49371,0 -0.68862,17.9325 c -0.35533,11.7145 -0.86958,23.74881 -2.75883,35.17527 l -130.35545,0 z m 534.52626,0 c -1.88924,-11.42646 -3.09365,-23.46077 -3.44856,-35.17527 l -0.68859,-17.9325 134.49369,0 0.68861,17.9325 c 0.35534,11.7145 0.13235,23.74881 -1.37942,35.17527 l -129.66573,0 z m -533.83654,-97.24929 2.06802,-53.10778 135.18341,0 -2.06803,53.10778 -135.1834,0 z m 527.62914,0 -2.06803,-53.10778 135.18341,0 2.06803,53.10778 -135.18341,0 z m -524.18058,-97.2493 2.06803,-53.10777 135.87312,0 -2.75884,53.10777 -135.18342,0 z m 273.81539,0 c -8.67734,-14.60488 -12.11311,-33.53056 -13.10453,-53.10777 l 135.18343,0 c -0.99098,19.57898 -4.42651,38.50156 -13.10453,53.10777 l -108.97437,0 z m 246.91664,0 -2.75886,-53.10777 135.87314,0 2.06804,53.10777 -135.18342,0 z m -516.59376,-97.2493 1.37941,-52.41805 135.87314,0 -2.06804,52.41805 -135.18341,0 z m 255.88289,0 0,-52.41805 135.87313,0 0,52.41805 -135.87313,0 z m 256.5726,0 -2.06803,-52.41805 135.87312,0 1.37942,52.41805 -135.18341,0 z m -509.00694,-96.55957 0.68862,-25.51931 8.96625,-27.58847 144.14965,0 -17.93249,53.10778 -135.87314,0 z m 251.74462,0 -31.037,-53.10778 199.32657,0 -31.03702,53.10778 -137.25255,0 z m 253.12406,0 -17.9325,-53.10778 144.14966,0 8.96625,27.58847 0.6886,25.51931 -135.87312,0 z m -480.03907,-97.2493 17.9325,-53.1078 555.90729,0 17.9325,53.1078 -144.14966,0 -9.65596,-28.2782 -16.55307,28.2782 -251.05491,0 -16.55307,-28.2782 -9.65596,28.2782 -144.14966,0 z m 32.41643,-97.2493 11.03538,-32.4164 c 2.35914,-6.8413 4.03011,-13.8404 6.2074,-20.6914 l 187.60147,0 35.17528,53.1078 -240.01953,0 z m 286.9199,0 35.17528,-53.1078 187.60147,0 c 2.21634,6.872 4.53047,13.8285 6.89712,20.6914 l 10.34566,32.4164 -240.01953,0 z m -250.36519,-97.2493 c 9.35513,-13.3364 22.24203,-22.0707 43.4518,-22.0707 l 53.10777,0 c 15.01166,0 27.57389,10.2551 38.62384,22.0707 l -135.18341,0 z m 318.6466,0 c 11.04995,-11.8156 24.30191,-22.0707 39.31355,-22.0707 l 51.72834,0 c 21.20956,0 34.63632,8.7343 44.14152,22.0707 l -135.18341,0 z" />
      <glyph
         glyph-name="x"
         id="glyph3620"
         unicode="x"
         d="m 295.38439,597.8594 c -17.62438,0 -33.61488,-7.7177 -45.52093,-19.31191 l 91.04187,0 c -13.24511,11.25233 -27.98616,19.31191 -45.52094,19.31191 z m 531.07763,0 c -17.53477,0 -32.96555,-8.05958 -46.21066,-19.31191 l 91.0419,0 C 859.38718,590.1417 844.0864,597.8594 826.46202,597.8594 z M 227.79269,534.40597 c -0.39728,-3.1164 -0.68861,-6.46827 -0.68861,-9.65596 0,-16.90708 7.69518,-30.32478 17.24278,-43.4518 l 178.63521,0 -35.86499,43.4518 c -2.43064,3.00251 -5.08864,6.44401 -7.58682,9.65596 l -151.73646,0 z m 513.83486,0 c -2.4982,-3.21195 -5.15618,-6.65345 -7.58683,-9.65596 l -35.17527,-43.4518 177.9455,0 c 9.54735,13.12702 17.24277,26.54472 17.24277,43.4518 0,3.18769 -0.29575,6.53956 -0.6886,9.65596 l -151.73648,0 z m -461.4168,-97.24928 44.83122,-53.10777 177.25578,0 -43.45181,53.10777 -178.63519,0 z m 382.78971,0 -43.45181,-53.10777 176.56608,0 44.83123,53.10777 -177.9455,0 z m -300.71409,-97.24928 44.83124,-53.10777 306.92148,0 44.83123,53.10777 -175.18665,0 -22.76047,-27.58845 -22.76046,27.58845 -175.87637,0 z m 82.07565,-97.24928 24.13988,-28.27816 -20.69133,-24.1399 225.53557,0 -20.69135,24.1399 24.13991,28.27816 -232.43268,0 z m -33.79585,-96.55964 -44.83124,-53.10779 176.56608,0 18.62219,22.76048 18.62222,-22.76048 175.87634,0 -44.83121,53.10779 -300.02438,0 z M 328.49052,48.84933 283.65929,-4.2585 l 179.32492,0 43.45181,53.10783 -177.9455,0 z m 286.91986,0 43.45181,-53.10783 178.63522,0 -44.83124,53.10783 -177.25579,0 z M 247.10461,-48.4 c -11.09938,-14.5022 -20.00164,-29.4442 -20.00164,-48.2798 0,-1.6046 0.58929,-3.2461 0.68862,-4.828 l 155.87473,0 c 1.18741,1.4965 2.27506,3.3782 3.44856,4.828 l 39.31464,48.2798 -179.32491,0 z m 447.62257,0 39.31354,-48.2798 c 1.17417,-1.45 2.26071,-3.3319 3.44856,-4.828 l 155.87473,0 c 0.11037,1.5826 0.6886,3.2234 0.6886,4.828 0,18.8356 -8.90223,33.7776 -20.00162,48.2798 l -179.32492,0 z m -449.00199,-97.2493 c 12.25875,-13.5334 29.94339,-22.0708 49.6592,-22.0708 19.42183,0 35.38273,9.3278 49.65921,22.0708 l -99.31841,0 z m 530.38792,0 c 14.27647,-12.743 30.9273,-22.0708 50.34891,-22.0708 19.84007,0 37.38876,8.3891 49.65922,22.0708 l -100.00813,0 z" />
      <glyph
         glyph-name="y"
         id="glyph3627"
         unicode="y"
         d="m 292.39458,597.8594 c -23.01478,0 -38.02989,-7.5858 -48.28452,-19.31379 l 97.25879,0 c -10.25442,11.75669 -25.92774,19.31379 -48.97427,19.31379 z m 531.12954,0 c -23.01455,0 -38.02986,-7.5858 -48.2845,-19.31379 l 97.25879,0 C 862.24399,590.3023 846.57068,597.8594 823.52412,597.8594 z M 226.86561,534.39976 c -1.35748,-9.80963 -2.06824,-20.03162 -2.06824,-30.35025 l 0,-22.7627 135.88639,0 0,22.7627 c 0,10.30209 -0.71957,20.55496 -2.06824,30.35025 l -131.7477,0 z m 531.12954,0 c -1.35748,-9.80963 -2.06824,-20.03162 -2.06824,-30.35025 l 0,-22.7627 135.88639,0 0,22.7627 c 0,10.30209 -0.71957,20.55496 -2.06821,30.35025 l -131.74774,0 z M 224.79626,437.14098 c 0.63351,-18.65911 4.51856,-36.03999 10.34668,-53.11296 l 144.16373,0 -18.62402,41.38673 0,11.72623 -135.88639,0 z m 531.12956,0 0,-11.72623 -18.62403,-41.38673 146.23307,0 c 5.42972,17.00542 7.82463,33.49985 8.27734,53.11296 l -135.88638,0 z M 253.0772,339.88219 c 1.37734,-3.08026 2.70524,-5.76942 4.13865,-8.96712 l 20.00359,-44.14583 146.92285,0 -24.14226,53.11295 -146.92283,0 z m 464.22101,0 -24.14224,-53.11295 147.61262,0 24.14224,53.11295 -147.61262,0 z m -420.07518,-97.25879 23.45246,-52.42318 147.61263,0 -24.14224,52.42318 -146.92285,0 z m 375.92935,0 -23.45247,-52.42318 146.92286,0 24.14223,52.42318 -147.61262,0 z m -332.4733,-96.56901 24.14224,-53.11294 147.61264,0 -24.14225,53.11294 -147.61263,0 z m 289.01724,0 -24.14225,-53.11294 146.23308,0 24.14224,53.11294 -146.23307,0 z M 384.82491,48.79563 408.96717,-4.3174 l 297.98436,0 24.14226,53.11303 -145.5433,0 -11.72623,-25.52183 -29.66049,0 -11.72624,25.52183 -147.61262,0 z m 43.45605,-97.25883 c 10.68704,-24.5939 17.73074,-42.8121 32.4196,-53.113 l 201.41536,0 24.83202,53.113 -258.66698,0 z m 68.97787,-97.2588 -26.2116,-53.1129 146.23307,0 24.83205,53.1129 -144.85352,0 z m -47.59474,-97.2588 -25.5218,-52.4231 148.99218,0 24.14227,52.4231 -147.61265,0 z m -203.48468,-96.5689 c -12.98396,-10.3684 -21.38315,-26.1583 -21.38315,-50.3539 0,-0.9889 -0.022,-1.7968 0,-2.7591 l 303.50259,0 c 0.94032,1.9556 1.79013,3.4438 2.75912,5.5182 l 22.07292,47.5948 -306.95148,0 z m -2.75912,-97.2589 c 19.2277,-17.5579 49.33407,-20.6933 74.49609,-20.6933 l 105.53612,0 c 39.53283,0 60.59723,2.5024 77.945,20.6933 l -257.97721,0 z" />
      <glyph
         glyph-name="z"
         id="glyph3634"
         unicode="z"
         d="m 358.83722,597.8594 c -27.1199,0 -55.55806,-3.94007 -73.7991,-19.31192 l 590.3928,0 c -14.22418,12.71893 -37.72401,19.31192 -73.7991,19.31192 l -442.7946,0 z M 265.7262,534.40597 c -0.11047,-1.8429 -0.6886,-3.56951 -0.6886,-5.51769 0,-22.36385 7.75101,-37.39361 19.31192,-47.59008 l 609.70469,0 0,44.83123 c 0,2.89745 -0.52087,5.55985 -0.6886,8.27654 l -627.63721,0 z m 431.06951,-97.24928 -55.1769,-53.10776 191.73972,0 20.69132,20.00162 c 12.79575,12.21417 21.48789,23.00015 27.58847,33.10614 l -184.84261,0 z m -101.38756,-97.24929 -55.8666,-53.10776 191.73972,0 55.86661,53.10776 -191.73973,0 z m -102.07726,-97.24918 -54.48718,-52.41821 191.05,0 55.17691,52.41821 -191.73973,0 z m -100.69784,-96.55969 -55.8666,-53.10774 191.73973,0 55.17688,53.10774 -191.05001,0 z M 290.55579,48.84931 252.62168,12.2946 C 246.01016,6.0721 241.09876,0.7605 237.44804,-4.2584 l 188.98088,0 55.8666,53.10771 -191.73973,0 z M 227.10237,-48.3999 c -0.0112,-1.5229 0,-2.5053 0,-4.1385 l 0,-35.865 c 0,-4.2919 -0.23173,-8.8723 0,-13.1045 l 666.95074,0 c 0.007,0.4879 0,0.8852 0,1.3795 0,25.4702 -9.96429,41.5746 -24.13989,51.7285 l -642.81085,0 z m 17.24279,-97.2495 c 13.84587,-13.2656 38.17048,-22.0707 82.76534,-22.0707 l 473.1419,0 c 25.78062,0 57.45371,3.3544 76.55794,22.0707 l -632.46518,0 z" />
      <glyph
         glyph-name="@"
         id="glyph3665"
         unicode="@"
         d="m 299.40186,892.3736 c -8.22719,-5.54121 -16.71731,-11.50252 -24.98537,-18.56057 -11.33463,-9.44543 -23.74931,-22.05338 -35.6934,-36.40724 l 595.36573,0 c -18.20101,21.04003 -40.44535,39.63917 -67.10357,54.96781 l -467.58339,0 z M 207.31291,791.71825 c -9.72894,-18.48382 -15.5413,-37.43044 -15.7051,-54.96782 l 147.77063,0 c 1.14677,2.17472 2.40019,4.26652 3.56936,6.42479 19.84048,36.37437 50.42304,45.98384 84.95026,48.54303 l -220.58515,0 z m 429.7484,0 c 38.40244,-2.9994 71.84914,-14.25702 95.65829,-49.97075 1.12392,-1.68359 1.85491,-3.31714 2.85546,-4.99707 l 149.19838,0 c -4.73118,19.48116 -11.32663,37.98803 -19.98831,54.96782 l -227.72382,0 z M 210.16838,691.06288 c 12.96543,-13.39215 31.00037,-21.41603 51.39847,-21.41603 22.21009,0 36.8244,8.60434 48.54303,21.41603 l -99.9415,0 z m 541.11178,0 c 2.04451,-17.22124 1.56708,-35.57802 1.42773,-54.96781 l 141.34583,0 0,24.98537 c 0,10.29135 -0.60766,20.19114 -1.42774,29.98244 l -141.34582,0 z m 1.42773,-100.65535 0,-54.25395 141.34583,0 0,54.25395 -141.34583,0 z m -399.0521,-99.94149 c -39.76961,-9.14939 -72.3309,-28.60359 -97.79986,-54.96782 l 353.36453,0 c -5.31392,30.65269 -18.67818,47.44446 -44.25979,54.96782 l -211.30488,0 z m 399.0521,0 0,-54.96782 141.34583,0 0,54.96782 -141.34583,0 z M 222.30413,389.81069 c -9.07537,-16.82628 -16.31821,-35.54972 -21.41603,-54.96783 l 152.76769,0 c 13.34329,15.18311 31.57878,19.9883 50.68463,19.9883 l 67.81744,0 0,-19.9883 140.63196,0 0,54.96783 -390.48569,0 z m 530.40376,0 0,-54.96783 141.34583,0 0,54.96783 -141.34583,0 z M 193.03556,289.15533 c -0.96173,-10.07044 -1.42775,-20.28779 -1.42775,-30.69631 l 0,-24.27152 140.63195,0 0,18.56057 c 0,14.2689 1.01656,25.67777 2.85548,36.40726 l -142.05968,0 z m 279.1223,0 0,-54.96783 140.63196,0 0,54.96783 -140.63196,0 z m 280.55003,0 0,-54.96783 141.34583,0 0,54.96783 -141.34583,0 z m -561.10008,-100.65536 0,-54.96782 140.63195,0 0,54.96782 -140.63195,0 z m 280.55005,0 0,-54.96782 140.63196,0 0,54.96782 -140.63196,0 z m 280.55003,0 0,-54.96782 141.34583,0 0,54.96782 -141.34583,0 z M 191.60781,87.84465 l 0,-54.25413 140.63195,0 c -0.24214,6.35395 0,12.72299 0,18.56072 l 0,35.69341 -140.63195,0 z m 280.55005,0 0,-42.83206 c 0,-2.32061 -0.11423,-7.75318 0,-11.42207 l 140.63196,0 c -0.11424,4.40942 0,8.65268 0,12.84969 l 0,41.40444 -140.63196,0 z m 280.55003,0 0,-24.98529 c 0,-9.03845 0.0165,-19.25971 0,-29.26884 l 141.34583,0 c 9.1e-4,3.48583 0,6.38677 0,9.99431 l 0,44.25982 -141.34583,0 z M 194.46329,-12.0969 c 2.87854,-18.9521 7.88155,-37.5281 14.27736,-54.9678 l 181.32242,0 c -30.16932,5.3774 -44.3882,28.1919 -51.39849,54.9678 l -144.20129,0 z m 274.12522,0 c -5.15057,-25.3408 -17.84646,-49.6981 -50.6846,-54.9678 l 250.5676,0 c -30.25224,5.6232 -44.32583,28.162 -50.68462,54.9678 l -149.19838,0 z m 280.55005,0 c -5.23899,-26.9862 -18.16651,-49.3116 -49.25688,-54.9678 l 183.46402,0 c 5.71757,17.5302 8.12142,35.6999 9.28028,54.9678 l -143.48742,0 z M 230.87055,-112.7523 c 13.1548,-21.1457 29.18862,-39.8673 48.54301,-54.9678 l 241.28732,0 c 7.5012,5.5493 14.76278,11.4596 21.41603,17.8468 6.24433,-6.4944 13.45931,-12.3829 20.70215,-17.8468 l 242.00118,0 c 16.66225,11.8875 31.89811,25.4762 44.25981,40.6906 3.88252,4.7591 6.75923,9.6425 9.99414,14.2772 l -628.20364,0 z" />
      <glyph
         glyph-name="&amp;"
         id="glyph3672"
         unicode="&amp;"
         d="m 222.23918,892.3736 c -32.59136,-13.72899 -60.19042,-34.13808 -81.2424,-60.73461 l 548.18897,0 c -21.48434,26.79012 -49.57206,47.1861 -82.81992,60.73461 l -384.12665,0 z M 111.81263,781.15829 C 104.33466,762.67478 98.6624,741.94891 96.037406,720.42368 l 164.851064,0 c 6.39869,18.5075 21.61255,29.18416 60.73461,29.18416 l 180.62629,0 c 43.47197,0 60.28079,-9.82102 67.04469,-29.18416 l 164.85107,0 c -2.56695,22.0477 -8.28566,42.17487 -15.77523,60.73461 l -606.55727,0 z m -17.352752,-111.21532 0,-59.94584 162.484782,0 0,37.07177 c 0,8.50524 -0.62343,15.28354 -0.78749,22.87407 l -161.696022,0 z m 478.777992,0 c -0.10104,-7.68241 0,-13.99275 0,-22.87407 l 0,-37.07177 162.48478,0 0,59.94584 -162.48478,0 z M 94.459878,559.51642 c 0.537625,-24.58083 3.861781,-38.03647 23.662832,-60.73461 l 221.64188,0 -55.21329,60.73461 -190.091422,0 z m 443.283742,0 -70.98849,-60.73461 246.88222,0 c 15.46173,15.79768 21.00754,29.56125 22.0853,60.73461 l -197.97903,0 z m -373.08399,-111.21531 56.79078,-60.73461 363.61888,0 70.98849,60.73461 -248.45975,0 -12.62017,-11.04267 -10.2539,11.04267 -220.06433,0 z m 103.3277,-111.21532 3.15504,-3.15505 -64.67841,-57.57956 339.16727,0 -40.22682,42.5931 21.29656,18.14151 -258.71364,0 z M 148.8844,225.87048 l -8.67637,-7.88761 c -27.18438,-23.30065 -38.04783,-35.07072 -42.593111,-52.847 l 227.951961,0 56.7908,49.69194 46.5369,-49.69194 222.43063,0 -57.57955,60.73461 -444.86126,0 z m 665.71436,-0.78751 c -37.31534,0 -73.69325,-36.81735 -100.96141,-59.94585 l 179.04875,0 c -10.45681,34.13481 -41.14454,59.94585 -78.08734,59.94585 z M 94.459878,114.65636 l 0,-59.94571 162.484782,0 0,49.6918 11.83142,10.25391 -174.316202,0 z m 380.971602,0 56.00204,-59.94571 305.25056,0 18.1415,15.77513 c 14.5132,12.28047 28.68769,26.77242 36.28301,44.17058 l -415.67711,0 z M 94.459878,4.2298 c 0.514907,-20.9439 3.262829,-41.518 7.887612,-60.7345 l 754.05562,0 c -11.08708,12.6751 -22.23651,23.814 -30.7617,32.3391 l -26.81787,28.3954 -268.17876,0 -64.67842,-55.2131 -130.93434,0 c -78.68732,0 -78.70725,20.8008 -78.08736,55.2131 l -162.484782,0 z m 26.817872,-111.2152 c 10.18626,-18.8232 23.27389,-36.2142 41.01558,-52.8471 3.0821,-2.8696 6.32575,-5.307 9.46514,-7.8876 l 406.21197,0 71.77726,60.7347 -528.46995,0 z m 560.80914,0 58.36833,-60.7347 149.07584,0 c 4.48194,10.5887 7.09885,22.7736 7.09885,35.493 0,8.1179 -2.5841,16.5481 -6.31008,25.2403 l -208.23294,0 z" />
    </font>
</defs>
</svg>
