<svg xmlns="http://www.w3.org/2000/svg">
<defs>
<font
       vert-adv-y="90"
       vert-origin-y="90"
       vert-origin-x="45"
       horiz-origin-y="0"
       horiz-origin-x="0"
       horiz-adv-x="800"
       id="ocramedium">
      <font-face
         id="font-face9"
         descent="-410"
         ascent="1638"
         units-per-em="2048" />
      <missing-glyph
         id="missing-glyph11"
         horiz-adv-x="500"
         d="M0,0h1000v1024h-1000z" />
      <glyph
         id="glyph13"
         horiz-adv-x="861" />
      <glyph
         id="glyph15"
         horiz-adv-x="861" />
      <glyph
         id="glyph17"
         horiz-adv-x="861"
         unicode=" " />
      <glyph
         id="glyph19"
         unicode=" " />
      <glyph
         id="glyph21"
         d="M495 215l55 3q53 0 69 -9q24 -11 35 -35q7 -16 7 -66q0 -49 -7 -65q-11 -24 -35 -35q-16 -8 -68 -8l-60 3q-3 0 -7 2q-14 4 -27 18q-14 14 -19 26q-5 14 -5 59t5 60q4 14 19 27q16 16 38 20zM498 1180h52q53 0 69 -6q24 -11 35 -35q6 -14 7 -29l-19 -299 q-20 -289 -19 -293q-3 -27 -24 -47q-12 -11 -29 -17l-24 -3q-14 0 -22 3q-46 16 -53 64l-38 592q1 14 8 29t21 26q15 12 36 15z"
         unicode="!" />
      <glyph
         id="glyph23"
         d="M171 1139v43h377h377v-56v-54l-5 -21l-3 -22h-4h-3l-30 -160q-32 -160 -34 -168q-9 -41 -55 -56h-35h-2q-43 11 -54 55q-2 4 -34 166l-32 163h-88h-86l-32 -163q-32 -162 -33 -166q-11 -42 -55 -55q-6 -1 -17 -1q-16 0 -29 4q-33 13 -45 45q-2 8 -30 157l-39 196l-9 50 v43z"
         unicode="&quot;" />
      <glyph
         id="glyph25"
         d="M384 1180l33 -1q5 -2 14 -5q23 -11 34 -35q8 -16 8 -67v-49v-98h75h74v93q0 101 4 115q5 12 18 25q12 14 27 19q21 6 40 3q9 -1 21 -6q22 -11 33 -35q8 -16 8 -67v-49v-98h41q40 0 47 -1q49 -10 61 -58q2 -8 2 -18q0 -49 -46 -70q-8 -3 -17 -5q-6 -2 -47 -2h-41v-84v-83 h41q40 0 47 -2q49 -9 61 -58q2 -7 2 -17q0 -49 -46 -70q-8 -3 -17 -5q-6 -1 -47 -1h-41v-95q0 -92 -2 -100q-7 -48 -55 -61q-9 -2 -19 -2q-48 0 -69 45q-3 8 -6 18v100v95h-76h-73v-95v-100q-10 -48 -58 -61q-9 -2 -19 -2q-49 0 -70 46q-3 8 -5 17v100v95h-45q-43 0 -49 3 q-53 16 -56 73q0 53 56 74q6 1 49 3h45v83v84h-45q-43 0 -49 4q-53 22 -56 73q0 54 56 74q6 3 49 3h45v93q0 101 5 115q5 12 17 25q18 17 41 22zM622 687v84h-76h-73v-84v-83h73h76v83z"
         unicode="#" />
      <glyph
         id="glyph27"
         d="M534 1180l33 -1q5 -2 14 -5q23 -11 34 -35q7 -16 8 -67v-49v-98h116q115 0 122 -1q49 -10 61 -58q2 -8 2 -18q0 -49 -46 -70q-8 -3 -17 -5q-6 -2 -271 -2h-267v-50v-53h270q268 0 274 -2q18 -6 29 -15q13 -10 21 -26q7 -14 8 -69v-94q0 -147 -8 -162q-11 -24 -36 -35 q-15 -8 -67 -8h-71h-120v-97q0 -102 -8 -117q-11 -24 -34 -35q-23 -10 -43 -8q-8 2 -17 5q-14 4 -27 18t-18 26q-5 14 -5 114v94h-119h-119l-6 2q-53 18 -56 75q0 54 56 73l6 2h270l268 1v52v52h-265q-273 0 -285 5q-14 7 -28 19q-17 18 -22 40v283q5 24 22 40q13 14 28 19 q14 5 135 5h115v93q0 101 5 115q4 12 18 25q17 17 40 22z"
         unicode="$" />
      <glyph
         id="glyph29"
         d="M684 281h92q90 0 105 -8q25 -11 36 -34q8 -15 8 -68q0 1 0 -31q0 -81 -8 -97q-11 -24 -36 -35q-15 -8 -67 -8h-36q-92 0 -107 5q-14 4 -27 18t-18 26q-4 14 -4 91q0 78 4 92q5 14 18 27q17 17 40 22zM834 1051q3 2 14 2l27 -5l6 -4q10 -4 20 -14q9 -9 15 -19q8 -18 8 -35 l-5 -29q-2 -5 -7 -11q-3 -5 -304 -392q-300 -385 -309 -393q-10 -8 -18 -14q-18 -8 -38 -8q-29 2 -50 23q-9 9 -14 19q-10 18 -8 36q0 22 9 36q3 6 304 391t310 396q9 10 17 13q12 7 23 8zM233 1180l91 2q92 -1 107 -8q23 -11 34 -35q8 -16 8 -69q0 2 0 -29q0 -82 -8 -99 q-11 -24 -34 -35q-15 -6 -65 -8h-38q-92 0 -107 5q-14 5 -28 20q-17 17 -22 39v156q5 22 22 39q18 17 40 22z"
         unicode="%" />
      <glyph
         id="glyph31"
         d="M370 1051q13 2 101 2l102 -2q37 -4 72 -22q70 -34 106 -104q18 -37 20 -77l2 -78v-66l-2 -6q-6 -16 -14 -27q-4 -5 -100 -86q-96 -83 -98 -85q-1 -2 38 -44l40 -44q81 -87 84 -86l39 34q47 39 60 44q15 6 35 5h8q46 -10 59 -56q2 -9 2 -19q0 -27 -17 -48q-5 -6 -44 -40 l-39 -32l4 -3q3 -4 41 -45t41 -44q21 -31 10 -67q-4 -20 -21 -34q-27 -26 -65 -19l-20 6q-12 6 -61 58q-43 47 -46 47l-55 -47q-55 -46 -59 -52q-11 -8 -26 -12q-6 -2 -93 -2l-99 2q-113 12 -172 110q-26 42 -31 92q-1 13 -1 77q0 62 1 71q5 21 21 36q7 7 75 64q67 60 67 59 l-73 80q-73 78 -76 83q-10 11 -14 27q-1 8 -1 72q0 78 6 105q21 87 96 138q43 28 97 35zM564 898q-5 1 -90 1h-87q-46 -7 -61 -54q-2 -8 -2 -51l-1 -44l64 -70q64 -68 65 -68l85 70l85 72l-2 42q0 46 -8 62q-15 30 -48 40zM523 313q-80 86 -82 86l-60 -51l-58 -49l1 -42 q0 -46 7 -60q15 -31 47 -42q8 -1 74 -1h67l40 33q40 35 42 37l3 1z"
         unicode="&amp;" />
      <glyph
         id="glyph33"
         d="M459 1180l91 2q91 -1 107 -8q22 -11 33 -35q5 -8 7 -14l1 -31l-157 -533q-9 -26 -36 -38q-20 -10 -42 -7l-22 5q-32 14 -43 49l-2 8v265v274q3 14 10 26q11 18 27 28q12 6 26 9z"
         unicode="'" />
      <glyph
         id="glyph35"
         d="M684 1180l32 -1h2q39 -11 52 -50l3 -24q0 -14 -3 -24q-3 -9 -8 -16t-94 -123q-90 -114 -95 -121q-18 -25 -22 -57q-1 -10 -1 -173t1 -172q5 -32 22 -58q5 -8 95 -123q89 -115 94 -121t8 -16t3 -25l-3 -23q-18 -49 -69 -53q-21 -2 -40 9l-19 15l-190 244q-42 60 -54 136 l-2 15v172v171l2 16q11 76 54 135l190 245q18 17 42 22z"
         unicode="(" />
      <glyph
         id="glyph37"
         d="M387 1180q15 3 32 -3q9 -2 17 -6q12 -8 112 -136q91 -115 96 -123q41 -59 53 -134l1 -16v-171v-172l-1 -15q-11 -75 -53 -134q-5 -8 -96 -125q-100 -126 -112 -134q-19 -11 -44 -11q-14 2 -29 8q-29 14 -40 48q-2 6 -2 20q0 13 2 22q5 14 47 70l93 118q55 70 58 75 q18 26 22 58q1 9 1 172t-1 173q-5 32 -22 56q-3 6 -58 76l-93 118q-42 55 -47 71q-2 6 -2 20q0 13 2 21q5 14 14 28q19 23 50 26z"
         unicode=")" />
      <glyph
         id="glyph39"
         d="M529 1051l21 2q18 -2 31 -9q29 -14 41 -47l1 -6v-117l2 -117l87 75q90 77 93 78q21 16 53 14q49 -7 64 -55l2 -21l-5 -28l-3 -7q-5 -8 -14 -17q-9 -10 -123 -107l-113 -98q0 -1 113 -99q113 -96 123 -105q8 -9 14 -18q8 -18 8 -35q0 -18 -8 -34q-18 -36 -58 -43 q-18 -1 -35 5q-9 3 -18 8q-3 3 -93 78l-87 77l-2 -117v-116l-1 -6q-11 -34 -41 -49q-14 -8 -31 -8l-20 2q-42 9 -57 55l-2 6v116l-1 117l-90 -77q-90 -77 -94 -80q-18 -11 -40 -11q-11 0 -21 4q-24 7 -39 27q-14 21 -15 46q0 32 24 54q6 7 119 104q113 98 114 99l-114 98 q-113 97 -119 103q-24 25 -24 56q0 26 15 47q15 19 39 27q10 2 21 3l30 -6q5 -2 10 -6q5 -3 94 -79l90 -77l1 117v117l2 6q15 44 56 54z"
         unicode="*" />
      <glyph
         id="glyph41"
         d="M534 966h33q5 -1 14 -6q23 -11 34 -35q7 -14 8 -67v-72v-118h116q115 0 122 -2q49 -9 61 -56q2 -9 2 -19q0 -49 -46 -68q-8 -5 -17 -7q-6 -1 -122 -2h-116v-118q0 -125 -8 -139q-11 -24 -34 -35t-43 -8q-8 1 -17 5q-14 5 -27 17q-13 13 -18 28q-5 14 -5 135v115h-119 l-119 2l-6 2q-53 16 -56 73q0 55 56 74l6 3h119h119v115q0 122 5 136q4 12 18 26q17 17 40 21z"
         unicode="+" />
      <glyph
         id="glyph43"
         d="M387 538h163q166 0 182 -8q22 -11 33 -33q8 -16 8 -69v-158q0 -212 -8 -227q-11 -24 -33 -35q-23 -10 -43 -8q-8 2 -18 5q-14 4 -27 18t-18 26q-4 14 -4 180v158h-120q-124 0 -139 8q-29 14 -40 47l-2 32q2 5 2 8q5 16 14 27q19 25 50 29z"
         unicode="," />
      <glyph
         id="glyph45"
         d="M233 666l318 2q310 0 316 -2q18 -6 29 -15q13 -10 21 -26t8 -66q0 -49 -8 -65t-21 -26q-11 -9 -29 -16q-6 -1 -314 -1l-317 1q-15 2 -29 10q-15 9 -27 27q-3 5 -4 11q-5 14 -5 59t5 60q4 12 17 26q18 16 40 21z"
         unicode="-" />
      <glyph
         id="glyph47"
         d="M459 473l91 1q91 0 107 -8q22 -10 33 -35q8 -15 8 -68q0 1 0 -29q0 -83 -8 -99q-11 -23 -33 -34q-16 -8 -69 -8h-37q-89 -1 -106 4q-14 6 -26 18q-18 18 -23 41v154q5 24 23 42q17 16 40 21z"
         unicode="." />
      <glyph
         id="glyph49"
         d="M835 1180q16 3 34 -1q9 -4 19 -8q20 -13 29 -34q10 -21 7 -43l-7 -19l-606 -1037q-22 -38 -68 -38q-52 3 -69 53q-2 3 -2 6q-3 14 -1 31q1 9 5 17l607 1036q17 31 52 37z"
         unicode="/" />
      <glyph
         id="glyph51"
         d="m 4.15625,833.9375 c -0.7265006,-0.65182 -1.3142054,-1.45855 -1.6875,-2.375 l 30.84375,0 c -0.3745,0.91941 -0.957698,1.72212 -1.6875,2.375 l -27.46875,0 z m -2.125,-4.375 C 2.022671,829.42745 2,829.29335 2,829.15625 l 0,-2 6.4375,0 0,2 18.90625,0 0,-2 6.4375,0 0,2 c 0,0.1371 -0.02267,0.2712 -0.03125,0.40625 l -31.71875,0 z M 2,825.15625 2,822.75 l 6.4375,0 0,2.40625 -6.4375,0 z m 25.34375,0 0,-2.40625 6.4375,0 0,2.40625 -6.4375,0 z M 2,820.75 l 0,-2.40625 6.4375,0 0,2.40625 -6.4375,0 z m 25.34375,0 0,-2.40625 6.4375,0 0,2.40625 -6.4375,0 z M 2,816.34375 l 0,-2.40625 6.4375,0 0,2.40625 -6.4375,0 z m 25.34375,0 0,-2.40625 6.4375,0 0,2.40625 -6.4375,0 z M 2,811.9375 l 0,-2.375 6.4375,0 0,2.375 -6.4375,0 z m 25.34375,0 0,-2.375 6.4375,0 0,2.375 -6.4375,0 z M 2,807.5625 l 0,-2.40625 6.4375,0 0,2.40625 -6.4375,0 z m 25.34375,0 0,-2.40625 6.4375,0 0,2.40625 -6.4375,0 z M 2,803.15625 2,800.75 l 6.4375,0 0,2.40625 -6.4375,0 z m 25.34375,0 0,-2.40625 6.4375,0 0,2.40625 -6.4375,0 z M 2,798.75 l 0,-2.40625 6.4375,0 0,2.40625 -6.4375,0 z m 25.34375,0 0,-2.40625 6.4375,0 0,2.40625 -6.4375,0 z M 2,794.34375 l 0,-2.375 c 0,-0.0102 -4.45e-5,-0.0211 0,-0.0312 l 31.78125,0 c 4.5e-5,0.0102 0,0.0211 0,0.0312 l 0,2.375 -6.4375,0 0,-2.375 -18.90625,0 0,2.375 -6.4375,0 z m 0.3125,-4.40625 c 0.2854396,-0.89765 0.7549637,-1.70788 1.375,-2.375 l 28.40625,0 c 0.619677,0.66673 1.089508,1.47798 1.375,2.375 l -31.15625,0 z"
         unicode="0" />
      <glyph
         id="glyph53"
         d="m 48.65625,833.9375 c -0.188081,-0.42246 -0.28125,-0.95073 -0.28125,-1.5625 0,-0.30176 0.01358,-0.5571 0.0625,-0.8125 l 19.03125,0 0,2.375 -18.8125,0 z m 1.15625,-4.375 c 0.514235,-0.28378 1.122728,-0.40625 1.75,-0.40625 l 9.46875,0 0,-2 6.4375,0 0,2.40625 -17.65625,0 z m 11.21875,-4.40625 0,-2.40625 6.4375,0 0,2.40625 -6.4375,0 z m 0,-4.40625 0,-2.40625 6.4375,0 0,2.40625 -6.4375,0 z m 0,-4.40625 0,-2.40625 6.4375,0 0,2.40625 -6.4375,0 z m 0,-4.40625 0,-2.375 6.4375,0 0,2.375 -6.4375,0 z m 0,-4.375 0,-2.40625 6.4375,0 0,2.40625 -6.4375,0 z m 13.71875,0 c -0.683392,-0.5411 -0.998117,-1.39 -1.03125,-2.40625 l 6.4375,0 c -0.03433,1.01625 -0.339422,1.86515 -1.03125,2.40625 l -4.375,0 z m -13.71875,-4.40625 0,-2.40625 6.4375,0 0,2.40625 -6.4375,0 z m 12.6875,0 0,-2.40625 6.4375,0 0,2.40625 -6.4375,0 z m -12.6875,-4.40625 0,-2.40625 6.4375,0 0,2.40625 -6.4375,0 z m 12.6875,0 0,-2.40625 6.4375,0 0,2.40625 -6.4375,0 z m -12.6875,-4.40625 0,-2.375 -9.46875,0 c -0.109987,0 -0.204129,-0.0235 -0.3125,-0.0312 l 28.90625,0 0,2.40625 -6.4375,0 0,-2.375 -6.25,0 0,2.375 -6.4375,0 z m -12.5,-4.40625 c -0.106944,-0.348 -0.15625,-0.73412 -0.15625,-1.1875 0,-0.4621 0.07661,-0.8348 0.1875,-1.1875 l 31.40625,0 c 0.111948,0.35161 0.1875,0.72743 0.1875,1.1875 l 0,1.1875 -31.625,0 z"
         unicode="1" />
      <glyph
         id="glyph55"
         d="m 95.03125,833.9375 c -0.188081,-0.42246 -0.3125,-0.95073 -0.3125,-1.5625 0,-0.30176 0.04483,-0.5571 0.09375,-0.8125 l 31.21875,0 c -0.29599,0.78577 -0.75928,1.53317 -1.53125,2.25 -0.0518,0.0477 -0.10467,0.0797 -0.15625,0.125 l -29.3125,0 z m 1.15625,-4.375 c 0.514236,-0.28378 1.122726,-0.40625 1.75,-0.40625 l 22.15625,0 0,-2 6.4375,0 0,0.90625 c 0,0.53455 -0.0232,1.01894 -0.0625,1.5 l -30.28125,0 z m 23.90625,-4.40625 0,-2.40625 6.4375,0 0,2.40625 -6.4375,0 z m 0,-4.40625 0,-2.40625 6.4375,0 0,2.40625 -6.4375,0 z m 0,-4.40625 0,-2.40625 6.40625,0 c 0.0133,0.31629 0.0312,0.63015 0.0312,0.96875 l 0,1.4375 -6.4375,0 z m -23.5625,-4.40625 c -0.616574,-0.63088 -1.07702,-1.42794 -1.375,-2.375 l 29.75,0 c 0.69135,0.75292 1.08633,1.53086 1.3125,2.375 l -29.6875,0 z m -1.75,-4.375 c -0.02842,-0.34132 -0.0625,-0.6935 -0.0625,-1.0625 l 0,-1.34375 6.46875,0 0,2.1875 18.125,0 c 0.84923,0 1.58781,0.0644 2.28125,0.21875 l -26.8125,0 z m -0.0625,-4.40625 0,-2.40625 6.46875,0 0,2.40625 -6.46875,0 z m 0,-4.40625 0,-2.40625 6.46875,0 0,2.40625 -6.46875,0 z m 0,-4.40625 0,-2.40625 28.875,0 c -0.10333,0.007 -0.20795,0.0312 -0.3125,0.0312 l -22.09375,0 0,2.375 -6.46875,0 z m 0,-4.40625 0,-2.375 31.625,0 c 0.11195,0.35161 0.1875,0.72743 0.1875,1.1875 0,0.45494 -0.0779,0.83866 -0.1875,1.1875 l -31.625,0 z"
         unicode="2" />
      <glyph
         id="glyph57"
         d="m 141.40625,833.9375 c -0.18808,-0.42246 -0.3125,-0.95073 -0.3125,-1.5625 0,-0.30146 0.0137,-0.55731 0.0625,-0.8125 l 31.3125,0 c -0.35084,0.92644 -0.91754,1.72743 -1.625,2.375 l -29.4375,0 z m 1.15625,-4.375 c 0.51424,-0.28378 1.12273,-0.40625 1.75,-0.40625 l 22.125,0 0,-2 6.46875,0 0,2 c 0,0.13563 -0.0239,0.27316 -0.0312,0.40625 l -30.3125,0 z m 23.875,-4.40625 0,-2.40625 6.46875,0 0,2.40625 -6.46875,0 z m 0,-4.40625 0,-2.28125 c 0,-0.0461 4.6e-4,-0.0797 0,-0.125 l 6.46875,0 0,2.40625 -6.46875,0 z m -0.1875,-4.40625 c -0.35026,-1.45078 -1.12143,-2.14659 -2.0625,-2.40625 l 8.34375,0 c 0.21061,0.74199 0.31951,1.52759 0.34375,2.40625 l -6.625,0 z m -18.59375,-4.40625 c -0.14767,-0.39311 -0.25,-0.83734 -0.25,-1.375 0,-0.37223 0.0517,-0.6993 0.125,-1 l 23.78125,0 c -0.27029,0.33357 -0.57589,0.67339 -0.9375,1 0.4986,0.45035 0.92091,0.90554 1.25,1.375 l -23.96875,0 z m 1.6875,-4.375 c 0.39776,-0.13496 0.8377,-0.21875 1.28125,-0.21875 l 12.625,0 c 1.28199,0 2.35871,-0.56496 2.875,-2.1875 l 6.75,0 c -0.0447,0.87622 -0.18488,1.66867 -0.4375,2.40625 l -23.09375,0 z m 17.0625,-4.40625 c 0.007,-0.17192 0.0312,-0.31514 0.0312,-0.5 l 0,-1.90625 6.46875,0 0,2.40625 -6.5,0 z m 0.0312,-4.40625 0,-2.40625 6.46875,0 0,2.40625 -6.46875,0 z m 0,-4.40625 0,-2.375 -22.125,0 c -0.10455,0 -0.2094,-0.0242 -0.3125,-0.0312 l 28.90625,0 c 4e-5,0.0104 0,0.0208 0,0.0312 l 0,2.375 -6.46875,0 z M 141.2812,789.9375 c -0.10765,-0.34884 -0.1875,-0.73256 -0.1875,-1.1875 0,-0.46007 0.0775,-0.83589 0.1875,-1.1875 l 29.9375,0 c 0.61758,0.66621 1.09327,1.46879 1.375,2.375 l -31.3125,0 z"
         unicode="3" />
      <glyph
         id="glyph59"
         d="m 191,833.9375 c -0.20876,-0.47553 -0.34375,-1.02511 -0.34375,-1.5625 l 0,-0.8125 6.46875,0 0,0.8125 c 0,0.53739 -0.10841,1.08697 -0.3125,1.5625 l -5.8125,0 z m -0.34375,-4.375 0,-2.40625 6.46875,0 0,2.40625 -6.46875,0 z m 20.125,0 c -0.79854,-0.56108 -1.11375,-1.45572 -1.15625,-2.40625 l 6.40625,0 c -0.0425,0.95053 -0.38896,1.84517 -1.1875,2.40625 l -4.0625,0 z m -20.125,-4.40625 0,-2.40625 6.46875,0 0,2.40625 -6.46875,0 z m 18.96875,0 0,-2.40625 6.40625,0 0,2.40625 -6.40625,0 z m -18.96875,-4.40625 0,-2.40625 6.46875,0 0,2.40625 -6.46875,0 z m 18.96875,0 0,-2.40625 6.40625,0 0,2.40625 -6.40625,0 z m -18.96875,-4.40625 0,-2.40625 6.46875,0 0,2.40625 -6.46875,0 z m 18.96875,0 0,-2.40625 6.40625,0 0,2.40625 -6.40625,0 z m -18.96875,-4.40625 0,-2.375 6.46875,0 0,2.375 -6.46875,0 z m 18.96875,0 0,-2.375 6.40625,0 0,2.375 -6.40625,0 z m -18.96875,-4.375 0,-2.40625 28.59375,0 c -0.0146,1.12283 -0.3804,1.89678 -0.96875,2.40625 l -27.625,0 z m 0,-4.40625 0,-1.28125 18.96875,0 0,-1.125 6.40625,0 0,1.125 c 1.08195,0 2.12191,0.39203 2.71875,1.28125 l -28.09375,0 z M 209.625,798.75 l 0,-2.40625 6.40625,0 0,2.40625 -6.40625,0 z m 0,-4.40625 0,-2.40625 6.40625,0 0,2.40625 -6.40625,0 z m 0,-4.40625 0,-1.1875 c 0,-0.44148 0.038,-0.8323 0.125,-1.1875 l 6.125,0 c 0.087,0.3552 0.15625,0.74602 0.15625,1.1875 l 0,1.1875 -6.40625,0 z"
         unicode="4" />
      <glyph
         id="glyph61"
         d="m 240.21875,833.9375 0,-2.375 25.34375,0 c 0.0498,0.25519 0.0625,0.51104 0.0625,0.8125 0,0.61177 -0.12119,1.14004 -0.3125,1.5625 l -25.09375,0 z m 0,-4.375 0,-2.40625 6.4375,0 0,2 15.71875,0 c 0.62727,0 1.26149,0.12247 1.78125,0.40625 l -23.9375,0 z m 0,-4.40625 0,-2.40625 6.4375,0 0,2.40625 -6.4375,0 z m 0,-4.40625 0,-2.40625 6.4375,0 0,2.40625 -6.4375,0 z m 0,-4.40625 0,-2.40625 6.4375,0 0,2.40625 -6.4375,0 z m 0,-4.40625 0,-2.375 25.03125,0 c -0.27963,0.82772 -0.74726,1.58078 -1.59375,2.375 l -23.4375,0 z m 0,-4.375 0,-0.21875 18.96875,0 0,-2.1875 6.4375,0 0,1.34375 c 0,0.38264 -0.0125,0.71675 -0.0312,1.0625 l -25.375,0 z m 18.96875,-4.40625 0,-2.40625 6.4375,0 0,2.40625 -6.4375,0 z m 0,-4.40625 0,-2.40625 6.4375,0 0,2.40625 -6.4375,0 z m -23.46875,-4.40625 c -0.93666,-0.43312 -1.62072,-1.37033 -1.8125,-2.40625 l 31.6875,0 c 0.0108,0.26647 0.0312,0.5245 0.0312,0.8125 l 0,1.59375 -6.4375,0 0,-2.375 -14.875,0 c -1.02937,0 -2.50556,0.89524 -3.40625,1.28125 L 239,794.09375 c -0.21029,0.0956 -0.42718,0.18032 -0.625,0.25 l -2.65625,0 z m -1.53125,-4.40625 c 0.64268,-1.10809 2.03276,-1.58749 3.3125,-2.15625 l 0.5,-0.21875 25.9375,0 c 0.0492,0.0557 0.10724,0.0974 0.15625,0.15625 0.63063,0.75075 0.9957,1.47172 1.21875,2.21875 l -31.125,0 z"
         unicode="5" />
      <glyph
         id="glyph63"
         d="m 280.4375,833.9375 c -0.17519,-0.49059 -0.25,-1.04841 -0.25,-1.5625 l 0,-0.8125 9.5625,0 c 0.0572,0.25859 0.0937,0.52366 0.0937,0.8125 0,0.55437 -0.14811,1.08976 -0.40625,1.5625 l -9,0 z m -0.25,-4.375 0,-2.40625 6.46875,0 0,2 c 0.61834,0 1.15202,0.14424 1.625,0.40625 l -8.09375,0 z m 0,-4.40625 0,-2.40625 6.46875,0 0,2.40625 -6.46875,0 z m 0,-4.40625 0,-2.40625 6.46875,0 0,2.40625 -6.46875,0 z m 0,-4.40625 0,-2.40625 6.46875,0 0,2.40625 -6.46875,0 z m 0,-4.40625 0,-2.375 6.46875,0 0,2.375 -6.46875,0 z m 0,-4.375 0,-2.40625 31.75,0 c -0.0959,1.07209 -0.3554,1.8848 -0.9375,2.40625 l -30.8125,0 z m 0,-4.40625 0,-2.40625 6.46875,0 0,1.125 18.90625,0 0,-1.125 6.4375,0 0,2.40625 -31.8125,0 z m 0,-4.40625 0,-2.40625 6.46875,0 0,2.40625 -6.46875,0 z m 25.375,0 0,-2.40625 6.4375,0 0,2.40625 -6.4375,0 z m -25.375,-4.40625 0,-2.40625 31.8125,0 0,2.40625 -6.4375,0 0,-2.375 -18.90625,0 0,2.375 -6.46875,0 z m 0,-4.40625 0,-0.34375 c 0,-0.82366 0.11826,-1.48007 0.3125,-2.03125 l 31.1875,0 c 0.1981,0.54788 0.3125,1.20541 0.3125,2.03125 l 0,0.34375 -31.8125,0 z"
         unicode="6" />
      <glyph
         id="glyph65"
         d="m 327,833.9375 c -0.27696,-0.49884 -0.4375,-1.0613 -0.4375,-1.5625 l 0,-0.8125 31.78125,0 0,2.375 -31.34375,0 z m -0.4375,-4.375 0,-0.40625 c 0,-0.66346 0.27053,-1.39513 0.75,-2 l 4.9375,0 c 0.4868,0.60487 0.75,1.33654 0.75,2 l 18.90625,0 0,-2 6.4375,0 0,2.40625 -31.78125,0 z m 25.34375,-4.40625 0,-2.40625 6.4375,0 0,2.40625 -6.4375,0 z m 0,-4.40625 0,-0.46875 c 0,-0.88461 0.0183,-1.46879 -0.0312,-1.9375 l 6.46875,0 0,2.40625 -6.4375,0 z m -1.21875,-4.40625 c -0.23385,-0.21905 -0.44396,-0.3911 -0.78125,-0.6875 l -1.96875,-1.71875 9.75,0 c 0.56769,0.66525 0.64834,1.26351 0.65625,2.40625 l -7.65625,0 z m -5.0625,-4.40625 -2.71875,-2.375 9.875,0 2.71875,2.375 -9.875,0 z m -5,-4.375 c -0.90345,-0.83293 -1.1739,-1.3022 -1.21875,-2.40625 l 8.28125,0 2.78125,2.40625 -9.84375,0 z m -1.25,-4.40625 0,-2.40625 6.40625,0 0,0.46875 c 0,0.91477 0.0461,1.48984 0.1875,1.9375 l -6.59375,0 z m 0,-4.40625 0,-2.40625 6.40625,0 0,2.40625 -6.40625,0 z m 0,-4.40625 0,-2.40625 6.40625,0 0,2.40625 -6.40625,0 z m 0,-4.40625 0,-1.1875 c 0,-0.44148 0.0692,-0.8323 0.15625,-1.1875 l 6.125,0 c 0.087,0.3552 0.125,0.74602 0.125,1.1875 l 0,1.1875 -6.40625,0 z"
         unicode="7" />
      <glyph
         id="glyph67"
         d="m 379.71875,833.9375 c -0.22752,-0.47167 -0.34375,-1.00986 -0.34375,-1.5625 l 0,-0.8125 18.90625,0 0,0.8125 c 0,0.55264 -0.11623,1.09083 -0.34375,1.5625 l -18.21875,0 z m -0.34375,-4.375 0,-2.40625 6.4375,0 0,2 6.03125,0 0,-2 6.4375,0 0,2.40625 -18.90625,0 z m 0,-4.40625 0,-2.40625 6.4375,0 0,2.40625 -6.4375,0 z m 12.46875,0 0,-2.40625 6.4375,0 0,2.40625 -6.4375,0 z M 379.375,820.75 l 0,-2.40625 6.4375,0 0,2.40625 -6.4375,0 z m 12.46875,0 0,-2.40625 6.4375,0 0,2.40625 -6.4375,0 z m -12.46875,-4.40625 0,-2.40625 6.4375,0 0,2.40625 -6.4375,0 z m 12.46875,0 0,-2.40625 6.4375,0 0,2.40625 -6.4375,0 z M 374.625,811.9375 c -0.66086,-0.63538 -1.10096,-1.42766 -1.375,-2.375 l 31.15625,0 c -0.28282,0.94734 -0.74506,1.73962 -1.40625,2.375 l -28.375,0 z m -1.6875,-4.375 c -0.002,-0.0916 0,-0.18792 0,-0.28125 l 0,-2.125 6.4375,0 0,2.1875 18.90625,0 0,-2.1875 6.4375,0 0,2.125 c 0,0.0933 0.003,0.18969 0,0.28125 l -31.78125,0 z m 0,-4.40625 0,-2.40625 6.4375,0 0,2.40625 -6.4375,0 z m 25.34375,0 0,-2.40625 6.4375,0 0,2.40625 -6.4375,0 z M 372.9375,798.75 l 0,-2.40625 6.4375,0 0,2.40625 -6.4375,0 z m 25.34375,0 0,-2.40625 6.4375,0 0,2.40625 -6.4375,0 z m -25.34375,-4.40625 0,-2.375 c 0,-0.0106 -4e-5,-0.0206 0,-0.0312 l 31.78125,0 c 4e-5,0.0106 0,0.0206 0,0.0312 l 0,2.375 -6.4375,0 0,-2.375 -18.90625,0 0,2.375 -6.4375,0 z m 0.25,-4.40625 c 0.23995,-0.9217 0.65358,-1.72112 1.21875,-2.375 l 28.84375,0 c 0.56958,0.65563 0.97753,1.44875 1.21875,2.375 l -31.28125,0 z"
         unicode="8" />
      <glyph
         id="glyph69"
         d="m 419.75,833.9375 c -0.27161,-0.47274 -0.4375,-1.00813 -0.4375,-1.5625 l 0,-0.8125 31.78125,0 0,0.8125 c 0,0.55095 -0.16444,1.09187 -0.4375,1.5625 l -30.90625,0 z m -0.4375,-4.375 0,-2.40625 6.4375,0 0,2 18.90625,0 0,-2 6.4375,0 0,2.40625 -31.78125,0 z m 0,-4.40625 0,-2.40625 6.4375,0 0,2.40625 -6.4375,0 z m 25.34375,0 0,-2.40625 6.4375,0 0,2.40625 -6.4375,0 z M 419.3125,820.75 l 0,-2.40625 31.78125,0 0,2.40625 -6.4375,0 0,-1.625 -18.90625,0 0,1.625 -6.4375,0 z m 0,-4.40625 0,-0.4375 c 0,-0.71718 0.2509,-1.41307 0.6875,-1.96875 l 31.09375,0 0,2.40625 -31.78125,0 z m 25.34375,-4.40625 0,-2.375 6.4375,0 0,2.375 -6.4375,0 z m 0,-4.375 0,-2.40625 6.4375,0 0,2.40625 -6.4375,0 z m 0,-4.40625 0,-2.40625 6.4375,0 0,2.40625 -6.4375,0 z m 0,-4.40625 0,-2.40625 6.4375,0 0,2.40625 -6.4375,0 z m 0,-4.40625 0,-2.375 c -0.11661,0 -0.23146,-0.0215 -0.34375,-0.0312 l 6.78125,0 0,2.40625 -6.4375,0 z m -3,-4.40625 c -0.12665,-0.36124 -0.21875,-0.75257 -0.21875,-1.1875 0,-0.42387 0.10725,-0.81317 0.25,-1.1875 l 9.15625,0 c 0.14558,0.37433 0.25,0.76363 0.25,1.1875 l 0,1.1875 -9.4375,0 z"
         unicode="9" />
      <glyph
         id="glyph71"
         d="M459 473l91 1q91 0 107 -8q22 -10 33 -35q8 -15 8 -68q0 1 0 -29q0 -83 -8 -99q-11 -23 -33 -34q-16 -8 -69 -8h-37q-89 -1 -106 4q-14 6 -26 18q-18 18 -23 41v154q5 24 23 42q17 16 40 21zM459 987l91 2q91 0 107 -9q22 -10 33 -35q8 -14 8 -68q0 3 0 -29q0 -83 -8 -97 q-11 -24 -33 -35q-16 -8 -69 -9h-37q-89 0 -106 5q-14 5 -26 18q-18 18 -23 40v157q5 22 23 39q17 18 40 21z"
         unicode=":" />
      <glyph
         id="glyph73"
         d="M387 538h163q166 0 182 -8q22 -11 33 -33q8 -16 8 -69v-158q0 -212 -8 -227q-11 -24 -33 -35q-23 -10 -43 -8q-8 2 -18 5q-14 4 -27 18t-18 26q-4 14 -4 180v158h-120q-124 0 -139 8q-29 14 -40 47l-2 32q2 5 2 8q5 16 14 27q19 25 50 29zM384 1051l90 2q92 0 107 -9 q23 -10 34 -35q7 -15 8 -67q0 2 0 -30q0 -81 -8 -98q-11 -24 -34 -35q-15 -6 -69 -8h-36q-90 0 -106 5q-14 5 -27 20q-18 15 -22 39v154q5 24 22 41q18 17 41 21z"
         unicode=";" />
      <glyph
         id="glyph75"
         d="M 82.96875,575.84375 85,574.5 c 0.767999,-0.512 1.662001,-1.09375 2.75,-1.09375 1.417598,0 2.657349,1.09558 3.125,2.4375 l -7.90625,0 z m -6.5625,4.375 3.65625,-2.4375 10.90625,0 c -0.269839,1.0672 -0.969413,1.73637 -2,2.40625 l -0.0625,0.0312 -12.5,0 z m -6.625,4.40625 3.6875,-2.46875 12.53125,0 -3.6875,2.46875 -12.53125,0 z m -6.65625,4.40625 3.71875,-2.46875 12.5625,0 -3.71875,2.46875 -12.5625,0 z m -6.1875,4.40625 c 0.420128,-0.56804 1.037123,-0.99521 1.78125,-1.46875 l 1.5,-1 12.5625,0 -3.71875,2.46875 -12.125,0 z m 0.375,4.40625 c -0.621184,-0.58981 -1.008083,-1.30492 -0.96875,-2.40625 0,-0.0221 -2.72e-4,-0.0408 0,-0.0625 l 9.8125,0 -0.09375,0.0625 3.625,2.40625 -12.375,0 z m 6.4375,4.375 -3.65625,-2.4375 12.53125,0 3.6875,2.4375 -12.5625,0 z m 6.65625,4.4375 -3.75,-2.5 12.5625,0 3.78125,2.5 -12.59375,0 z m 6.59375,4.375 -3.6875,-2.4375 12.59375,0 2.9375,1.9375 c 0.229303,0.15689 0.445604,0.33301 0.65625,0.5 l -12.5,0 z m 6.65625,4.4375 -3.75,-2.5 11.03125,0 c 0.08649,0.29387 0.15625,0.61237 0.15625,0.96875 -0.01933,0.54129 -0.187641,1.058 -0.4375,1.53125 l -7,0 z"
         unicode="&lt;" />
      <glyph
         id="glyph77"
         d="M235 538h311q317 0 329 -4q29 -11 42 -39q21 -44 -13 -83q-18 -21 -44 -25h-317h-310l-6 1q-35 11 -50 43q-9 20 -6 40q1 13 6 23q16 36 58 44zM235 860h311q317 1 329 -5q29 -11 42 -38q21 -45 -13 -84q-18 -21 -44 -26h-317h-310l-6 2q-35 11 -50 44q-11 22 -5 47 q4 14 12 26q17 27 51 34z"
         unicode="=" />
      <glyph
         id="glyph79"
         d="m 10.40625,575.84375 c 0.458638,-1.34332 1.706335,-2.4375 3.125,-2.4375 1.087999,0 1.982001,0.58175 2.75,1.09375 l 2.03125,1.34375 -7.90625,0 z m 1.96875,4.375 -0.0625,-0.0312 c -1.030587,-0.66988 -1.706806,-1.33905 -1.96875,-2.40625 l 10.875,0 3.6875,2.4375 -12.53125,0 z M 19,584.625 l -3.71875,-2.46875 12.53125,0 3.71875,2.46875 -12.53125,0 z m 6.625,4.40625 -3.71875,-2.46875 12.53125,0 3.71875,2.46875 -12.53125,0 z m 6.625,4.40625 -3.71875,-2.46875 12.5625,0 1.5,1 c 0.744127,0.47354 1.361122,0.90071 1.78125,1.46875 l -12.125,0 z m -0.625,4.40625 3.625,-2.40625 -0.09375,-0.0625 9.8125,0 c 2.72e-4,0.0217 0,0.0404 0,0.0625 0.03933,1.10133 -0.347566,1.81644 -0.96875,2.40625 l -12.375,0 z m -6.625,4.375 3.6875,-2.4375 12.53125,0 -3.65625,2.4375 -12.5625,0 z m -6.71875,4.4375 3.78125,-2.5 12.59375,0 -3.78125,2.5 -12.59375,0 z m -6.5,4.375 c 0.208843,-0.16699 0.426947,-0.34311 0.65625,-0.5 l 2.9375,-1.9375 12.59375,0 -3.65625,2.4375 -12.53125,0 z m -1.15625,4.4375 c -0.245879,-0.47325 -0.386918,-0.98996 -0.40625,-1.53125 0,-0.35638 0.07201,-0.67488 0.15625,-0.96875 l 11,0 -3.75,2.5 -7,0 z"
         unicode="&gt;" />
      <glyph
         id="glyph81"
         d="M387 152l30 -1q42 -11 54 -55v-35v-3q-12 -43 -56 -56h-35h-2q-30 9 -44 32q-13 19 -13 42q0 16 7 31q16 39 59 45zM686 1180q18 3 36 -3q10 -3 17 -8l162 -137q14 -14 21 -35l3 -8v-77v-77l-3 -7q-5 -14 -15 -28q-5 -6 -218 -190l-216 -183v-50q0 -56 -5 -70 q-5 -13 -16 -26q-18 -20 -43 -22q-39 -8 -67 22q-16 18 -21 39v156q5 22 22 40q8 8 219 187l209 181v28v29l-17 16l-36 30l-20 18l-203 -173q-203 -174 -207 -177q-24 -15 -53 -11q-11 1 -23 8q-41 21 -41 67q0 34 24 56l456 390q15 12 35 15z"
         unicode="?" />
      <glyph
         id="glyph83"
         d="M420 1180h131q130 0 142 -1q90 -14 152 -77q24 -24 39 -47q29 -46 38 -104l3 -12v-363l-1 -376q-11 -80 -69 -136q-52 -49 -125 -62h-61h-3q-62 9 -107 46q-9 6 -11 8l-10 -7q-46 -37 -108 -47h-61h-5q-72 12 -125 62q-57 56 -67 136q-1 14 -1 166t1 166q10 76 63 131 t129 66q11 3 104 3h94l8 -3q38 -13 52 -54l1 -7v-227l2 -229l3 -8q5 -14 12 -24q10 -12 26 -19q14 -7 32 -7t32 7q27 13 38 43l3 8v354v361q-7 64 -67 91l-11 5q-18 6 -123 6h-17l-126 -2q-58 -6 -101 -65q-3 -6 -8 -13q-11 -19 -18 -27q-15 -16 -38 -21l-32 1 q-41 10 -56 50q-3 10 -3 21l3 29l5 10q12 26 35 53q24 31 53 54q68 53 153 61zM470 396l1 182h-41q-40 0 -45 -2q-4 0 -13 -3q-35 -11 -46 -49l-2 -6v-152v-154l4 -8q11 -35 42 -46q25 -9 49 -1q12 4 23 12q18 13 26 37l2 6v184z"
         unicode="@" />
      <glyph
         glyph-name=""
         id="glyph85"
         d="m 638.29666,1026.6928 c -30.30607,0 -48.31182,-13.9906 -60.48517,-34.34961 l 123.21053,0 c -12.61325,20.16871 -31.74136,34.34961 -62.72536,34.34961 z m -79.15343,-82.14036 -17.17481,-57.49825 193.4032,0 -16.42808,57.49825 -159.80031,0 z m -30.61595,-105.289 -16.42807,-57.49824 253.88835,0 -16.42807,57.49824 -221.03221,0 z m -30.61595,-105.28898 -16.42808,-57.49826 314.37353,0 -16.42807,57.49826 -281.51738,0 z m -30.61595,-105.289 -16.42807,-57.49824 159.80032,0 16.42807,57.49824 -159.80032,0 z m 182.20223,0 16.42807,-57.49824 159.80031,0 -16.42806,57.49824 -159.80032,0 z m -212.07145,-105.28899 -16.42807,-56.75152 159.80032,0 16.42807,56.75152 -159.80032,0 z m 241.94067,0 15.68134,-56.75152 160.54704,0 -16.42806,56.75152 -159.80032,0 z M 406.81022,418.8542 l -16.42808,-57.49824 159.80032,0 16.42807,57.49824 -159.80031,0 z m 301.67909,0 16.42808,-57.49824 160.54704,0 -16.42807,57.49824 -160.54705,0 z m -332.29504,-105.289 -16.42808,-57.49824 160.54706,0 16.42806,57.49824 -160.54704,0 z m 362.16426,0 16.42808,-57.49824 160.54704,0 -16.42807,57.49824 -160.54705,0 z m -392.03348,-105.28898 -17.1748,-57.49825 616.05262,0 -16.42807,57.49825 -582.44975,0 z m -30.61595,-105.28898 -17.1748,-57.4983 160.54705,0 14.9346,46.2973 327.06794,0 14.18788,-46.2973 159.80032,0 -16.42807,57.4983 -642.93492,0 z m -30.61594,-105.28905 -16.42808,-56.7516 156.8134,0 18.66826,56.7516 -159.05358,0 z m 545.11322,0 17.1748,-56.7516 157.56002,0 -15.6812,56.7516 -159.05362,0 z m -572.74226,-104.5423 c 1.38195,-24.885 23.48117,-48.1914 50.77768,-57.4983 l 49.28421,0 c 26.28278,9.3183 43.27141,32.5795 53.01786,57.4983 l -153.07975,0 z m 605.5984,0 c 9.86157,-24.9188 26.57651,-48.18 53.01786,-57.4983 l 50.03095,0 c 27.16757,9.3762 49.40747,32.6965 50.77757,57.4983 l -153.82638,0 z"
         unicode="A" />
      <glyph
         id="glyph87"
         d="M171 591v591h238l238 -2l14 -1q104 -16 174 -88q23 -22 40 -48q40 -61 49 -137v-115q-11 -110 -89 -186l-14 -14l14 -15q23 -21 40 -47q37 -56 47 -127q3 -15 3 -68t-3 -69q-13 -85 -64 -150q-21 -28 -48 -48q-61 -47 -138 -62q-27 -5 -270 -5h-231v591zM648 1026l-11 3 h-157h-157v-181v-180h157h157l11 3q87 18 116 97q1 8 3 15q4 20 4 72q0 40 -3 49q-14 75 -81 108q-18 9 -39 14zM648 512l-11 2h-157h-157v-180v-180h157h157l11 1q74 16 108 81q9 20 12 42q3 9 3 56q0 46 -3 56q-14 75 -81 108q-18 10 -39 14z"
         unicode="B" />
      <glyph
         id="glyph89"
         d="M537 1180q14 2 166 2l158 -2q49 -9 61 -57q2 -8 2 -18q0 -46 -47 -70q-13 -6 -117 -6h-54q-154 0 -160 -2q-24 -8 -40 -27q-4 -6 -47 -94q-112 -221 -122 -243q-8 -18 -11 -41v-58v-3q3 -24 11 -42q9 -22 122 -244q43 -87 47 -93q16 -20 40 -27q6 -1 160 -1 q158 -2 171 -7q44 -18 47 -71q0 -51 -47 -70l-16 -4h-320q-111 12 -171 108l-172 346q-19 44 -26 95v75v5q7 51 26 96l172 345q60 94 167 108z"
         unicode="C" />
      <glyph
         id="glyph91"
         d="M235 1180q4 2 155 2l163 -2q108 -12 171 -108q5 -8 87 -173q93 -185 101 -217l4 -8q9 -38 9 -83t-9 -83q-10 -38 -74 -163q-10 -21 -31 -63q-82 -164 -89 -174q-19 -32 -50 -57q-51 -41 -116 -49l-169 -2h-154l-6 3q-53 16 -56 73q0 55 56 75q6 1 49 3h45v437v438h-45 q-43 0 -49 3q-35 9 -50 41q-9 20 -6 42q1 11 6 22q16 37 58 43zM546 1027q-5 2 -38 2h-35v-438v-437h35q38 0 53 7t27 21q5 6 133 260q36 74 41 87q6 24 9 47q2 26 -3 52q-3 12 -6 26q-5 12 -41 85q-128 253 -133 261q-16 19 -42 27z"
         unicode="D" />
      <glyph
         id="glyph93"
         d="M171 591v591h341q342 0 349 -2q49 -9 61 -57q2 -8 2 -18q0 -49 -46 -70q-8 -3 -17 -5q-6 -1 -271 -1h-267v-181v-180h119q124 0 139 -8q23 -11 34 -35q7 -14 8 -34q0 -18 -8 -33q-11 -23 -34 -35q-15 -7 -69 -7q-4 0 -70 -2h-119v-180v-180h267q265 0 271 -2 q49 -9 61 -58q2 -7 2 -18q0 -51 -47 -70l-16 -4l-349 -2h-341v591z"
         unicode="E" />
      <glyph
         id="glyph95"
         d="M171 626v556h341q342 0 349 -2q49 -9 61 -57q2 -8 2 -18q0 -49 -46 -70q-8 -3 -17 -5q-6 -1 -271 -1h-267v-117v-116h195h193l7 -2q39 -12 52 -51q3 -10 3 -24t-3 -22q-13 -39 -52 -52l-7 -1h-193l-195 -2v-289l-2 -295q-4 -18 -14 -29q-11 -13 -26 -21q-23 -10 -43 -8 q-8 2 -17 5q-14 4 -28 18q-12 14 -17 26q-5 14 -5 275v302z"
         unicode="F" />
      <glyph
         id="glyph97"
         d="M593 1180q12 2 137 2l131 -2q49 -9 61 -57q2 -8 2 -18q0 -47 -47 -70q-13 -6 -113 -6h-29q-133 0 -147 -8q-14 -6 -44 -44q-14 -19 -84 -108q-105 -136 -110 -142q-15 -24 -24 -58l-2 -9v-222q0 -221 2 -227q9 -35 41 -50q14 -7 74 -7h107q166 0 181 7q24 11 35 36 q7 14 7 73q0 -16 0 30v87h-78q-82 0 -97 5q-14 4 -27 17q-13 12 -18 29q-6 15 -5 32q2 7 4 18q6 15 19 28q12 13 27 18q14 4 174 4h155v-161q0 -160 -1 -176q-5 -38 -23 -73q-49 -99 -158 -123q-10 -2 -19 -3q-16 -2 -176 -2q-173 0 -196 5q-38 9 -73 29q-94 59 -107 170 l-1 464l1 1q7 78 50 141q8 11 115 152q108 139 120 148q56 59 136 70z"
         unicode="G" />
      <glyph
         id="glyph99"
         d="M233 1180l34 -1q4 -2 14 -5q22 -11 33 -35q8 -14 9 -66v-180v-225h225h223v222q0 229 5 243q5 12 20 25q12 14 27 19q19 6 38 3q11 -1 20 -6q25 -11 36 -35q3 -8 7 -14q1 -6 1 -534q0 -527 -1 -533q-4 -7 -7 -15q-11 -24 -36 -35q-21 -10 -43 -8q-7 2 -15 5q-14 4 -27 18 q-14 14 -20 26q-5 14 -5 200v43v222h-223h-225v-225q0 -231 -9 -246q-11 -24 -33 -35q-23 -10 -43 -8q-8 2 -17 5q-14 4 -28 18q-17 18 -22 41v1055q5 22 22 39q18 17 40 22z"
         unicode="H" />
      <glyph
         id="glyph101"
         d="M235 1180q4 2 311 2l315 -2q49 -9 61 -57q2 -8 2 -18q0 -49 -46 -70q-8 -3 -17 -5q-6 -1 -122 -1h-116v-438v-437h116q122 0 136 -6q29 -11 42 -40q21 -44 -13 -82l-19 -17l-25 -7l-317 -2h-310l-6 3q-53 16 -56 73q0 53 56 75l6 1l119 2h119v437v438h-119h-119l-6 3 q-35 9 -50 41q-9 20 -6 42q1 11 6 22q16 37 58 43z"
         unicode="I" />
      <glyph
         id="glyph103"
         d="M759 1180l32 -1q18 -4 30 -14q18 -16 25 -40q2 -6 2 -457l-2 -465q-3 -29 -11 -51q-38 -102 -140 -140q-24 -7 -51 -10h-193q-113 12 -173 110q-26 42 -31 92l-1 272q3 14 10 26q11 15 26 27q13 6 31 9q15 2 32 -3q9 -3 18 -8q22 -14 30 -36q5 -13 5 -128v-18 q1 -134 8 -148q15 -31 50 -42l6 -1h84q91 0 106 7q32 15 41 50q2 4 4 455q0 453 1 457q6 23 23 38q15 14 38 19z"
         unicode="J" />
      <glyph
         id="glyph105"
         d="M233 1180l34 -1q4 -2 14 -5q22 -11 33 -35q8 -14 9 -69v-132l1 -181l237 203q236 203 242 206q26 20 57 14q7 -1 14 -3q30 -11 43 -40q14 -30 2 -61l-15 -21l-5 -5q-4 -5 -270 -232l-265 -227q0 -1 265 -227q266 -227 270 -231q25 -25 25 -57q0 -33 -25 -55 q-29 -27 -67 -19l-27 12h-2q-6 5 -242 208l-237 202l-1 -181q0 -186 -9 -200q-11 -24 -33 -35q-23 -10 -43 -8q-8 2 -17 5q-14 4 -28 18q-17 18 -22 41v1055q5 22 22 39q18 17 40 22z"
         unicode="K" />
      <glyph
         id="glyph107"
         d="M233 1180l34 -1q15 -4 29 -14q18 -16 25 -40q2 -6 2 -489v-482h267q265 0 271 -2q49 -9 61 -58q2 -7 2 -18q0 -51 -47 -70l-16 -4l-349 -2h-341v556q0 564 5 577q4 12 17 25q18 17 40 22z"
         unicode="L" />
      <glyph
         id="glyph109"
         d="M171 626v556h94h96l11 -14l88 -128l83 -118l5 -5l92 133l93 132h96h96v-559q0 -561 -1 -565q-11 -35 -43 -50q-21 -10 -43 -8q-7 2 -15 5q-14 4 -26 16q-15 14 -24 38q-2 5 -2 459v452l-73 -106l-75 -105v-23q0 -38 -10 -56q-9 -14 -25 -25q-21 -12 -50 -11q-18 1 -30 10 q-23 14 -32 36q-5 14 -5 43l-1 27l-74 104l-72 104l-1 -452q0 -454 -2 -458q-9 -35 -40 -50q-23 -10 -43 -8q-8 2 -17 5q-14 4 -28 18q-12 14 -17 26q-5 14 -5 275v302z"
         unicode="M" />
      <glyph
         id="glyph111"
         d="M171 626v556h100l101 -2l9 -22l200 -455l190 -432v424q0 424 2 428q8 23 24 38q11 11 26 16q19 6 38 3q11 -1 20 -6q31 -16 43 -49q1 -6 1 -566v-559h-101h-102l-199 456l-199 453l-1 -423q0 -424 -2 -428q-9 -35 -40 -50q-23 -10 -43 -8q-8 2 -17 5q-14 4 -28 18 q-12 14 -17 26q-5 14 -5 275v302z"
         unicode="N" />
      <glyph
         id="glyph113"
         d="M524 1180q8 2 22 2q69 0 125 -45q18 -12 30 -30q10 -11 17 -22q6 -9 92 -184q86 -172 92 -187q29 -80 22 -161q-5 -30 -14 -59q-8 -29 -100 -215q-87 -172 -92 -181q-11 -20 -28 -37q-73 -75 -176 -58q-29 5 -54 18q-51 24 -82 73l-183 368q-16 41 -23 89v75v5 q7 48 23 90l183 367q39 62 108 83q17 6 38 9zM558 1027q-16 3 -29 -3q-8 -3 -15 -10q-6 -5 -89 -174q-85 -169 -88 -179q-8 -17 -11 -39v-60v-1q3 -23 11 -40q3 -9 88 -179q83 -170 89 -176q9 -9 23 -11q14 -4 29 2q7 3 14 9q4 6 53 102l86 173q38 75 43 88q11 35 9 70v6 q-3 24 -9 49q-5 12 -43 87l-86 172q-48 96 -53 101q-10 10 -22 13z"
         unicode="O" />
      <glyph
         id="glyph115"
         d="M171 626v556h273q282 -1 300 -7q5 0 7 -1q105 -26 151 -124q16 -35 22 -73v-320v-2q-13 -113 -111 -173q-42 -24 -89 -30q-16 -1 -208 -1h-193v-194q0 -199 -9 -214q-11 -24 -33 -35q-23 -10 -43 -8q-8 2 -17 5q-14 4 -28 18q-12 14 -17 26q-5 14 -5 275v302zM714 1027 q-5 2 -198 2h-193v-212v-213h193q198 0 213 8q24 10 35 35q7 14 7 75v95v148l-3 8q-11 42 -54 54z"
         unicode="P" />
      <glyph
         id="glyph117"
         d="M716 1180q41 5 84 -9q23 -8 40 -19q72 -48 84 -134q1 -11 1 -239q0 -238 -5 -265q-15 -91 -82 -158q-10 -12 -68 -60q-56 -48 -56 -49l29 -76l7 -17h52q53 0 59 -2q49 -9 61 -58q2 -7 2 -18q0 -51 -47 -70l-16 -4l-111 -2h-105l-26 70q-28 70 -29 70l-60 -50 q-59 -49 -70 -58q-62 -41 -134 -29q-29 5 -55 18q-74 37 -95 119q-5 25 -5 210q0 -128 0 59v233l3 15q12 85 64 148q18 23 195 174l111 96q82 68 93 77q36 22 79 28zM753 1026q-10 4 -21 1l-10 -3q-4 -1 -312 -265q-43 -37 -49 -43q-27 -32 -35 -74l-2 -11v-227v-227l2 -5 q6 -11 16 -15q6 -3 14 -3q10 0 14 3q7 3 81 67l78 65l3 3l-29 72q-29 74 -30 80q-5 18 0 36q3 11 7 22q11 15 28 27q12 6 30 9q16 2 34 -3q9 -3 16 -8q16 -11 25 -25q3 -7 15 -37l19 -50l8 -17l32 27q34 29 42 37q31 32 39 78l3 11v227v227l-3 4q-4 12 -15 17z"
         unicode="Q" />
      <glyph
         id="glyph119"
         d="M171 626v556h273q282 -1 300 -7q5 0 7 -1q105 -26 151 -126l18 -48l4 -24l1 -70q-1 -64 -8 -89q-25 -104 -123 -151l-43 -15q-26 -7 -90 -9h-56l157 -267q155 -267 157 -271q11 -31 0 -58q-6 -14 -20 -25q-30 -29 -71 -18q-21 6 -37 23q-5 6 -12 17l-178 305l-173 294 h-53h-52v-289l-2 -295q-4 -18 -14 -29q-11 -13 -26 -21q-23 -10 -43 -8q-8 2 -17 5q-14 4 -28 18q-12 14 -17 26q-5 14 -5 275v302zM714 1027q-5 2 -198 2h-193v-117v-116h193q198 1 213 7q24 11 35 37q7 14 7 72t-7 74q-15 30 -50 41z"
         unicode="R" />
      <glyph
         id="glyph121"
         d="m 248.625,1060.5938 c -1.18841,0 -2.18033,-0.026 -3.15625,-0.25 l 19.40625,0 c -0.81976,0.1775 -1.70822,0.25 -2.625,0.25 l -13.625,0 z m -6.65625,-2.25 c -0.6977,-0.7004 -1.21468,-1.5097 -1.5625,-2.4063 l 30.25,0 c -0.50896,0.9191 -1.17401,1.7381 -1.90625,2.4063 l -26.78125,0 z m -2.03125,-4.4063 c -0.0188,-0.2214 -0.0312,-0.4595 -0.0312,-0.6875 0,-0.6284 0.0422,-1.1784 0.15625,-1.6875 l 7.1875,0 c -0.27756,0.3991 -0.9375,1.1283 -0.9375,1.6875 0,0.3257 0.13938,0.5536 0.34375,0.6875 l -6.71875,0 z m 24.0625,0 c 0.80454,-0.2877 1.21875,-0.9454 1.21875,-2.3125 0,-0.021 -3.3e-4,-0.041 0,-0.062 l 6.375,0 c 0.0352,0.2529 0.0625,0.5126 0.0625,0.7813 0,0.5309 -0.0827,1.0635 -0.21875,1.5937 l -7.4375,0 z m -23.09375,-4.375 c 0.30558,-0.5124 0.65963,-1.0356 1.09375,-1.5937 l 0.625,-0.8125 8.0625,0 -1.90625,2.4062 -7.875,0 z m 25.0625,0 c 0.5374,-0.5967 1.31343,-0.9375 2.34375,-0.9375 1.06154,0 1.86408,0.3571 2.40625,0.9375 l -4.75,0 z m -21.78125,-4.4062 1.875,-2.4063 8.0625,0 -1.875,2.4063 -8.0625,0 z m 3.4375,-4.4063 1.875,-2.4062 8.0625,0 -1.875,2.4062 -8.0625,0 z m 3.4375,-4.4062 1.875,-2.4063 8.0625,0 -1.875,2.4063 -8.0625,0 z m 3.40625,-4.4063 1.875,-2.375 8.0625,0 -1.84375,2.375 -8.09375,0 z m 3.40625,-4.375 1.875,-2.4062 8.09375,0 -1.875,2.4062 -8.09375,0 z m 3.4375,-4.4063 1.875,-2.4062 7.78125,0 c -0.39319,0.8143 -0.91321,1.5715 -1.53125,2.375 l -0.0312,0.031 -8.09375,0 z m -18.03125,-0.7187 c -1.3893,0 -2.33848,-0.6776 -2.875,-1.6875 l 5.53125,0 c -0.47709,0.9842 -1.40692,1.6875 -2.65625,1.6875 z m -3.375,-3.6875 c -0.002,-0.053 0,-0.1027 0,-0.1563 0,-0.7505 0.15248,-1.5183 0.40625,-2.25 l 31.21875,0 c 0.0787,0.4571 0.125,0.9268 0.125,1.4375 0,0.3332 -0.0208,0.6653 -0.0625,0.9688 l -6.875,0 c 0.26295,-0.3633 0.5,-0.7636 0.5,-1.0313 0,-0.965 -1.57906,-0.7812 -2.09375,-0.7812 l -14,0 c -1.6618,0 -2.63597,0.2618 -2.78125,1.8125 l -6.4375,0 z m 1.40625,-4.4063 c 0.45747,-0.6685 0.99235,-1.2599 1.59375,-1.75 0.29189,-0.2432 0.60491,-0.4641 0.90625,-0.6562 l 24.875,0 c 0.91566,0.6051 1.63985,1.4088 2.15625,2.4062 l -29.53125,0 z"
         unicode="S" />
      <glyph
         id="glyph123"
         d="M171 1076v106h377h377v-106q0 -113 -6 -127q-11 -30 -42 -43q-13 -5 -29 -5q-20 0 -34 6q-27 14 -38 42q-5 14 -5 51v29h-73h-75v-483q0 -484 -1 -488q-10 -35 -41 -50q-23 -10 -43 -8q-8 2 -17 5q-14 4 -27 18t-18 26q-5 14 -5 265v236v479h-75h-73v-29q0 -37 -5 -51 q-11 -30 -43 -43q-13 -5 -29 -5q-18 0 -32 6q-29 14 -38 42q-5 14 -5 127z"
         unicode="T" />
      <glyph
         id="glyph125"
         d="M233 1180l34 -1q15 -4 29 -14q18 -16 25 -40q2 -6 2 -457q1 -453 3 -457q9 -35 41 -50q14 -7 74 -7h107q166 0 181 7q30 15 41 50q1 4 1 455q0 453 2 457q8 23 24 38q11 11 26 16q19 6 38 3q11 -1 20 -6q31 -16 43 -49q1 -6 1 -457l-1 -465q-5 -40 -23 -75 q-49 -99 -158 -123q-10 -2 -19 -3q-16 -2 -176 -2q-162 0 -173 2q-108 12 -168 103q-22 34 -31 75q-5 24 -5 314q0 -40 0 171q0 455 5 468q4 12 17 25q18 17 40 22z"
         unicode="U" />
      <glyph
         id="glyph127"
         d="M233 1180l34 -1q4 -2 14 -5q22 -11 33 -35q8 -16 9 -70v-78l1 -130l112 -286l112 -286q0 2 112 287l111 287v124q0 132 5 146q5 12 20 25q12 14 27 19q19 6 38 3q11 -1 20 -6q25 -11 36 -35q7 -16 8 -69v-94v-142l-154 -395q-153 -393 -156 -398q-5 -11 -16 -20 q-37 -35 -83 -15l-22 18q-10 8 -17 20q-1 7 -149 386l-152 391l-5 13v139q0 145 5 160q4 12 17 25q18 17 40 22z"
         unicode="V" />
      <glyph
         id="glyph129"
         d="M233 1180l34 -1q15 -4 29 -14q18 -16 25 -40q2 -6 2 -453v-447l22 -35l21 -36h32h30l20 35l23 36v254q0 260 8 274q14 30 48 41q8 2 19 2q20 0 35 -8q23 -11 34 -35q7 -14 8 -64v-210l2 -254l20 -35l21 -36h32h31l22 36l20 37v442q0 451 5 464q5 12 20 25q12 14 27 19 q19 6 38 3q11 -1 20 -6q31 -16 43 -49q1 -6 1 -473v-468l-41 -71q-43 -72 -47 -78q-9 -15 -26 -24q-11 -8 -26 -9l-92 -2q-82 0 -91 3q-30 9 -47 38q-7 11 -7 12q-2 0 -8 -12q-18 -29 -48 -38q-6 -3 -90 -3l-91 2q-15 1 -29 9t-25 26q-4 4 -46 76l-42 71v460q0 472 7 487 q4 14 17 27q18 17 40 22z"
         unicode="W" />
      <glyph
         id="glyph131"
         d="M235 1180q15 3 33 -1q10 -4 18 -8q14 -10 24 -24q4 -7 121 -206l115 -198l4 3l115 196l118 201q27 47 78 37q23 -5 38 -19q16 -15 23 -38q3 -12 2 -30q-2 -10 -7 -18q-1 -5 -141 -244l-140 -240q0 -1 140 -239q139 -240 141 -245q8 -18 7 -38q0 -5 -2 -11q-6 -21 -23 -37 q-35 -32 -78 -16q-25 9 -38 33l-118 200l-115 198l-4 3l-115 -200q-117 -198 -121 -205q-14 -22 -37 -29q-43 -16 -76 15q-18 15 -25 39q-3 14 -1 31q1 9 5 17q3 5 142 245q141 238 141 239l-141 240q-139 239 -142 244q-8 18 -5 40q1 11 6 22q16 37 58 43z"
         unicode="X" />
      <glyph
         id="glyph133"
         d="M233 1180l34 -1q4 -2 14 -5q22 -11 33 -35q8 -16 9 -67v-11l1 -59l112 -142l112 -142q1 1 113 143l110 142v55q0 61 5 75q5 12 20 25q12 14 27 19q19 6 38 3q11 -1 20 -6q25 -11 36 -35q8 -16 8 -67q0 1 0 -37v-84l-38 -50l-151 -194l-111 -141l-2 -252q0 -257 -8 -271 q-11 -24 -34 -35q-23 -10 -43 -8q-8 2 -17 5q-14 4 -27 18t-18 26q-5 14 -5 207v62v246l-151 193l-151 194v76q0 88 7 104q4 14 17 27q18 17 40 22z"
         unicode="Y" />
      <glyph
         id="glyph135"
         d="M235 1180q4 2 346 2h344v-48v-49l-15 -24q-530 -906 -530 -907h237q238 0 244 -2q49 -9 61 -58q2 -7 2 -18q0 -51 -47 -70l-16 -4l-349 -2h-341v49v49l15 25q528 904 528 906h-240h-241l-6 3q-35 9 -50 41q-9 20 -6 42q1 11 6 22q16 37 58 43z"
         unicode="Z" />
      <glyph
         id="glyph137"
         d="M233 1180h628q49 -9 61 -57q2 -8 2 -18q0 -49 -46 -70q-8 -3 -17 -5q-6 -1 -160 -1h-153v-438v-437h153q154 0 160 -2q49 -9 61 -58q2 -7 2 -18q0 -49 -46 -70q-8 -3 -17 -4h-628q-22 4 -40 21q-17 18 -22 41v1055q5 22 22 39q18 17 40 22zM396 591v438h-36h-37v-438 v-437h37h36v437z"
         unicode="[" />
      <glyph
         id="glyph139"
         d="M235 1180q18 3 35 -3q9 -3 19 -8q13 -9 22 -26l606 -1036q8 -18 7 -38q0 -5 -2 -11q-6 -21 -23 -37q-35 -32 -78 -16l-25 16q-8 8 -13 17l-607 1037q-8 18 -5 40q1 11 6 22q16 37 58 43z"
         unicode="\" />
      <glyph
         id="glyph141"
         d="M235 1180l316 2q310 -1 316 -3q18 -5 29 -14q20 -16 28 -40q1 -6 1 -534q0 -527 -1 -533q-5 -16 -17 -29q-15 -20 -40 -27q-6 -2 -319 -2h-313l-8 3q-53 21 -56 73q0 55 56 75l6 1l157 2h156v437v438h-156h-157l-6 3q-35 9 -50 41q-9 20 -6 42q1 11 6 22q16 37 58 43z M771 591v438h-36h-37v-438v-437h37h36v437z"
         unicode="]" />
      <glyph
         id="glyph143"
         d="M535 924h24q26 -5 43 -25q8 -6 11 -12l300 -580q11 -23 11 -46q-7 -50 -55 -64l-13 -4q-21 -3 -42 8q-12 5 -20 14q-6 7 -99 146l-120 180l-29 40l-119 -179q-120 -180 -127 -187q-24 -24 -62 -22q-48 7 -64 51q-3 10 -3 23l3 27q2 5 5 9l305 587q11 18 27 26q13 6 24 8z "
         unicode="^" />
      <glyph
         id="glyph145"
         d="M235 -2q4 2 311 2q317 0 329 -5q29 -11 42 -39q21 -45 -13 -82q-18 -21 -44 -26l-317 -2l-310 2l-6 1q-35 11 -50 43q-9 19 -6 41q1 11 6 23q16 36 58 42z"
         unicode="_" />
      <glyph
         id="glyph147"
         d="M310 1180q4 2 86 2q88 0 102 -5q13 -5 26 -16q6 -6 158 -201q150 -193 155 -198l6 -12q14 -37 -6 -71l-17 -19q-6 -5 -13 -8q-16 -8 -36 -8q-24 0 -42 14q-7 3 -234 198t-233 202q-21 25 -16 61q1 10 8 20q16 35 56 41z"
         unicode="`" />
      <glyph
         id="glyph149"
         d="m 16.15625,974.4375 c -1.759579,0 -3.617911,-0.34664 -4.125,-2.09375 l 19.875,0 c -2.186749,1.83429 -4.354737,2.09375 -7.25,2.09375 l -8.5,0 z m -4.125,-4.09375 c 0.5407,-1.7993 2.574946,-2.09375 4.125,-2.09375 l 7.65625,0 c 1.387237,0 2.42518,-0.0676 3.21875,-0.3125 l 7.9375,0 c -0.234986,0.82843 -0.605423,1.61117 -1.1875,2.40625 l -21.75,0 z m 16.9375,-4.40625 c 0.177117,-0.61011 0.252597,-1.42023 0.28125,-2.375 l 6.1875,0 -0.03125,0.78125 c -0.01206,0.57902 -0.05183,1.08828 -0.09375,1.59375 l -6.34375,0 z m 0.3125,-4.375 0,-0.125 -13.28125,0 c -2.687657,0 -5.041907,-0.44042 -7.15625,-2.28125 l 26.71875,0 -0.0625,2.40625 -6.21875,0 z M 7.0625,957.15625 c -0.4963716,-0.74704 -0.8060961,-1.54074 -1,-2.40625 l 7.34375,0 c 0.622584,0.30329 1.347296,0.44963 2.03125,0.5 0.226934,0.0167 0.447159,0 0.65625,0 l 9.125,0 c 1.278671,0 2.20182,-0.14097 2.875,-0.5 l 7.59375,0 -0.0625,2.40625 -28.5625,0 z M 5.8125,952.75 c -0.00568,-0.17656 0,-0.34644 0,-0.53125 l 0,-1.875 6.15625,0 0,2.21875 c 0,0.0708 0.02644,0.12012 0.03125,0.1875 l -6.1875,0 z m 23.625,0 c 0.116379,-0.5408 0.1875,-1.1703 0.1875,-1.9375 l 0,-0.46875 6.1875,0 -0.0625,2.40625 -6.3125,0 z M 5.84375,948.34375 C 5.897312,947.47413 6.0282873,946.68303 6.25,945.9375 l 9.09375,0 c -1.445597,0.11308 -3.308786,0.67936 -3.375,2.40625 l -6.125,0 z m 21.625,0 -4.625,-2.40625 13.125,0 -0.09375,2.40625 -8.40625,0 z M 7.15625,943.9375 c 0.4615269,-0.70031 1.0550382,-1.34931 1.84375,-2 0.1675348,-0.13881 0.3349651,-0.25298 0.5,-0.375 l 18,0 2.5,1.28125 c -0.01699,-0.45882 0.06555,-0.89505 0.25,-1.28125 l 5.5,0 c 0.211869,0.54172 0.30331,1.16357 0.28125,1.78125 L 36,943.9375 l -28.84375,0 z"
         unicode="a" />
      <glyph
         id="glyph151"
         d="m 54.78125,987.15625 c -1.164569,-0.12603 -1.822495,-0.75942 -2.1875,-1.59375 l 5.28125,0 c -0.412138,0.93727 -1.167049,1.59375 -2.625,1.59375 -0.16486,0 -0.320625,0.016 -0.46875,0 z M 52.1875,983.5625 c -0.01058,-0.21017 -0.03125,-0.41261 -0.03125,-0.625 l 0,-1.78125 6.15625,0 0,1.78125 c 0,0.21231 0.01057,0.41491 0,0.625 l -6.125,0 z m -0.03125,-4.40625 0,-2.40625 6.15625,0 0,2.40625 -6.15625,0 z m 0,-4.40625 0,-2.40625 6.15625,0 0,2.40625 -6.15625,0 z m 13.40625,-0.3125 c -2.170255,0 -3.427528,-0.7915 -4.8125,-2.09375 l 16.0625,0 c -1.495288,1.23205 -2.872439,2.09375 -4.4375,2.09375 l -6.8125,0 z m -13.40625,-4.09375 0,-2.40625 13.28125,0 c 0.450978,0.19445 0.925568,0.3125 1.34375,0.3125 l 4.3125,0 c 0.500869,0 0.860756,-0.11213 1.1875,-0.3125 l 9,0 c -0.498436,0.82129 -1.176219,1.59492 -2.09375,2.40625 l -20.4375,0 -0.4375,-0.4375 0,0.4375 -6.15625,0 z m 0,-4.40625 0,-2.375 7.90625,0 c 0.05066,0.0427 0.10463,0.0831 0.15625,0.125 l 2.5625,2.25 -10.625,0 z m 22.75,0 0.46875,-0.375 c 0.427489,-0.32062 0.722277,-1.06422 0.8125,-2 l 6.1875,0 c -0.01478,0.89083 -0.11089,1.6716 -0.28125,2.375 l -7.1875,0 z m -22.75,-4.375 0,-2.40625 6.15625,0 0,0.875 c 0,0.59582 0.09771,1.09285 0.25,1.53125 l -6.40625,0 z m 24.0625,0 0,-2.40625 6.15625,0 0,2.40625 -6.15625,0 z m -24.0625,-4.40625 0,-2.40625 6.15625,0 0,2.40625 -6.15625,0 z m 24.0625,0 0,-2.40625 6.15625,0 0,2.40625 -6.15625,0 z m -24.0625,-4.40625 0,-2.40625 8.25,0 -0.1875,0.15625 c -0.978772,0.82217 -1.457363,1.45138 -1.6875,2.25 l -6.375,0 z m 24.0625,0 0,-0.71875 c 0,-0.5498 -0.01207,-1.14208 -0.09375,-1.6875 l 6.25,0 c 0.006,0.17843 0,0.34295 0,0.53125 l 0,1.875 -6.15625,0 z m -24.0625,-4.40625 0,-2.40625 13.84375,0 c -0.639731,0.10424 -1.557474,0.95936 -2.28125,1.5625 l -0.96875,0.84375 -10.59375,0 z m 22.75,0 -2.15625,-1.8125 c -0.394055,-0.33776 -0.907262,-0.54811 -1.625,-0.59375 l 9.96875,0 c 0.498518,0.73032 0.827284,1.52021 1.03125,2.40625 l -7.21875,0 z m -22.75,-4.40625 c 0.0073,-0.84277 0.10833,-1.6679 0.375,-2.375 l 5.40625,0 c 0.278155,0.69439 0.375,1.51474 0.375,2.3125 l 0,0.0625 -6.15625,0 z m 6.5,0 1.09375,-1.03125 c 0.512355,-0.4744 1.028269,-0.91987 1.5625,-1.34375 l 15.125,0 c 0.162891,0.12247 0.343261,0.24552 0.5,0.375 l 2.125,1.8125 c 0.07042,0.0611 0.119654,0.12696 0.1875,0.1875 l -20.59375,0 z"
         unicode="b" />
      <glyph
         id="glyph153"
         d="m 114.75,974.4375 c -3.40047,0 -4.93808,-0.0853 -7.53125,-2.09375 l 21.40625,0 c -0.50042,1.74711 -2.36542,2.09375 -4.125,2.09375 l -9.75,0 z m -9.96875,-4.09375 -2.5625,-2.15625 c -0.1029,-0.085 -0.18371,-0.16629 -0.28125,-0.25 l 10.21875,0 c 0.4895,0.18504 1.00412,0.3125 1.5,0.3125 l 10.84375,0 c 1.55006,0 3.59079,0.29445 4.125,2.09375 l -23.84375,0 z m -4.75,-4.40625 c -0.535869,-0.74421 -0.928297,-1.50319 -1.15625,-2.375 l 7.5,0 2.8125,2.375 -9.15625,0 z m -1.46875,-4.375 c -0.03129,-0.45689 -0.03125,-0.94488 -0.03125,-1.46875 l 0,-0.9375 6.15625,0 0,1.78125 c 0,0.2277 0.015,0.43285 0.0625,0.625 l -6.1875,0 z m -0.03125,-4.40625 0,-2.40625 6.15625,0 0,2.40625 -6.15625,0 z M 98.5625,952.75 c 0.05639,-0.90451 0.186694,-1.6849 0.40625,-2.40625 l 7.75,0 -0.34375,0.28125 c -0.81594,0.65276 -1.44398,1.22824 -1.625,2.125 l -6.1875,0 z m 1.375,-4.40625 c 0.54563,-0.78967 1.28769,-1.55423 2.28125,-2.375 l 0.0312,-0.0312 10.9375,0 c -1.06999,0.14056 -2.13675,0.7744 -3.09375,1.5625 l -1,0.84375 -9.15625,0 z m 4.75,-4.40625 2.0625,-1.71875 c 0.30594,-0.25155 0.59647,-0.45366 0.875,-0.65625 l 20.90625,0 c 0.13823,0.35168 0.21875,0.78667 0.21875,1.28125 0,0.4222 -0.0489,0.77767 -0.15625,1.09375 l -23.90625,0 z"
         unicode="c" />
      <glyph
         id="glyph155"
         d="m 893.22512,1146.2762 c -29.59415,-3.286 -45.61322,-19.9272 -54.92399,-41.6533 l 134.524,0 c -10.47994,24.5791 -30.44542,41.6533 -67.66,41.6533 -4.19932,0 -8.16683,0.4182 -11.94001,0 z m -65.27198,-93.9241 c -0.2701,-5.4929 -0.79473,-10.7838 -0.79473,-16.3347 l 0,-46.55371 156.81199,0 0,46.55371 c 0,5.5509 -0.52726,10.8418 -0.79473,16.3347 l -155.22001,0 z m -0.79473,-115.15923 0,-62.88837 156.81199,0 0,62.88837 -156.81199,0 z m 0,-115.15919 0,-62.88835 156.81199,0 0,62.88835 -156.81199,0 z m -321.584,-8.16736 c -64.11025,0 -99.73462,-13.24383 -147.26004,-54.72099 l 405.96004,0 c -41.15385,36.06656 -77.25584,54.72099 -119.40003,54.72099 l -139.29997,0 z M 297.02238,706.87444 c -24.33443,-21.59438 -42.10446,-41.74035 -54.92401,-62.88836 l 234.02401,0 c 8.6121,4.81337 17.52805,8.16733 26.26801,8.16733 l 111.43999,0 c 8.76059,0 19.65574,-2.85557 31.044,-8.16733 l 339.09602,0 0,62.88836 -156.81199,0 0,-11.43425 -10.348,11.43425 -519.78803,0 z m -76.41602,-115.1592 c -4.19852,-18.14893 -6.00958,-38.94359 -6.36798,-62.0716 l 159.996,0 c 3.12923,22.38577 9.2038,42.18231 21.49199,52.27082 l 11.94001,9.80078 -187.06002,0 z m 493.52004,0 66.86399,-58.80471 c 1.32709,-1.16822 2.6542,-2.09866 3.98002,-3.26689 l 198.99999,0 0,62.0716 -269.844,0 z m -499.88802,-114.34245 0,-62.88835 156.81199,0 0,44.92024 c 0,5.80679 -0.0511,11.89005 0,17.96811 l -156.81199,0 z m 610.532,0 c 1.29908,-4.71563 2.38676,-9.42523 2.38676,-14.70117 l 0,-48.18718 156.81198,0 0,62.88835 -159.2,0 z m -610.532,-115.15919 0,-62.88839 156.81199,0 0,62.88839 -156.81199,0 z m 612.92003,0 0,-62.88839 156.81199,0 0,62.88839 -156.81199,0 z m -612.92003,-115.15921 0,-49.00392 c 0,-4.92127 -0.15287,-9.23102 0,-13.88443 l 161.588,0 c -3.46394,19.55579 -4.62824,41.60522 -4.77599,62.88835 l -156.81201,0 z m 612.12402,0 c -5.08446,-24.00694 -25.51226,-41.33891 -45.37201,-58.8047 l -4.77601,-4.08365 207.75602,0 0,62.88835 -157.608,0 z M 220.60636,131.89514 c 5.12015,-23.24058 13.87692,-43.60924 27.064,-62.88834 l 247.55604,0 c -17.09554,3.1402 -34.53317,17.1402 -51.74002,31.85251 l -39.00398,31.03583 -183.87604,0 z m 495.90805,0 -25.47203,-22.05173 C 663.30337,84.5445 637.17827,70.5887 617.81038,69.0068 l 366.16002,0 0,62.88834 -267.45599,0 z M 295.43037,16.7359 c 1.74994,-1.5655 2.95757,-3.3145 4.776,-4.9003 l 54.92401,-47.3706 c 3.33302,-2.9313 8.80568,-6.3432 13.53198,-9.8007 l 382.87603,0 c 13.87971,10.5375 28.0569,22.3495 41.392,35.1195 l 26.268,26.9521 -523.76802,0 z m 531.72804,0 0,-1.6335 c 0,-21.3004 2.63149,-42.4868 9.55199,-60.4381 l 137.708,0 c 6.79264,18.4804 9.36706,40.0455 9.552,62.0716 l -156.81199,0 z"
         unicode="d" />
      <glyph
         id="glyph157"
         d="m 548.58153,469.75479 c -60.78846,0 -97.88259,-2.09906 -163.17331,-54.66306 l 482.993,0 c -58.79565,46.38743 -95.6287,54.66306 -172.14784,54.66306 l -147.67185,0 z m -224.36331,-106.87852 -11.42214,-9.7904 c -21.29581,-18.10153 -36.61609,-35.00106 -48.13613,-53.03132 l 237.41718,0 c 14.12272,5.94865 28.29478,7.54513 43.24093,8.15867 7.03368,0.28979 13.65408,0 21.21253,0 l 136.24971,0 c 18.09997,0 38.97571,-0.71797 57.11067,-8.15867 l 232.52197,0 c -12.32729,20.56245 -29.07565,39.68688 -53.03134,58.74238 l -4.89518,4.07934 -610.2682,0 z M 241.81569,247.83909 c -4.60644,-18.66233 -6.52537,-39.10547 -7.3428,-62.00586 l 160.72574,0 c 1.90064,36.83723 14.32973,48.76089 31.81878,62.00586 l -185.20172,0 z m 584.16047,0 15.50145,-13.05387 c 15.02135,-13.86581 19.32704,-30.35546 20.39668,-48.95199 l 160.72571,0 c -1.0547,22.26494 -4.2378,42.74984 -8.9745,62.00586 l -187.64935,0 z m -591.50327,-114.22132 0,-62.82172 160.72573,0 0,62.82172 -160.72573,0 z m 628.21726,0 0,-62.82172 160.72575,0 0,62.82172 -160.72575,0 z M 234.47289,18.58059 l 0,-62.82173 783.23191,0 c 4.0193,16.53585 5.6829,36.61582 5.7111,62.82173 l -788.94301,0 z m 0,-115.03719 0,-53.8472 c 0,-3.24335 -0.0522,-5.86692 0,-8.97452 l 161.54159,0 c -0.30807,1.87453 -0.81456,3.94514 -0.81456,5.71106 l 0,53.84719 517.2594,0 c 17.95141,0 32.16629,1.09131 44.87266,3.26347 l -722.85778,0 z m 4.07933,-115.0372 c 4.38767,-24.0311 12.54503,-43.7585 25.29186,-62.8218 l 284.73745,0 c -42.63705,1.5951 -70.57886,9.546 -89.74532,30.1872 l -29.37119,32.6346 -190.9128,0 z m 72.61213,-115.0372 c 1.76227,-1.6135 3.05669,-3.2502 4.8952,-4.8953 l 65.26933,-57.1106 635.56002,0 c 3.9486,9.2936 6.527,20.2233 6.527,33.4505 0,11.083 -1.3785,20.2523 -4.0793,28.5554 l -708.17225,0 z"
         unicode="e"
         glyph-name="" />
      <glyph
         id="glyph159"
         d="M605 1180q5 2 107 2q110 0 125 -5q12 -5 24 -16q20 -19 24 -44v-20q-3 -27 -22 -46q-13 -12 -26 -17q-14 -5 -119 -5q-98 0 -106 -2q-64 -8 -91 -65l-5 -11q-4 -18 -7 -56v-34h79q78 0 84 -1q50 -10 61 -58q2 -10 2 -17q0 -49 -45 -71q-8 -3 -18 -5q-6 -2 -84 -2h-79 v-322q0 -323 -1 -327q-5 -18 -16 -29q-9 -13 -26 -21q-21 -10 -42 -8q-8 2 -17 5q-14 4 -27 18t-17 26q-7 14 -7 229q0 -48 0 110v319h-43q-48 0 -64 9q-31 14 -40 48l-2 33q2 3 2 6q9 34 40 49q15 8 64 8l43 1l2 38q0 39 2 52q9 58 38 104q33 53 86 85q56 35 121 40z"
         unicode="f" />
      <glyph
         id="glyph161"
         d="M427 860h81l86 -2q63 -8 110 -44q8 -6 37 -31l30 -26v19q2 23 7 37q7 22 32 37q12 8 28 10q16 1 32 -4q8 -1 17 -6q18 -9 26 -27q3 -6 7 -13q5 -13 5 -259q0 7 0 -187q0 -425 -1 -439q-10 -75 -61 -128q-20 -21 -77 -67q-53 -43 -123 -51h-183h-172l-6 1q-53 24 -56 76 q0 51 50 70q3 2 6 3l6 2l174 1h175l6 2q16 5 55 38q42 35 50 58l3 9v114l-1 113l-29 -24q-38 -32 -49 -40q-45 -29 -101 -36h-163q-65 7 -115 46q-53 41 -80 70q-41 43 -56 103q-6 25 -6 146v26v150q8 79 62 136q28 28 80 70q50 39 114 47zM580 706h-142q-20 -3 -61 -40 q-38 -33 -46 -47q-7 -15 -7 -79v-78q0 -141 7 -155q8 -15 46 -48q40 -34 56 -38l8 -3h68q75 0 92 7q7 5 59 48l70 61q30 26 38 46l3 10v72v73l-3 6q-4 18 -14 29l-147 125q-13 9 -27 11z"
         unicode="g" />
      <glyph
         id="glyph163"
         d="M233 1180l34 -1q4 -2 14 -5q22 -11 33 -35q8 -14 9 -69v-145l1 -193l75 47q77 49 92 58q35 18 76 23l142 -2h2q76 -12 129 -67q55 -56 64 -134l20 -577l-2 -22q-13 -45 -58 -56q-9 -2 -21 -2q-53 3 -70 59q-2 7 -11 294t-11 294q-8 41 -50 56l-9 3h-56q-63 0 -77 -6 q-6 -3 -121 -77l-114 -73l-1 -243q0 -249 -9 -264q-11 -24 -33 -35q-23 -10 -43 -8q-8 2 -17 5q-14 4 -28 18q-17 18 -22 41v1055q5 22 22 39q18 17 40 22z"
         unicode="h" />
      <glyph
         id="glyph165"
         d="M310 860h128q128 0 143 -8q14 -6 26 -20q9 -12 15 -29q1 -6 1 -329v-320h81l82 -2l6 -1q34 -10 48 -41q8 -14 8 -34q0 -19 -8 -33q-14 -31 -48 -40l-7 -3h-239h-236l-8 3q-49 24 -56 73q0 52 50 72q3 0 6 3l6 1l82 2h81v276v277h-81h-82l-6 4q-49 14 -56 64q-2 12 1 27 q11 47 63 58zM459 1244l53 2q54 0 69 -8q23 -11 34 -35q7 -16 8 -66q0 -49 -8 -65q-11 -24 -34 -35q-15 -8 -67 -8l-60 3q-3 0 -9 2q-14 4 -26 17q-13 14 -18 27q-5 14 -5 59t5 60q5 14 18 27q17 15 40 20z"
         unicode="i" />
      <glyph
         id="glyph167"
         d="M462 860h163q166 0 182 -8q28 -14 39 -49q2 -6 2 -458l-2 -468q-9 -75 -61 -130q-52 -53 -125 -65l-13 -3h-92l-117 1q-4 2 -10 3q-43 8 -80 32q-81 55 -101 148q-4 22 0 36q2 10 7 20q5 9 14 19q10 9 18 13q18 9 35 9q16 0 29 -4q8 -4 16 -11q24 -15 32 -53 q11 -43 54 -58l8 -2h88h88l9 3q13 5 24 13q16 12 24 37l2 7v407l2 408h-121q-123 0 -138 9q-31 14 -40 48l-2 33q2 3 2 6q8 25 26 40q17 13 38 17zM684 1244l54 2q53 0 69 -8q22 -11 33 -35q8 -16 8 -66q0 -49 -8 -65q-11 -24 -33 -35q-16 -8 -68 -8l-60 3l-8 2 q-14 4 -27 17q-13 14 -18 27q-4 14 -4 59t4 60q5 14 18 27q17 15 40 20z"
         unicode="j" />
      <glyph
         id="glyph169"
         d="M233 1180l34 -1q15 -4 29 -14q18 -16 25 -40q2 -6 2 -315l1 -310l199 171q199 171 204 174q11 8 27 13l34 2q1 -2 3 -2q18 -5 29 -15q38 -30 26 -78q-4 -18 -17 -32q-3 -4 -160 -137l-155 -134l189 -162q190 -161 196 -167q25 -23 25 -57q0 -10 -2 -18q-13 -48 -61 -56 q-33 -7 -59 14l-403 344l-3 3l-35 -32l-37 -32l-1 -119q0 -123 -9 -137q-11 -24 -33 -35q-23 -10 -43 -8q-8 2 -17 5q-14 4 -28 18q-17 18 -22 41v1055q5 22 22 39q18 17 40 22z"
         unicode="k" />
      <glyph
         id="glyph171"
         d="M310 1180l128 2q128 -1 143 -8q31 -16 41 -49q1 -6 1 -489v-482h81l82 -2l6 -1q34 -10 48 -41q8 -14 8 -34q0 -19 -8 -33q-14 -31 -48 -40l-7 -3h-239h-236l-8 3q-49 24 -56 73q0 52 50 72q3 0 6 3l6 1l82 2h81v437v438h-81h-82l-6 3q-49 14 -56 64q-2 14 1 27 q11 46 63 57z"
         unicode="l" />
      <glyph
         id="glyph173"
         d="M221 860q18 3 33 -2q11 -3 19 -8q24 -14 32 -37l2 -5l7 5q43 38 101 47q49 6 96 -15q24 -10 45 -27q14 -11 25 -26l4 -4l17 14q24 22 35 29q52 33 110 29h10q58 -8 101 -50q48 -46 55 -113l23 -625q-2 -14 -8 -29q-11 -24 -35 -35q-12 -6 -29 -8l-29 5q-7 1 -14 6 q-18 9 -27 27q-6 11 -9 26q-2 6 -12 313q-11 305 -13 310q-3 11 -14 17l-11 3q-6 -1 -10 -3q-4 -1 -53 -43l-47 -41l-2 -278l-1 -284q-5 -18 -15 -29q-11 -13 -26 -21q-23 -10 -43 -8q-8 2 -17 5q-12 4 -26 16q-15 14 -22 38q-2 5 -2 315l-1 308l-2 7q-6 11 -16 15 q-6 2 -14 2q-10 0 -14 -3q-7 -3 -60 -49l-53 -46v-273q-1 -273 -3 -277q-5 -18 -14 -29q-11 -13 -26 -21q-22 -10 -43 -8q-7 2 -16 5q-14 4 -29 18q-18 18 -20 41v733q3 23 20 40q18 18 41 23z"
         unicode="m" />
      <glyph
         id="glyph175"
         d="M233 860q16 3 34 -2q9 -3 19 -8q23 -14 32 -37q5 -14 5 -49l1 -32l75 47q77 49 92 58q35 18 76 23l142 -2h2q76 -12 129 -67q55 -56 64 -134l20 -577l-2 -22q-13 -45 -58 -56q-9 -2 -21 -2q-46 3 -65 44q-7 14 -10 135q-1 19 -6 174q-9 287 -11 294q-8 41 -50 56l-9 3 h-56q-63 0 -77 -6q-6 -3 -121 -77l-114 -73l-1 -243q0 -249 -9 -264q-11 -24 -33 -35q-23 -10 -43 -8q-8 2 -17 5q-14 4 -28 18q-17 18 -22 41v733q5 23 22 40q18 18 40 23z"
         unicode="n" />
      <glyph
         id="glyph177"
         d="M427 860h124q115 0 124 -2q25 -3 46 -12q36 -14 64 -35q54 -46 71 -64q58 -56 68 -137q1 -13 1 -180q0 -169 -1 -184q-11 -78 -68 -134q-18 -18 -71 -63q-40 -32 -95 -44q-24 -5 -142 -5q-119 0 -144 5q-49 11 -91 43q-53 41 -80 71q-53 54 -61 132q-1 11 -1 180 q0 168 1 182q10 75 61 130q31 32 81 70q49 37 113 47zM661 704q-4 2 -111 3q-110 0 -122 -4q-12 -5 -22 -11l-34 -31q-38 -32 -44 -53l-4 -7v-170q0 -175 7 -188q8 -16 46 -48q33 -29 42 -34q15 -7 70 -7h59q111 0 124 6q11 5 49 37q39 33 47 54l3 10v169q0 167 -1 174 q-5 15 -14 29l-72 62q-10 6 -23 9z"
         unicode="o" />
      <glyph
         id="glyph179"
         d="M229 890l32 2q1 0 4 -2q43 -9 56 -55q2 -6 2 -33l1 -27l31 32q30 30 38 36q55 42 121 49l85 -2q52 -8 91 -34q14 -10 48 -39q113 -98 123 -108q49 -51 63 -124q1 -11 1 -155v-144l-3 -13q-13 -72 -59 -121l-154 -132q-51 -42 -118 -50h-82q-64 7 -116 48q-8 6 -38 37 l-32 30v-172q0 -177 -9 -191q-11 -24 -33 -35q-16 -8 -34 -8q-19 0 -35 8q-22 11 -33 35q-5 8 -7 14q-1 7 -1 550v542l1 7q14 46 57 55zM587 736l-66 2q-18 -3 -30 -13l-151 -150q-8 -11 -12 -24l-4 -10v-107v-114q4 -16 11 -29l149 -151l4 -1q12 -11 26 -14q8 -3 37 -3 q28 0 36 3q15 4 71 51q7 6 21 19q70 59 75 66q10 10 14 27l3 8v134q0 134 -1 140q-5 14 -13 27l-149 128q-9 8 -21 11z"
         unicode="p" />
      <glyph
         id="glyph181"
         d="M427 860h81l86 -2q63 -8 110 -44q8 -6 37 -31l30 -26v19q2 23 7 37q7 22 32 37q12 8 28 10q16 1 32 -4q8 -1 17 -6q18 -9 26 -27q8 -13 11 -27l1 -531q0 -524 -1 -529q-11 -35 -43 -49q-15 -8 -33 -8t-34 8q-24 11 -35 35q-6 14 -8 67v133v180l-30 -24q-30 -26 -35 -30 q-49 -39 -115 -46h-163q-65 7 -115 46q-53 41 -80 71q-53 54 -62 132l1 359q10 78 61 133q28 28 80 70q50 39 114 47zM580 706h-142q-20 -3 -61 -40q-38 -33 -46 -47q-7 -15 -7 -79v-110q0 -174 7 -187q8 -16 46 -48q40 -35 56 -40l8 -1h68q75 0 90 7q9 4 64 51l69 58 q28 26 36 47l3 7v106v105l-3 6q-4 18 -14 29l-147 125q-13 9 -27 11z"
         unicode="q" />
      <glyph
         id="glyph183"
         d="M233 860q16 3 34 -2q11 -3 19 -8q16 -9 27 -27q3 -6 5 -13q5 -13 5 -69q0 -48 1 -48l88 75q86 75 94 80q10 6 24 10q5 2 96 2q99 0 125 -5q105 -26 151 -125q16 -32 22 -69v-83v-2q-10 -47 -57 -58l-19 -4q-53 0 -72 50q-1 3 -1 6q-2 8 -4 42v35l-3 10q-4 12 -12 23 q-10 11 -26 20q-30 6 -88 6h-67l-127 -107l-125 -107v-214q0 -221 -9 -235q-11 -24 -33 -35q-23 -10 -43 -8q-8 2 -17 5q-14 4 -28 18q-17 18 -22 41v733q5 23 22 40q18 18 40 23z"
         unicode="r" />
      <glyph
         id="glyph185"
         d="M360 860h370q85 -10 142 -71q29 -29 34 -53l1 -32q-1 -3 -1 -4q-4 -10 -7 -14q-21 -43 -67 -42h-9q-32 4 -55 31q-15 22 -41 29l-8 2l-169 1l-176 -1q-21 -5 -32 -24l-3 -14q0 -8 3 -13q4 -14 16 -21q5 -3 144 -65q298 -131 316 -142q60 -40 86 -101q26 -59 18 -119 q-2 -14 -5 -28q-27 -109 -128 -156q-24 -11 -50 -18q-24 -5 -199 -5q-163 0 -176 3q-32 5 -70 21q-44 18 -82 46q-27 23 -35 38q-9 20 -6 44q1 11 8 22q19 43 67 44h10q22 -4 46 -23q24 -21 50 -30q22 -8 38 -11h161h153l8 1q35 11 50 43q18 32 2 66q-8 19 -25 32 q-6 4 -10 6q-7 3 -310 136q-119 53 -127 57q-27 13 -51 39q-46 46 -54 111q-6 49 14 96q11 26 29 47q52 61 130 72z"
         unicode="s" />
      <glyph
         id="glyph187"
         d="M381 1117l36 -2q5 -1 14 -7q23 -11 34 -33q8 -16 8 -70v-48v-96l156 -1h157l6 -2q34 -11 48 -40q8 -14 8 -33q0 -20 -8 -35q-14 -29 -48 -41l-6 -2h-157h-156l1 -247v-248l3 -8q7 -22 23 -35q11 -8 24 -12l10 -3h88q94 0 110 7q30 16 39 51q7 27 20 44q24 27 65 25 q50 -6 64 -52q7 -18 4 -34q-13 -88 -84 -144q-44 -36 -99 -46q-24 -5 -115 -5h-11h-92l-14 3q-75 14 -124 66q-53 54 -62 131q-2 14 -2 260v247h-45q-43 0 -49 2q-53 23 -56 76q0 53 56 73q6 2 49 2l45 1v96q0 102 8 118q16 34 52 42z"
         unicode="t" />
      <glyph
         id="glyph189"
         d="M235 860l32 -2q41 -12 54 -56q2 -8 11 -294q10 -288 11 -296q8 -41 50 -55l9 -3h57q62 0 75 6q7 3 123 76l114 75v240q0 246 5 259q3 6 7 13q9 18 27 27q12 8 28 10q16 1 32 -4q8 -1 17 -6q18 -9 26 -27q8 -13 11 -27l1 -371q0 -363 -1 -367q-7 -18 -17 -29 q-15 -21 -40 -26q-19 -5 -38 0l-19 8q-25 12 -32 37q-5 12 -7 50v31l-76 -49q-93 -60 -120 -68q-24 -7 -48 -10h-142h-1q-78 14 -130 67q-54 57 -64 135l-19 575q0 21 6 35q16 38 58 46z"
         unicode="u" />
      <glyph
         id="glyph191"
         d="M233 860q16 3 34 -2q11 -3 19 -8q16 -9 27 -27q3 -6 5 -13q5 -13 5 -80v-59l111 -256q112 -256 114 -255l112 255l111 256v59q0 67 5 80q5 14 20 27q12 12 27 19q15 5 33 4q10 0 18 -4q14 -6 27 -19q14 -13 19 -27q5 -13 5 -91t-6 -94l-259 -590q-11 -15 -26 -24 q-11 -6 -26 -9h-120q-15 3 -26 9q-16 8 -26 24l-259 590q-6 15 -6 94q0 78 5 91q4 14 17 27q18 18 40 23z"
         unicode="v" />
      <glyph
         id="glyph193"
         d="M218 860q25 4 50 -10q13 -6 21 -18q11 -12 16 -29q2 -6 2 -20q1 -14 7 -225l9 -212l23 -81l24 -81l50 86l51 85v89q0 96 5 111q11 27 36 39q18 8 34 8q18 0 35 -8q26 -12 38 -39q4 -14 4 -111v-89l49 -85q52 -87 52 -86l23 81l24 81l8 212q6 210 9 225q1 21 8 35 q11 23 35 35q29 14 59 2q16 -5 29 -20q18 -18 20 -41l-6 -232q-8 -223 -9 -233q0 -9 -40 -143q-38 -135 -44 -143q-14 -31 -48 -40q-6 -3 -53 -3l-52 2q-27 3 -45 24q-8 6 -51 81t-45 75l-43 -75l-43 -75l-9 -9q-13 -13 -27 -18t-63 -5h-6q-46 0 -53 3q-34 9 -48 40 q-4 8 -43 143q-40 134 -40 143q-2 10 -10 233q-7 232 -3 246q15 42 60 52z"
         unicode="w" />
      <glyph
         id="glyph195"
         d="M251 860l30 -2q22 -6 37 -21q5 -5 116 -140q112 -135 114 -135q1 2 113 136t115 139q9 9 24 16q46 23 85 -15q21 -21 22 -49l-3 -29l-6 -13q-3 -6 -127 -156t-124 -152l129 -157q128 -155 133 -160q22 -31 13 -67q-6 -20 -23 -34q-30 -29 -71 -18l-26 13l-11 10l-125 150 l-118 144l-7 -6l-121 -148q-118 -142 -123 -146q-36 -34 -83 -12q-26 11 -37 36q-11 26 -5 52q4 14 14 26q3 6 132 160q130 157 129 157q0 2 -124 152q-123 151 -126 156q-11 20 -10 42q2 16 6 29q18 35 58 42z"
         unicode="x" />
      <glyph
         id="glyph197"
         d="M233 860q16 3 34 -2q11 -3 19 -8q16 -9 27 -27q3 -6 5 -13q5 -13 5 -80v-59l101 -227l99 -226h25h25l99 226l99 227v59q0 67 5 80q5 14 20 27q12 12 27 19q15 5 33 4q10 0 18 -4q14 -6 27 -19q14 -13 19 -27q5 -13 5 -91t-6 -94l-400 -910q-14 -22 -40 -32 q-13 -4 -134 -4h-112l-6 1q-53 18 -56 76q0 53 56 73q6 2 91 3h86l50 115l51 117h-19q-34 0 -53 11q-18 9 -27 27l-230 526q-5 14 -5 91q0 78 5 91q4 14 17 27q18 18 40 23z"
         unicode="y" />
      <glyph
         id="glyph199"
         d="M271 860h298q292 0 298 -2q18 -5 29 -15q13 -11 21 -25q7 -15 8 -62l-3 -56l-2 -7q-4 -12 -14 -24q-5 -4 -270 -260l-266 -255h245q245 -2 251 -3q21 -5 33 -18q25 -25 25 -57q0 -49 -46 -70q-8 -3 -17 -4h-628q-22 4 -40 21q-17 18 -22 41v91q5 21 18 35q4 7 271 261 l265 255l-228 1h-227l-8 2q-49 16 -55 66q-1 12 2 27q9 43 55 56q4 2 7 2z"
         unicode="z" />
      <glyph
         id="glyph201"
         d="M605 1180q7 2 128 2l128 -2q49 -9 61 -57q2 -8 2 -18q0 -49 -46 -70q-8 -3 -17 -5q-6 -1 -122 -1h-116v-149q0 -160 -4 -183q-11 -53 -46 -95l-7 -9l6 -10q24 -30 38 -67q6 -18 12 -43l1 -11v-155v-153h116q115 0 122 -2q49 -9 61 -58q2 -7 2 -18q0 -51 -47 -70l-16 -4 l-128 -2q-128 0 -146 5q-75 19 -105 91q-5 8 -6 17q-5 18 -5 179q-1 165 -8 179q-15 31 -50 41q-6 2 -92 2q-88 2 -94 4q-53 16 -56 73q0 55 56 74q6 3 94 3q92 0 106 7q32 15 41 50q2 7 3 165v158l2 10q12 56 56 91q32 26 76 31z"
         unicode="{" />
      <glyph
         id="glyph203"
         d="M471 292v222h75h77v-225q0 -231 -8 -246q-11 -24 -34 -35q-23 -10 -43 -8q-8 2 -17 5q-14 4 -27 18t-18 26q-5 14 -5 200v43zM534 1180l33 -1q5 -2 14 -5q23 -11 34 -35q7 -14 8 -66v-180v-225h-77h-75v222q0 229 5 243q4 12 18 25q17 17 40 22z"
         unicode="|" />
      <glyph
         id="glyph205"
         d="M235 1180q4 2 125 2q129 0 148 -5q75 -19 104 -90q4 -10 7 -18q4 -18 4 -179l2 -158l1 -8q10 -34 42 -49q14 -7 71 -7h34q91 0 104 -7q44 -17 47 -70q0 -47 -47 -70q-13 -5 -104 -7q-91 0 -105 -8q-26 -11 -37 -35q-6 -14 -6 -78l-2 -101v-159l-1 -10q-10 -38 -32 -67 q-35 -41 -90 -53l-11 -3h-126h-128l-8 3q-53 21 -56 73q0 53 56 75l6 1l119 2h119v148q0 148 2 164q3 28 11 50q14 39 39 67l6 10q-2 0 -8 9q-33 42 -45 95q-5 24 -5 183v149h-119h-119l-6 3q-35 9 -50 41q-9 20 -6 42q1 11 6 22q16 37 58 43z"
         unicode="}" />
      <glyph
         id="glyph207"
         d="M374 1180q39 5 78 -6q23 -5 42 -14q57 -29 91 -82q27 -41 35 -89q3 -12 3 -72l2 -57l3 -10q11 -33 40 -48q14 -6 32 -6q14 1 29 7q24 11 35 37q7 14 7 76q0 -5 0 41q0 102 8 118q11 22 35 33q16 8 34 9l27 -5l6 -4q25 -11 36 -33q8 -16 8 -69v-54q0 -102 -3 -115 q-6 -34 -20 -64q-46 -94 -151 -122q-24 -7 -48 -7q-101 -5 -173 75q-39 43 -53 99q-6 24 -6 89l-1 59l-4 8q-10 32 -39 49q-14 6 -32 6q-45 -3 -64 -43q-7 -16 -7 -77q0 6 -1 -42q0 -102 -9 -116q-11 -24 -33 -35q-16 -8 -34 -9q-19 0 -35 9q-22 11 -33 35q-8 14 -8 66v50 l1 112q10 76 63 133q57 59 139 68z"
         unicode="~" />
      <glyph
         id="glyph209"
         d="M133 591v630h413h416v-630v-629h-416h-413v629z" />
      <glyph
         id="glyph211"
         unicode="" />
      <glyph
         id="glyph213"
         d="M783 1180h78q49 -9 61 -57l2 -18q0 -53 -52 -71l-6 -4q-5 -1 -37 -1q-35 -2 -50 -8q-24 -11 -36 -35q-4 -6 -48 -162q-44 -155 -44 -156h102t108 -2q49 -9 61 -56q2 -9 2 -19q0 -49 -46 -68q-8 -5 -17 -7q-6 -1 -131 -2h-126v-2q0 -1 -53 -180l-53 -178h182 q184 -2 197 -7q44 -18 47 -71q0 -51 -47 -70l-17 -4l-317 -2h-310l-6 3q-53 16 -56 73q0 55 56 75q6 1 59 3q55 0 54 0l52 180q53 178 52 180h-105l-106 2l-6 2q-53 16 -56 73q0 55 56 74l6 3h128h130l50 177q53 177 56 187q32 87 114 126q35 16 72 22z"
         unicode="" />
      <glyph
         id="glyph215"
         d="M235 1180q15 3 33 -1q10 -4 18 -8q14 -10 24 -24q4 -7 121 -206l115 -198l4 3l115 196l118 201q27 47 78 37q23 -5 38 -19q11 -11 18 -24q10 -19 7 -41q-2 -13 -7 -23q-3 -6 -149 -253l-145 -250v-15v-17h116h122q49 -9 61 -58q2 -9 2 -18q0 -48 -46 -69q-8 -3 -17 -6 h-122h-116v-163q0 -166 -8 -181q-11 -24 -34 -35q-23 -10 -43 -8q-8 2 -17 5q-14 4 -27 18t-18 26q-5 14 -5 180v158h-119h-119l-6 1q-53 16 -56 74q0 54 56 75l6 1h119h119v17v15l-145 250q-147 247 -149 253q-9 20 -6 42q1 11 6 22q16 37 58 43z"
         unicode="" />
      <glyph
         id="glyph217"
         d="M471 760v914h75h77v-914v-912h-77h-75v912z"
         unicode="" />
      <glyph
         id="glyph219"
         d="M235 666q4 2 311 2q317 0 329 -5q29 -11 42 -40q21 -44 -13 -82q-18 -21 -44 -25l-317 -2l-310 2l-6 2q-35 11 -50 41q-9 21 -6 42q1 11 6 22q16 37 58 43z"
         unicode="" />
      <glyph
         id="glyph221"
         d="M462 1180h88q91 0 107 -6q22 -11 33 -35q8 -16 8 -34q0 -12 -38 -207q-38 -197 -40 -203q-5 -14 -18 -27q-19 -21 -46 -24l-29 1q-3 2 -4 2q-16 6 -29 19q-14 13 -20 29q-1 6 -40 203q-38 195 -38 207l2 20q8 24 26 40q17 12 38 15z"
         unicode="" />
      <glyph
         id="glyph223"
         d="M420 377l130 1q129 -1 143 -8q25 -10 36 -35q6 -15 7 -68v-78q0 -131 -7 -146q-11 -24 -36 -35q-15 -8 -70 -8h-72q-127 0 -142 5q-14 4 -28 18q-18 18 -21 41v250q4 23 21 41q17 17 39 22z"
         unicode="" />
      <glyph
         id="glyph225"
         d="M384 537l166 1q166 0 182 -8q22 -11 33 -33q8 -16 8 -69v-158q0 -212 -8 -227q-11 -24 -33 -35q-16 -8 -67 -8l-61 3q-3 0 -8 2q-14 4 -27 18t-18 26q-4 14 -5 148v124h-78q-83 0 -98 5q-14 6 -27 19q-12 12 -17 25q-5 15 -5 60q0 44 5 59q5 14 17 27q18 18 41 21z"
         unicode="" />
      <glyph
         id="glyph227"
         d="M686 1180q18 3 36 -3q10 -3 17 -8l162 -137q14 -14 21 -35l3 -8v-77v-77l-3 -7q-5 -14 -15 -28q-5 -6 -218 -190l-215 -182l-1 -182q0 -189 -8 -203q-11 -24 -34 -35q-22 -10 -43 -8q-7 2 -18 5q-14 4 -27 18q-18 18 -22 41v412q5 22 22 40q8 8 219 187l209 181v28v29 l-17 16l-36 30l-20 18l-203 -173q-203 -174 -207 -177q-24 -15 -53 -11q-11 1 -23 8q-41 21 -41 67q0 34 24 56l456 390q15 12 35 15z"
         unicode="" />
      <glyph
         id="glyph229"
         d="M535 924h24q26 -5 43 -25q8 -6 11 -12l309 -793l2 -32q0 -1 -2 -4q-13 -48 -61 -56q-18 -4 -33 1q-34 9 -49 38q-3 8 -54 141l-4 10h-173h-174l-29 -73q-29 -72 -31 -78q-6 -11 -15 -20q-40 -38 -90 -12q-29 16 -37 50l-1 34h1l302 781q5 9 10 16q11 18 27 26q13 6 24 8z M604 491q-56 143 -56 145q0 1 -11 -24l-46 -120l-58 -146l58 -1h113l57 1zM834 1180l33 -1q7 -2 14 -5q25 -11 36 -35q8 -16 8 -67q0 6 0 -26q0 -80 -5 -95q-11 -32 -43 -45q-13 -5 -29 -5q-20 0 -34 6q-35 18 -41 56v156q5 22 23 39q15 17 38 22zM233 1180l34 -1 q4 -2 14 -5q22 -11 33 -35q8 -16 9 -67q0 6 0 -26q1 -80 -5 -95q-11 -32 -43 -45q-13 -5 -29 -5q-18 0 -32 6q-35 18 -43 56v156q5 22 22 39q18 17 40 22z"
         unicode="" />
      <glyph
         id="glyph231"
         d="M380 1180l171 2l165 -2l9 -1q40 -10 67 -32q42 -34 54 -89q2 -10 2 -82q0 -70 -2 -80q-12 -56 -54 -89q-27 -23 -60 -31l-8 -1l97 -337q99 -336 101 -344l2 -32q0 -1 -2 -4q-13 -46 -59 -56q-10 -2 -20 -2q-49 3 -67 49q-1 6 -32 108l-28 100h-170h-168l-30 -102 q-29 -102 -31 -107q-8 -23 -29 -36q-43 -28 -85 2q-24 16 -31 45l-1 32l1 3q2 8 99 344l99 337l-7 1q-34 8 -60 29q-42 35 -56 91q-1 10 -1 80q0 72 1 82q13 56 56 91q32 26 77 31zM697 976v53h-151h-148v-53v-51h148h151v51zM566 770q0 1 -20 1q-18 0 -17 -1q0 -3 -53 -180 l-52 -180h62h122h63l-52 180q-53 177 -53 180z"
         unicode="" />
      <glyph
         id="glyph233"
         d="M608 1180h253q49 -9 61 -57q2 -8 2 -18q0 -49 -46 -70q-8 -3 -17 -5q-6 -1 -85 -1h-78v-181v-180h78q78 0 85 -2q49 -9 61 -56q2 -9 2 -19q0 -49 -46 -68q-8 -5 -17 -7q-6 -1 -85 -2h-78v-180v-180h78q78 0 85 -2q49 -9 61 -58q2 -7 2 -18q0 -51 -47 -70q-8 -3 -16 -4 h-253q-22 4 -39 21q-13 14 -18 26q-4 14 -5 114v94h-76q-75 0 -77 -1q0 -2 -38 -105q-38 -104 -41 -110q-6 -11 -15 -20q-40 -38 -90 -12q-29 16 -37 50l-1 32l1 3l384 1049q11 18 27 28q11 6 25 9zM544 410v131v130l-47 -130l-46 -131h46h47z"
         unicode="" />
      <glyph
         id="glyph235"
         d="M236 796l31 -2q14 -5 25 -13q7 -5 243 -257l236 -254v232q0 236 8 251q16 30 49 41h35h4q16 -5 29 -16q20 -14 28 -40q1 -6 1 -340t-1 -340q-4 -7 -7 -15q-11 -24 -36 -35q-21 -10 -43 -8q-7 2 -15 5q-14 4 -27 18q-10 7 -240 255l-232 248l-1 -232q0 -236 -9 -251 q-11 -24 -33 -35q-14 -6 -28 -8l-31 5l-15 6q-15 9 -27 27q-6 11 -9 28v336q0 331 1 336q5 18 15 30q19 21 49 28zM233 1180q6 2 11 2l267 -28l264 -28l1 7q5 12 20 25q12 14 27 19q19 6 38 3q11 -1 20 -6q25 -11 36 -35q7 -16 8 -61l-3 -55q0 -4 -2 -9q-4 -12 -18 -25 q-19 -21 -46 -24l-271 27l-262 27q-3 0 -5 -5q-4 -12 -16 -25q-20 -21 -46 -24q-16 -2 -32 3q-10 3 -18 8q-16 9 -26 26q-3 6 -4 12q-5 14 -5 59t5 60q4 12 17 25q18 17 40 22z"
         unicode="" />
      <glyph
         id="glyph237"
         d="M524 1180q34 5 72 -5q21 -6 38 -14q59 -28 91 -91l7 -11q1 2 25 43q29 48 35 56q22 21 51 24q31 2 55 -19l15 -21q2 -2 4 -5q10 -19 7 -41q-2 -13 -7 -23q-3 -6 -53 -93l-51 -85l42 -84q41 -82 47 -97q29 -80 22 -161q-5 -30 -14 -59q-8 -29 -100 -215q-87 -172 -92 -181 q-11 -20 -28 -37q-73 -75 -176 -58q-29 5 -54 18q-59 29 -91 91l-6 11q-2 -1 -26 -43q-30 -52 -38 -59q-40 -38 -90 -12q-29 16 -37 50q-4 14 -1 32q1 10 6 17q2 5 53 92l51 88l-30 58l-40 81q-10 21 -14 32q-18 43 -25 92v75v5q7 48 23 90l183 367q39 62 108 83q17 6 38 9z M558 1027q-16 3 -29 -3q-8 -3 -15 -10q-6 -5 -89 -174q-85 -169 -88 -179q-8 -17 -11 -39v-60v-1q3 -21 9 -37l39 -79l265 454l-27 57q-28 54 -32 58q-10 10 -22 13zM739 701l-17 35l-266 -455q0 -2 26 -54q27 -55 32 -61q9 -9 23 -11q14 -4 29 2q7 3 14 9q4 6 53 102 l86 173q38 75 43 88q11 35 9 70v6q-3 39 -32 96z"
         unicode="" />
      <glyph
         id="glyph239"
         d="M506 924h81q76 -10 124 -71q6 -7 40 -54l87 -125l60 -84q21 -32 26 -69l1 -64q-1 -53 -3 -64q-6 -30 -23 -54q-3 -5 -73 -104l-90 -128q-19 -27 -25 -35q-48 -61 -124 -70h-79q-77 9 -124 70l-189 268q-14 23 -21 53q-3 11 -3 64l1 64q4 32 18 57q7 8 138 197 q56 79 67 92q46 47 111 57zM578 768l-6 3h-22h-27q-10 -3 -18 -9q-3 -5 -31 -44l-89 -127l-61 -88v-40l-1 -41l61 -87l89 -128q29 -39 32 -42q4 -5 11 -8l7 -3h23h26l6 3q6 3 12 8q3 3 54 74l89 128l38 55v40q0 40 -1 43q-2 3 -37 53l-88 124q-51 73 -55 78q-6 5 -12 8z M834 1180l33 -1q7 -2 14 -5q25 -11 36 -35q8 -16 8 -67q0 6 0 -26q0 -80 -5 -95q-11 -32 -43 -45q-13 -5 -29 -5q-20 0 -34 6q-35 18 -41 56v156q5 22 23 39q15 17 38 22zM233 1180l34 -1q4 -2 14 -5q22 -11 33 -35q8 -16 9 -67q0 6 0 -26q1 -80 -5 -95q-11 -32 -43 -45 q-13 -5 -29 -5q-18 0 -32 6q-35 18 -43 56v156q5 22 22 39q18 17 40 22z"
         unicode="" />
      <glyph
         id="glyph241"
         d="M235 924h24q24 -4 40 -22q15 -14 22 -36q2 -5 2 -328q1 -323 3 -327q9 -35 41 -50q14 -7 74 -7h107q166 0 181 7q30 15 41 50q1 4 1 327t2 328q11 35 40 50q30 15 62 4q16 -6 29 -21q11 -11 16 -24q5 -14 5 -228q0 49 0 -112q0 -318 -1 -334q-5 -38 -23 -73 q-49 -99 -158 -123q-10 -2 -19 -3q-16 -2 -176 -2q-162 0 -173 2q-113 12 -172 110q-26 42 -31 92l-1 657q8 38 40 55q13 6 24 8zM684 1180l32 -1q6 -2 16 -5q22 -11 33 -35q8 -16 8 -67q0 6 0 -26q0 -80 -5 -95q-11 -32 -43 -45q-12 -5 -28 -5q-18 0 -34 6q-34 18 -41 56 v156q4 22 22 39q17 17 40 22zM384 1180l33 -1q5 -2 14 -5q23 -11 34 -35q8 -16 8 -67q0 6 0 -26q1 -80 -5 -95q-11 -32 -43 -45q-12 -5 -29 -5q-18 0 -32 6q-35 18 -43 56v156q5 22 22 39q18 17 41 22z"
         unicode="" />
      <glyph
         id="glyph243"
         horiz-adv-x="837"
         unicode="" />
      <glyph
         id="glyph245"
         horiz-adv-x="1674"
         unicode="" />
      <glyph
         id="glyph247"
         horiz-adv-x="837"
         unicode="" />
      <glyph
         id="glyph249"
         horiz-adv-x="1674"
         unicode="" />
      <glyph
         id="glyph251"
         horiz-adv-x="558"
         unicode="" />
      <glyph
         id="glyph253"
         horiz-adv-x="418"
         unicode="" />
      <glyph
         id="glyph255"
         horiz-adv-x="279"
         unicode="" />
      <glyph
         id="glyph257"
         horiz-adv-x="279"
         unicode="" />
      <glyph
         id="glyph259"
         horiz-adv-x="209"
         unicode="" />
      <glyph
         id="glyph261"
         horiz-adv-x="334"
         unicode="" />
      <glyph
         id="glyph263"
         horiz-adv-x="93"
         unicode="" />
      <glyph
         id="glyph265"
         d="M233 666l318 2q310 0 316 -2q18 -6 29 -15q13 -10 21 -26t8 -66q0 -49 -8 -65t-21 -26q-11 -9 -29 -16q-6 -1 -314 -1l-317 1q-15 2 -29 10q-15 9 -27 27q-3 5 -4 11q-5 14 -5 59t5 60q4 12 17 26q18 16 40 21z"
         unicode="" />
      <glyph
         id="glyph267"
         d="M233 666l318 2q310 0 316 -2q18 -6 29 -15q13 -10 21 -26t8 -66q0 -49 -8 -65t-21 -26q-11 -9 -29 -16q-6 -1 -314 -1l-317 1q-15 2 -29 10q-15 9 -27 27q-3 5 -4 11q-5 14 -5 59t5 60q4 12 17 26q18 16 40 21z"
         unicode="" />
      <glyph
         id="glyph269"
         d="M233 666l318 2q310 0 316 -2q18 -6 29 -15q13 -10 21 -26t8 -66q0 -49 -8 -65t-21 -26q-11 -9 -29 -16q-6 -1 -314 -1l-317 1q-15 2 -29 10q-15 9 -27 27q-3 5 -4 11q-5 14 -5 59t5 60q4 12 17 26q18 16 40 21z"
         unicode="" />
      <glyph
         id="glyph271"
         d="M255 666l432 2q421 0 429 -2q25 -6 40 -15q17 -10 28 -26t11 -66q0 -49 -11 -65t-28 -26q-15 -9 -40 -16q-8 -1 -426 -1l-431 1q-20 2 -39 10q-20 9 -37 27q-4 5 -5 11q-7 14 -7 59t7 60q5 12 23 26q24 16 54 21z"
         horiz-adv-x="1411"
         unicode="" />
      <glyph
         id="glyph273"
         d="M339 666l864 2q842 0 858 -2q49 -6 79 -15q36 -10 57 -26q22 -16 22 -66q0 -49 -22 -65q-21 -16 -57 -26q-30 -9 -79 -16q-16 -1 -852 -1l-861 1q-41 2 -79 10q-41 9 -74 27q-8 5 -10 11q-14 14 -14 59t14 60q10 12 46 26q49 16 108 21z"
         horiz-adv-x="2435"
         unicode="" />
      <glyph
         id="glyph275"
         horiz-adv-x="334"
         unicode="" />
      <glyph
         id="glyph277"
         horiz-adv-x="418"
         unicode="" />
      <glyph
         id="glyph279"
         d="M0 863h863v-863h-863v863z"
         horiz-adv-x="861"
         unicode="" />
      <glyph
         id="glyph3258"
         glyph-name="glyph 135" />
      <glyph
         id="glyph3260"
         glyph-name="glyph 136" />
    </font>
    <font
       horiz-adv-x="1024"
       id="font6651"
       inkscape:label="font 2"
       horiz-origin-x="0"
       horiz-origin-y="0"
       vert-origin-x="45"
       vert-origin-y="90"
       vert-adv-y="90">
      <font-face
         units-per-em="1024"
         id="font-face6653"
         font-family="OCRA-stripped" />
      <missing-glyph
         d="m 0,1003.1832 1024.4475,0 0,-1568 -1024.4475,0 z"
         id="missing-glyph6655" />
      <glyph
         glyph-name="A"
         id="glyph6657"
         unicode="A"
         d="m 513.34389,1026.4983 c -30.30607,0 -48.31182,-13.9905 -60.48517,-34.34958 l 123.21053,0 c -12.61325,20.16868 -31.74136,34.34958 -62.72536,34.34958 z m -79.15343,-82.14033 -17.17481,-57.49825 193.4032,0 -16.42808,57.49825 -159.80031,0 z m -30.61595,-105.289 -16.42807,-57.49824 253.88835,0 -16.42807,57.49824 -221.03221,0 z m -30.61595,-105.28898 -16.42808,-57.49826 314.37353,0 -16.42807,57.49826 -281.51738,0 z m -30.61595,-105.289 -16.42807,-57.49824 159.80032,0 16.42807,57.49824 -159.80032,0 z m 182.20223,0 16.42807,-57.49824 159.80031,0 -16.42806,57.49824 -159.80032,0 z M 312.47339,523.202 l -16.42807,-56.75152 159.80032,0 16.42807,56.75152 -159.80032,0 z m 241.94067,0 15.68134,-56.75152 160.54704,0 -16.42806,56.75152 -159.80032,0 z m -272.55661,-104.54227 -16.42808,-57.49824 159.80032,0 16.42807,57.49824 -159.80031,0 z m 301.67909,0 16.42808,-57.49824 160.54704,0 -16.42807,57.49824 -160.54705,0 z m -332.29504,-105.289 -16.42808,-57.49824 160.54706,0 16.42806,57.49824 -160.54704,0 z m 362.16426,0 16.42808,-57.49824 160.54704,0 -16.42807,57.49824 -160.54705,0 z m -392.03348,-105.28898 -17.1748,-57.49825 616.05262,0 -16.42807,57.49825 -582.44975,0 z m -30.61595,-105.28898 -17.1748,-57.4983 160.54705,0 14.9346,46.2973 327.06794,0 14.18788,-46.2973 159.80032,0 -16.42807,57.4983 -642.93492,0 z M 160.14039,-2.4963 l -16.42808,-56.7516 156.8134,0 18.66826,56.7516 -159.05358,0 z m 545.11322,0 17.1748,-56.7516 157.56005,0 -15.68123,56.7516 -159.05362,0 z M 132.51135,-107.0386 c 1.38195,-24.885 23.48117,-48.1914 50.77768,-57.4983 l 49.28421,0 c 26.28278,9.3183 43.27141,32.5795 53.01786,57.4983 l -153.07975,0 z m 605.5984,0 c 9.86157,-24.9188 26.57651,-48.18 53.01786,-57.4983 l 50.03095,0 c 27.16757,9.3762 49.4075,32.6965 50.7776,57.4983 l -153.82641,0 z" />
      <glyph
         glyph-name="B"
         id="glyph6667"
         unicode="B"
         d="m 138.36257,1026.4982 0,-34.3496 596.63764,0 c -45.5141,22.1364 -100.46648,34.3496 -166.52089,34.3496 l -430.11675,0 z m 0,-82.14035 0,-57.49824 710.14066,0 c -12.40784,21.5891 -27.47916,40.5664 -44.80383,57.49824 l -665.33683,0 z m 0,-105.28899 0,-57.49825 153.07974,0 0,57.49825 -153.07974,0 z m 551.08708,0 c 18.08508,-14.6778 30.44784,-33.64444 38.82998,-57.49825 l 158.30689,0 c -4.1742,20.37404 -9.67607,39.34319 -16.42811,57.49825 l -180.70876,0 z m -551.08708,-105.28899 0,-57.49824 153.07974,0 0,57.49824 -153.07974,0 z m 601.11802,0 c 2.31403,-17.60266 3.59283,-36.83394 3.73365,-57.49824 l 153.82648,0 c -0.1362,20.03282 -1.0588,38.87495 -2.987,57.49824 l -154.57313,0 z m -601.11802,-105.289 0,-57.49824 153.07974,0 0,57.49824 -153.07974,0 z m 601.11802,0 c -3.77939,-22.34502 -10.30075,-41.57262 -20.16173,-57.49824 l 165.77406,0 c 4.9692,18.88466 7.9844,37.78977 9.7075,57.49824 l -155.31983,0 z m -601.11802,-105.28899 0,-56.75151 693.71259,0 c 15.08876,18.47304 26.67274,37.21126 35.84307,56.75151 l -203.85742,0 c -26.1537,-12.01079 -58.04923,-17.92154 -95.58149,-17.92154 l -277.03701,0 0,17.92154 -153.07974,0 z m 0,-104.54227 0,-57.49824 713.12758,0 c -12.00638,19.37872 -27.47492,38.46682 -46.29729,57.49824 l -666.83029,0 z m 0,-105.28898 0,-57.49825 153.07974,0 0,57.49825 -153.07974,0 z m 557.80765,0 c 15.80024,-14.90322 26.19755,-34.49604 33.60287,-57.49825 l 159.80023,0 c -3.401,20.07938 -8.7099,38.95028 -15.68126,57.49825 l -177.72184,0 z m -557.80765,-105.289 0,-57.49824 153.07974,0 0,57.49824 -153.07974,0 z m 601.86474,0 c 2.09587,-17.73417 2.98693,-36.75588 2.98693,-57.49824 l 153.82648,0 c 0,20.24294 -1.0328,39.13603 -2.2403,57.49824 l -154.57311,0 z m -601.86474,-105.289 0,-57.49822 153.07974,0 0,57.49822 -153.07974,0 z m 600.37128,0 C 734.37873,80.10649 727.15626,61.19036 716.33194,45.29441 l 167.26758,0 c 5.0947,17.95823 8.1628,37.55176 10.4542,57.49822 l -155.31987,0 z M 138.36257,-2.4964 l 0,-56.7515 690.72567,0 c 13.94995,17.1031 25.99872,36.003 35.84305,56.7515 l -211.32471,0 c -24.09023,-9.0884 -52.51402,-13.4411 -85.12726,-13.4411 l -277.03701,0 0,13.4411 -153.07974,0 z m 0,-104.5422 0,-57.4983 494.33556,0 c 56.25753,8.2921 105.16247,27.9975 145.61243,57.4983 l -639.94799,0 z" />
      <glyph
         glyph-name="g"
         id="glyph6677"
         unicode="g"
         d="m 489.67677,693.7547 c -43.09746,0 -69.35427,-11.77392 -103.83219,-39.35711 l -20.93391,-16.74711 410.30465,0 C 727.3373,671.78246 685.46894,693.7547 649.61187,693.7547 l -159.9351,0 z m 447.98571,0 c -41.12695,0 -66.8149,-23.50494 -77.87416,-56.10422 l 151.56158,0 c -8.7089,31.72307 -28.05928,56.10422 -73.68742,56.10422 z M 296.24745,584.05966 264.42788,558.93898 C 253.20839,549.9652 244.19496,536.2111 235.95776,519.58455 l 236.9719,0 c 10.34274,5.71547 23.00331,8.37357 38.51838,8.37357 l 121.41668,0 c 8.35507,0 17.10672,-3.3521 26.79542,-8.37357 l 358.38856,0 0,57.77628 c 0,2.1972 0.027,4.4775 0,6.69883 l -164.95925,0 0,-6.69883 -8.37354,6.69883 -548.46846,0 z M 217.53593,465.99375 c -4.40195,-19.60886 -7.39473,-41.28636 -8.37356,-63.63908 l 165.79657,0 c 1.81941,23.26375 6.02307,44.4375 19.25919,55.26551 l 10.88566,8.37357 -187.56786,0 z m 514.13686,0 76.19943,-63.63908 210.17648,0 0,63.63908 -286.37591,0 z m -523.34776,-117.22991 0,-64.47778 164.9592,0 0,64.47778 -164.9592,0 z m 642.25236,0 c 1.62113,-7.83765 2.51074,-15.87895 2.51074,-24.28467 l 0,-40.19311 164.95917,0 0,64.47778 -167.47125,0 z m -642.25236,-118.0686 0,-64.47509 164.9592,0 0,64.47509 -164.9592,0 z m 644.76442,0 0,-26.79539 c 0,-13.64692 -2.34726,-26.8892 -6.69882,-37.6797 l 171.65807,0 0,64.47509 -164.95925,0 z M 209.16237,112.62939 c 0.46356,-23.80243 1.58093,-45.49325 6.69885,-64.47798 l 206.82703,0 -28.47012,22.61004 c -10.46868,8.56377 -15.753,24.32488 -18.42184,41.86794 l -166.63392,0 z m 581.96272,0 -77.87414,-64.47798 304.79775,0 0,64.47798 -226.92361,0 z M 244.33136,-5.4392 c 4.52358,-5.3028 9.34782,-10.595 15.07238,-15.9084 l 53.59084,-48.5666 519.99834,0 20.09653,20.9323 0,-20.9323 164.95925,0 0,64.475 -773.71734,0 z m 128.95287,-118.0661 c 45.31293,-36.782 82.60809,-41.0316 114.71785,-41.0316 l 194.26668,0 c 30.22601,0 62.66238,17.9635 92.10919,41.0316 l -401.09372,0 z m 479.80522,0 0,-63.6389 164.95925,0 0,63.6389 -164.95925,0 z m 0,-117.2298 0,-36.0075 c 0,-10.4476 -1.22454,-19.7053 -3.3494,-28.4703 l 166.63385,0 c 1.112,18.7677 1.5677,39.6144 1.6748,64.4778 l -164.95925,0 z m -38.51837,-118.0687 -26.79542,-25.1206 c -25.85837,-22.4089 -48.42009,-37.6796 -82.89829,-37.6796 l -303.96037,0 c -10.20638,0 -20.10327,-0.536 -30.14485,-1.6614 l 612.10759,0 c 13.13789,18.0227 21.57486,38.197 26.79536,64.4753 l -195.10402,0 z M 291.22332,-476.8696 c -2.44644,-8.1726 -3.34945,-16.9803 -3.34945,-27.6341 0,-14.8715 2.73475,-26.7765 7.5362,-36.8436 l 555.16732,0 c 10.15251,7.1569 20.46902,15.6618 31.81952,25.1206 l 46.89198,39.3571 -638.06557,0 z" />
      <glyph
         glyph-name="C"
         id="glyph6699"
         unicode="C"
         d="m 556.94617,1024.3845 c -59.24008,0 -105.49618,-10.6492 -143.50098,-34.38045 l 470.86262,0 c -14.80907,24.90655 -42.27492,34.38045 -65.7713,34.38045 l -261.59034,0 z M 361.12711,942.17039 C 348.05035,925.88205 335.82478,906.4719 324.50447,884.62051 l 540.37091,0 c 16.39115,11.33282 28.41319,29.81348 29.89603,57.54988 l -533.6443,0 z m -60.53947,-105.38354 -29.14865,-57.54987 170.40743,0 13.45322,26.15904 c 6.41616,12.83222 11.73311,23.11111 17.19021,31.39083 l -171.90221,0 z m -52.31808,-105.38353 -29.14864,-57.54989 170.40743,0 28.40124,57.54989 -169.66003,0 z M 195.20409,626.01977 178.76127,592.38673 c -4.25002,-8.49987 -7.65769,-16.04176 -11.21101,-23.91683 l 168.91262,0 29.14864,57.54987 -170.40743,0 z M 149.61263,520.63624 c -5.54272,-18.35318 -9.93122,-36.65537 -11.95841,-56.80248 l 156.2068,0 c 3.97331,19.20536 10.5954,37.56493 19.43243,56.80248 l -163.68082,0 z M 135.41201,416.0001 c 0.30136,-20.27571 3.08575,-39.14389 6.72662,-57.54987 l 159.1964,0 c -6.86628,17.42271 -11.35165,35.30454 -11.95841,57.54987 l -153.96461,0 z m 19.43243,-105.38354 c 6.06315,-16.96122 13.85239,-33.68409 22.42203,-50.82326 l 2.9896,-6.72662 171.90223,0 -28.40124,57.54988 -168.91262,0 z m 49.32846,-105.38354 28.40124,-57.54987 171.15483,0 -28.40124,57.54987 -171.15483,0 z m 52.31808,-105.38354 28.40123,-57.54987 171.15483,0 c -1.21737,2.39969 -2.473,4.13556 -3.737,6.72661 l -24.66424,50.82326 -171.15482,0 z M 308.06164,-5.5341 318.52526,-26.4613 c 6.3303,-12.8585 13.22552,-24.7928 20.17983,-35.8752 l 550.08712,0 c -12.97704,31.8655 -44.11292,43.3492 -70.2557,43.3492 l -250.37933,0 c -37.83499,0 -59.92864,1.7297 -76.98229,13.4532 l -183.11325,0 z m 67.26609,-104.6361 c 30.47507,-30.3988 67.18741,-49.2858 113.60495,-57.5499 l 358.00507,0 c 22.68703,7.815 42.48754,25.7922 47.08627,57.5499 l -518.69629,0 z" />
      <glyph
         glyph-name="D"
         id="glyph6712"
         unicode="D"
         d="m 224.24414,1024.3845 c -32.60458,0 -61.62745,-10.4363 -77.01666,-34.39579 l 469.57728,0 c -35.63451,22.80339 -78.45421,34.39579 -135.33995,34.39579 l -257.22067,0 z m -88.23268,-82.25079 c 1.42608,-28.21938 13.29818,-46.54335 31.40484,-57.57557 l 539.1166,0 c -11.61608,21.68133 -23.4712,41.06669 -36.63899,57.57557 l -533.88245,0 z m 149.54691,-105.43057 0,-57.57556 154.03331,0 0,57.57556 -154.03331,0 z m 272.17536,0 c 5.46601,-8.29978 10.84802,-18.40248 17.1979,-31.40486 l 12.71149,-26.1707 171.97894,0 -28.41391,57.57556 -173.47442,0 z m -272.17536,-105.43058 0,-57.57555 154.03331,0 0,57.57555 -154.03331,0 z m 326.01225,0 28.41391,-57.57555 171.97895,0 -28.41392,57.57555 -171.97894,0 z M 285.55837,625.842 l 0,-57.57556 154.03331,0 0,57.57556 -154.03331,0 z m 377.60593,0 28.41391,-57.57556 171.97895,0 c -4.43137,10.17782 -8.81442,20.34991 -14.20696,31.40485 l -13.45922,26.17071 -172.72668,0 z m -377.60593,-105.43057 0,-56.82782 154.03331,0 0,56.82782 -154.03331,0 z m 429.19962,0 c 9.11686,-19.06225 17.13305,-37.06122 21.6843,-56.82782 l 157.02425,0 c -2.15587,20.16778 -6.52982,38.60234 -11.96375,56.82782 l -166.7448,0 z M 285.55837,415.7286 l 0,-57.57557 154.03331,0 0,57.57557 -154.03331,0 z m 455.37033,0 c -0.45463,-21.46673 -4.51536,-39.65712 -11.21603,-57.57557 l 160.0152,0 c 3.67024,18.55558 5.67489,37.50881 5.98187,57.57557 l -154.78104,0 z m -455.37033,-105.43057 0,-57.57556 154.03331,0 0,57.57556 -154.03331,0 z m 422.47001,0 -28.41391,-57.57556 171.2312,0 c 9.76386,19.57827 18.6759,38.24471 25.42298,57.57556 l -168.24027,0 z m -422.47001,-105.43058 0,-57.57555 154.03331,0 0,57.57555 -154.03331,0 z m 370.12858,0 -28.41391,-57.57555 171.23121,0 28.41391,57.57555 -171.23121,0 z M 285.55837,99.43689 l 0,-57.57556 154.03331,0 0,57.57556 -154.03331,0 z m 317.78717,0 -26.91845,-54.58462 c -0.55032,-1.12986 -0.9547,-1.89961 -1.49546,-2.99094 l 170.48348,0 29.16164,57.57556 -171.23121,0 z M 285.55837,-5.9936 l 0,-13.4593 -73.27799,0 c -30.51858,0 -59.1933,-12.9317 -71.03478,-43.3686 l 550.33261,0 c 6.49034,10.4702 12.63301,22.1019 18.69337,34.3958 l 11.21602,22.4321 -180.95176,0 c -15.86752,-11.2949 -35.80105,-13.4593 -71.03478,-13.4593 l -29.90938,0 0,13.4593 -154.03331,0 z M 136.01146,-110.6765 c 4.12486,-31.7434 22.49377,-49.7427 45.61181,-57.5756 l 350.68749,0 c 49.81635,7.491 89.06942,24.7943 121.88073,57.5756 l -518.18003,0 z" />
    </font>
</defs>
</svg>
